<svg width="322" height="540" viewBox="0 0 322 540" fill="none" xmlns="http://www.w3.org/2000/svg">
<rect width="322" height="540" rx="16" fill="#04C604"/>
<path d="M87.478 475.163C87.478 475.163 59.8001 481.775 56.1073 481.634C52.4146 481.493 40 491.305 40 491.305C40 491.305 40.3869 497.425 46.049 497.179C51.7112 496.932 69.1902 500.238 71.6872 501.012C74.1841 501.786 89.6936 500.238 89.6936 500.238" fill="#039503"/>
<path d="M121.697 484.377L120.853 473.264L124.792 468.164L134.886 472.982L128.696 483.533L121.697 484.377Z" fill="#CDF4CD" stroke="black" stroke-width="0.33" stroke-miterlimit="10"/>
<path d="M86.8102 473.404L89.7995 468.516L120.854 473.264L121.698 484.377C121.698 484.377 86.8102 482.583 86.9157 482.302C87.0212 482.021 86.8102 473.404 86.8102 473.404Z" fill="#42B042" stroke="black" stroke-width="0.33" stroke-miterlimit="10"/>
<path d="M117.688 479.665L89.1661 487.367L97.7473 500.696L128.696 483.533L117.688 479.665Z" fill="#CDF4CD" stroke="black" stroke-width="0.33" stroke-miterlimit="10"/>
<path d="M77.6314 473.686C78.2996 473.44 78.9678 473.193 79.636 472.982C81.1483 472.455 81.4648 470.872 82.4143 470.626L105.907 473.299L108.721 477.414L117.689 479.735L89.1668 487.437L84.9113 489.793L76.1543 484.412L70.4569 479.665L71.09 478.293L75.0289 477.73C75.1344 477.554 77.5259 473.721 77.6314 473.686Z" fill="#9AE89A" stroke="black" stroke-width="0.33" stroke-miterlimit="10"/>
<path d="M76.1542 484.307L72.0746 494.717C72.0746 494.717 80.1634 494.963 83.188 497.284C86.2125 499.605 97.7479 500.66 97.7479 500.66L89.1667 487.366C89.1667 487.366 86.7048 488.175 83.821 486.1C80.9371 484.025 76.1542 484.307 76.1542 484.307Z" fill="#36D136" stroke="black" stroke-width="0.33" stroke-miterlimit="10"/>
<path d="M71.0897 478.188L76.1541 484.342L72.0745 494.717L60.1522 488.773C60.8204 488.211 69.8237 480.649 71.0897 478.188Z" fill="#42B042" stroke="black" stroke-width="0.33" stroke-miterlimit="10"/>
<path d="M89.7993 468.516L95.989 465.878L117.723 465.421L124.792 468.164L120.853 473.264L89.7993 468.516Z" fill="#9AE89A" stroke="black" stroke-width="0.33" stroke-miterlimit="10"/>
<path d="M89.8347 483.815L90.4678 480.157L105.907 473.264L108.72 477.379L89.8347 483.815Z" fill="#CDF4CD" stroke="black" stroke-width="0.33" stroke-miterlimit="10"/>
<path d="M77.6314 473.686L90.468 480.157L89.835 483.815L74.0793 477.73L77.6314 473.686Z" fill="#42B042" stroke="black" stroke-width="0.33" stroke-miterlimit="10"/>
<path d="M98.0992 500.766L102.706 494.647L109.142 497.601L110.76 503.474L98.0992 500.766Z" fill="#42B042" stroke="black" stroke-width="0.33" stroke-miterlimit="10"/>
<path d="M115.824 493.873L117.512 498.023L110.76 503.474L109.142 497.6L115.824 493.873Z" fill="#DFF8DF" stroke="black" stroke-width="0.33" stroke-miterlimit="10"/>
<path d="M102.707 494.647L109.142 497.601L115.825 493.873L110.338 491.306L102.707 494.647Z" fill="#9AE89A" stroke="black" stroke-width="0.33" stroke-miterlimit="10"/>
<path d="M134.886 472.982L124.792 468.199L117.723 465.456L95.9888 465.913L89.7991 468.551L88.1462 471.294L82.4136 470.626C81.4641 470.907 81.1827 472.455 79.6353 472.982C78.9671 473.229 78.2989 473.44 77.6307 473.686C77.5955 473.721 77.5955 473.721 77.5603 473.756L74.0435 477.765L71.0893 478.222C69.8232 480.684 60.82 488.246 60.1166 488.808L72.0388 494.752C72.0388 494.752 80.1277 494.998 83.1522 497.319C86.1767 499.64 97.7121 500.695 97.7121 500.695L98.4507 500.273L98.099 500.766L110.76 503.474L117.512 498.023L115.824 493.873L112.659 492.396L128.696 483.498L134.886 472.982Z" stroke="black" stroke-width="0.33" stroke-linecap="round" stroke-linejoin="round"/>
<path d="M249.465 462.959C249.465 462.959 235.292 465.386 233.358 465.14C231.424 464.894 224.038 468.516 224.038 468.516C224.038 468.516 225.621 471.505 228.61 471.646C231.6 471.787 238.95 475.55 240.216 476.007C241.482 476.464 247.179 477.449 247.179 477.449" fill="#039503"/>
<path d="M272.15 472.947L263.042 462.784L250.346 467.707L247.181 477.449L272.15 472.947Z" fill="#9AE89A" stroke="black" stroke-width="0.33" stroke-miterlimit="10"/>
<path d="M242.08 462.256L233.815 468.446L247.18 477.449L250.345 467.707L242.08 462.256Z" fill="#42B042" stroke="black" stroke-width="0.33" stroke-miterlimit="10"/>
<path d="M263.041 462.784L250.345 467.707L242.08 462.256L252.138 458.845L263.041 462.784Z" fill="#68DD68" stroke="black" stroke-width="0.33" stroke-miterlimit="10"/>
<path d="M263.041 462.784L250.345 467.707L252.701 461.904L252.139 458.845L263.041 462.784Z" fill="#CDF4CD" stroke="black" stroke-width="0.33" stroke-miterlimit="10"/>
<path d="M279.746 473.405L275.701 471.048L272.923 473.721L273.978 476.922L279.746 473.405Z" fill="#9AE89A" stroke="black" stroke-width="0.33" stroke-miterlimit="10"/>
<path d="M266.98 471.154L264.307 474.284L273.978 476.922L272.923 473.721L266.98 471.154Z" fill="#42B042" stroke="black" stroke-width="0.33" stroke-miterlimit="10"/>
<path d="M275.702 471.048L272.923 473.721L266.98 471.154L269.864 469.606L275.702 471.048Z" fill="#DFF8DF" stroke="black" stroke-width="0.33" stroke-miterlimit="10"/>
<path d="M279.746 473.404L275.702 471.048L269.864 469.606L269.371 469.852L263.041 462.783L252.138 458.844L242.08 462.256L233.815 468.446L247.18 477.449L264.448 474.319L273.978 476.921L279.746 473.404Z" stroke="black" stroke-width="0.33" stroke-linecap="round" stroke-linejoin="round"/>
<path d="M144.803 506.428L168.648 510.824L182.153 511L196.713 509.452L213.277 500.379L218.482 484.483L207.58 470.415L197.768 471.927L194.497 470.134L186.373 469.993L164.92 489.723" fill="#42B042"/>
<path d="M144.803 506.428L168.648 510.824L182.153 511L196.713 509.452L213.277 500.379L218.482 484.483L207.58 470.415L197.768 471.927L194.497 470.134L186.373 469.993L164.92 489.723" stroke="black" stroke-width="0.33" stroke-miterlimit="10"/>
<path d="M238.389 497.987L216.654 506.604L196.713 509.452L194.216 505.162L203.642 497.214L195.729 494.857L199.246 490.496L205.048 484.342L207.581 470.415L228.084 477.836L239.127 490.356L238.389 497.987Z" fill="#013101" stroke="black" stroke-width="0.33" stroke-linecap="round" stroke-linejoin="round"/>
<path d="M135.87 485.011L135.131 495.386L144.803 506.429L160.277 501.54L173.325 497.285L179.093 489.864L186.373 469.994L175.576 471.928L164.708 470.17" fill="#36D136"/>
<path d="M135.87 485.011L135.131 495.386L144.803 506.429L160.277 501.54L173.325 497.285L179.093 489.864L186.373 469.994L175.576 471.928L164.708 470.17" stroke="black" stroke-width="0.33" stroke-miterlimit="10"/>
<path d="M157.85 488.703L160.277 501.539L157.921 508.819L144.803 506.428L135.131 495.385L135.87 485.01L164.005 472.384" fill="#CDF4CD"/>
<path d="M157.85 488.703L160.277 501.539L157.921 508.819L144.803 506.428L135.131 495.385L135.87 485.01L164.005 472.384" stroke="black" stroke-width="0.33" stroke-miterlimit="10"/>
<path d="M189.503 489.934L195.904 479.489L197.768 471.927L194.567 470.169L192.176 478.187L189.503 489.934Z" fill="#013101" stroke="black" stroke-width="0.33" stroke-linecap="round" stroke-linejoin="round"/>
<path d="M171.602 485.995L174.521 477.308L175.576 471.927L164.709 470.169L171.602 485.995Z" fill="#42B042" stroke="black" stroke-width="0.33" stroke-miterlimit="10"/>
<path d="M228.083 477.836L207.579 470.415L197.767 471.927L194.567 470.169L194.496 470.134L186.372 469.993L175.576 471.927L164.708 470.169L135.87 485.01L135.131 495.385L144.803 506.428L157.921 508.819L168.647 510.824L182.152 511L196.712 509.453L216.653 506.604L238.387 497.987L239.126 490.356L228.083 477.836Z" stroke="black" stroke-width="0.33" stroke-linecap="round" stroke-linejoin="round"/>
<path d="M196.607 435.07C195.411 438.341 192.738 440.381 192.176 440.17C191.543 439.924 190.839 436.688 192 433.417C192.703 431.483 194.215 429.9 196.15 429.127C197.134 430.991 197.31 433.136 196.607 435.07Z" fill="#FFAA08" stroke="black" stroke-width="0.33" stroke-linecap="round" stroke-linejoin="round"/>
<path opacity="0.3" d="M193.723 434.472C192.528 437.743 192.739 440.416 192.211 440.205C191.578 439.959 190.875 436.723 192.035 433.452C192.739 431.518 194.251 429.935 196.185 429.162C195.165 430.85 194.356 432.608 193.723 434.472Z" fill="black" stroke="black" stroke-width="0.33" stroke-linecap="round" stroke-linejoin="round"/>
<path d="M192.457 453.956C193.723 457.192 193.055 460.497 192.492 460.709C191.859 460.955 189.186 458.95 187.92 455.715C187.182 453.78 187.287 451.635 188.202 449.771C190.136 450.51 191.683 452.022 192.457 453.956Z" fill="#FFAA08" stroke="black" stroke-width="0.33" stroke-linecap="round" stroke-linejoin="round"/>
<path opacity="0.3" d="M189.855 455.398C191.121 458.633 193.055 460.497 192.492 460.744C191.859 460.99 189.186 458.985 187.92 455.75C187.182 453.815 187.287 451.67 188.202 449.806C188.553 451.705 189.116 453.604 189.855 455.398Z" fill="black" stroke="black" stroke-width="0.33" stroke-linecap="round" stroke-linejoin="round"/>
<path d="M186.936 498.128C190.382 498.656 192.914 500.871 192.809 501.469C192.703 502.137 189.644 503.474 186.197 502.946C184.157 502.63 182.328 501.469 181.203 499.746C182.821 498.409 184.896 497.812 186.936 498.128Z" fill="#FFAA08" stroke="black" stroke-width="0.33" stroke-linecap="round" stroke-linejoin="round"/>
<path opacity="0.3" d="M186.9 501.082C190.347 501.61 192.914 500.871 192.844 501.469C192.738 502.137 189.678 503.474 186.232 502.946C184.192 502.63 182.363 501.469 181.238 499.746C183.067 500.379 184.966 500.801 186.9 501.082Z" fill="black" stroke="black" stroke-width="0.33" stroke-linecap="round" stroke-linejoin="round"/>
<path d="M263.498 354.182C267.888 354.182 271.447 352.67 271.447 350.806C271.447 348.941 267.888 347.43 263.498 347.43C259.109 347.43 255.55 348.941 255.55 350.806C255.55 352.67 259.109 354.182 263.498 354.182Z" fill="#039503"/>
<path d="M265.749 319.927C265.749 319.927 262.443 327.383 263.393 333.256C264.342 339.13 266.593 343.983 265.749 351.087" stroke="black" stroke-width="0.33" stroke-linecap="round" stroke-linejoin="round"/>
<path d="M273.24 338.672C273.24 338.672 269.09 336.703 265.151 340.888C265.151 340.888 270.426 344.827 273.24 338.672Z" fill="#FFAA08" stroke="black" stroke-width="0.33" stroke-linecap="round" stroke-linejoin="round"/>
<path d="M255.902 322.741C255.902 322.741 257.414 327.172 263.463 326.645C263.463 326.645 261.916 320.947 255.902 322.741Z" fill="#FFAA08" stroke="black" stroke-width="0.33" stroke-linecap="round" stroke-linejoin="round"/>
<path d="M266.171 310.643C266.171 310.643 270.567 315.39 265.609 320.209C265.609 320.209 261.388 315.25 266.171 310.643Z" fill="#FFAA08" stroke="black" stroke-width="0.33" stroke-linecap="round" stroke-linejoin="round"/>
<path d="M66.5873 436.266C74.0652 436.266 80.1273 433.684 80.1273 430.498C80.1273 427.313 74.0652 424.731 66.5873 424.731C59.1093 424.731 53.0472 427.313 53.0472 430.498C53.0472 433.684 59.1093 436.266 66.5873 436.266Z" fill="#039503"/>
<path d="M72.6362 384.462C72.6362 384.462 73.9023 420.897 72.6362 431.659" stroke="black" stroke-width="0.33" stroke-linecap="round" stroke-linejoin="round"/>
<path d="M85.7199 411.19C85.7199 411.19 79.4598 408.201 73.4459 414.531C73.4459 414.567 81.4293 420.51 85.7199 411.19Z" fill="#FFAA08" stroke="black" stroke-width="0.33" stroke-linecap="round" stroke-linejoin="round"/>
<path d="M61.2775 397.862C61.2775 397.862 63.5634 404.544 72.7074 403.77C72.7074 403.77 70.351 395.154 61.2775 397.862Z" fill="#FFAA08" stroke="black" stroke-width="0.33" stroke-linecap="round" stroke-linejoin="round"/>
<path d="M79.776 373.349C79.776 373.349 82.4488 382.774 72.496 385.904C72.496 385.939 70.21 376.303 79.776 373.349Z" fill="#FFAA08" stroke="black" stroke-width="0.33" stroke-linecap="round" stroke-linejoin="round"/>
<path d="M267.542 444.707C273.777 444.707 278.831 442.55 278.831 439.889C278.831 437.228 273.777 435.07 267.542 435.07C261.307 435.07 256.253 437.228 256.253 439.889C256.253 442.55 261.307 444.707 267.542 444.707Z" fill="#039503"/>
<path d="M274.084 392.692C274.084 392.692 269.055 403.981 270.497 412.879C271.939 421.777 275.35 429.127 274.084 439.889" stroke="black" stroke-width="0.33" stroke-linecap="round" stroke-linejoin="round"/>
<path d="M282.876 403.524C282.876 403.524 276.616 400.535 270.602 406.865C270.602 406.865 278.585 412.844 282.876 403.524Z" fill="#FFAA08" stroke="black" stroke-width="0.33" stroke-linecap="round" stroke-linejoin="round"/>
<path d="M260.333 413.231C260.333 413.231 262.619 419.913 271.763 419.139C271.763 419.104 269.407 410.488 260.333 413.231Z" fill="#FFAA08" stroke="black" stroke-width="0.33" stroke-linecap="round" stroke-linejoin="round"/>
<path d="M280.695 381.754C280.695 381.754 283.368 391.179 273.416 394.309C273.416 394.309 271.094 384.708 280.695 381.754Z" fill="#FFAA08" stroke="black" stroke-width="0.33" stroke-linecap="round" stroke-linejoin="round"/>
<path d="M202.058 278.885L205.224 274.384C205.224 274.384 209.971 265.24 225.481 273.364C240.99 281.488 241.518 288.24 242.292 291.23C243.065 294.219 236.418 303.504 236.418 303.504" fill="#013101"/>
<path d="M202.058 278.886L205.224 274.384C205.224 274.384 209.971 265.24 225.481 273.364C240.99 281.488 241.518 288.24 242.292 291.23C243.065 294.219 236.418 303.504 236.418 303.504" stroke="black" stroke-width="0.33" stroke-linecap="round" stroke-linejoin="round"/>
<path d="M128.661 347.253L161.122 316.059L203.325 290.421L230.264 305.86L234.274 334.417L217.533 348.379L212.399 373.173C212.399 373.173 206.244 354.287 199.316 360.055C193.126 365.225 186.936 374.263 186.936 374.263L155.917 367.089" fill="#026302"/>
<path d="M128.661 347.253L161.122 316.059L203.325 290.421L230.264 305.86L234.274 334.417L217.533 348.379L212.399 373.173C212.399 373.173 206.244 354.287 199.316 360.055C193.126 365.225 186.936 374.263 186.936 374.263L155.917 367.089" stroke="black" stroke-width="0.33" stroke-linecap="round" stroke-linejoin="round"/>
<path d="M227.591 289.366L240.146 294.254C240.392 295.907 243.065 305.227 243.065 305.227L234.308 327.77" fill="#42B042"/>
<path d="M227.591 289.366L240.146 294.254C240.392 295.907 243.065 305.227 243.065 305.227L234.308 327.77" stroke="black" stroke-width="0.33" stroke-linecap="round" stroke-linejoin="round"/>
<path d="M235.047 293.762C227.731 286.13 209.866 280.327 200.581 276.423C196.115 274.559 191.789 280.468 191.789 280.468C191.789 280.468 181.52 293.445 169.281 305.719C164.216 310.819 155.354 318.31 151.661 321.756C149.657 323.62 151.661 323.69 151.661 323.69C151.239 323.726 153.947 322.389 155.459 322.741C158.308 323.409 160.313 326.856 160.629 329.282C161.368 329.634 162.106 329.986 162.88 330.337C163.478 329.071 164.885 328.473 166.784 328.931C169.351 329.528 171.637 332.483 172.692 335.226C173.818 335.824 174.908 336.386 175.928 336.914C176.526 335.613 177.932 334.98 179.867 335.437C182.821 336.14 185.212 339.341 185.986 342.33C187.252 343.033 188.694 343.842 189.995 344.616C190.171 342.576 191.789 341.451 194.216 342.013C197.205 342.717 200.229 345.741 201.003 348.801C201.179 349.575 200.687 350.735 200.581 351.685V353.619C201.46 354.463 202.058 355.026 202.058 355.026L206.63 351.122L206.489 348.168L206.278 344.053C206.278 344.053 216.231 332.623 225.938 321.58C227.274 322.389 228.54 323.304 229.736 324.323C231.53 325.976 233.007 327.981 234.027 330.232C235.433 328.227 230.053 305.051 231.284 302.167L235.047 293.762Z" fill="#42B042" stroke="black" stroke-width="0.33" stroke-linecap="round" stroke-linejoin="round"/>
<path d="M233.921 294.957C230.299 291.159 229.033 286.517 221.295 283.035C213.418 279.483 205.258 276.423 200.581 274.489C196.114 272.625 191.789 278.534 191.789 278.534C191.789 278.534 182.117 287.818 169.281 302.624C162.001 311.03 153.208 320.174 151.661 321.791C152.681 320.842 154.123 320.455 155.459 320.807C158.308 321.475 160.313 324.921 160.629 327.348C161.368 327.7 162.106 328.051 162.88 328.403C163.478 327.137 164.885 326.539 166.784 326.996C169.351 327.594 171.637 330.548 172.692 333.327C173.817 333.925 174.908 334.487 175.928 335.015C176.525 333.714 177.932 333.08 179.866 333.538C182.821 334.241 185.212 337.441 185.986 340.431C187.252 341.134 188.694 341.943 189.995 342.717C190.171 340.677 191.789 339.552 194.215 340.114C197.205 340.818 200.229 343.842 201.003 346.902C201.355 348.273 201.144 350.137 200.581 351.72C201.46 352.564 202.058 353.127 202.058 353.127L206.63 349.223L206.278 342.189C206.278 342.189 216.231 330.759 225.938 319.716C227.274 320.525 228.54 321.44 229.736 322.459C232.76 325.273 234.027 327.594 234.027 327.594C235.433 325.59 230.052 303.187 231.283 300.303L233.921 294.957Z" fill="#36D136" stroke="black" stroke-width="0.33" stroke-linecap="round" stroke-linejoin="round"/>
<path d="M175.189 334.593L175.928 334.98C176.526 333.679 177.933 333.046 179.867 333.503C182.821 334.206 185.212 337.407 185.986 340.396C187.252 341.099 188.694 341.908 189.995 342.682C190.171 340.642 191.789 339.517 194.216 340.079C197.205 340.783 200.23 343.807 201.003 346.867C201.355 348.239 201.144 350.103 200.581 351.685L200.616 351.72C200.687 351.791 200.757 351.861 200.863 351.931L200.968 352.037L201.179 352.248L201.39 352.459L201.46 352.494L202.058 353.057L206.63 349.153L206.279 342.119C206.279 342.119 216.231 330.689 225.938 319.646C227.274 320.455 228.541 321.37 229.736 322.389C231.46 324.007 232.972 325.871 234.203 327.911C235.328 323.937 235.645 302.695 236.84 299.952L240.181 294.254C236.805 290.702 230.053 287.045 222.843 283.739C221.894 283.317 221.296 283.071 221.296 283.071" fill="#68DD68"/>
<path d="M175.189 334.593L175.928 334.98C176.526 333.679 177.933 333.046 179.867 333.503C182.821 334.206 185.212 337.407 185.986 340.396C187.252 341.099 188.694 341.908 189.995 342.682C190.171 340.642 191.789 339.517 194.216 340.079C197.205 340.783 200.23 343.807 201.003 346.867C201.355 348.239 201.144 350.103 200.581 351.685L200.616 351.72C200.687 351.791 200.757 351.861 200.863 351.931L200.968 352.037L201.179 352.248L201.39 352.459L201.46 352.494L202.058 353.057L206.63 349.153L206.279 342.119C206.279 342.119 216.231 330.689 225.938 319.646C227.274 320.455 228.541 321.37 229.736 322.389C231.46 324.007 232.972 325.871 234.203 327.911C235.328 323.937 235.645 302.695 236.84 299.952L240.181 294.254C236.805 290.702 230.053 287.045 222.843 283.739C221.894 283.317 221.296 283.071 221.296 283.071" stroke="black" stroke-width="0.33" stroke-linecap="round" stroke-linejoin="round"/>
<path d="M206.243 342.154L200.054 334.733L211.343 321.58L207.615 317.043L231.213 287.853" stroke="black" stroke-width="0.33" stroke-linecap="round" stroke-linejoin="round"/>
<path d="M202.058 353.127V355.061" stroke="black" stroke-width="0.33" stroke-linecap="round" stroke-linejoin="round"/>
<path d="M177.124 314.547L165.448 325.977" stroke="black" stroke-width="0.33" stroke-linecap="round" stroke-linejoin="round"/>
<path d="M159.785 326.891C159.116 324.71 156.795 322.565 154.65 322.108C153.665 321.897 152.856 322.073 152.364 322.565L142.868 331.85L149.797 338.919L159.398 329.528L159.433 329.493C159.996 328.931 160.136 328.016 159.785 326.891Z" fill="#36D136" stroke="black" stroke-width="0.33" stroke-linecap="round" stroke-linejoin="round"/>
<path d="M157.006 323.198C156.303 322.671 155.494 322.284 154.65 322.108C153.665 321.897 152.856 322.073 152.364 322.565L142.868 331.85L146.456 334.1" fill="#82E382"/>
<path d="M157.006 323.198C156.303 322.671 155.494 322.284 154.65 322.108C153.665 321.897 152.856 322.073 152.364 322.565L142.868 331.85L146.456 334.1" stroke="black" stroke-width="0.33" stroke-linecap="round" stroke-linejoin="round"/>
<path d="M149.88 338.849C150.987 337.704 150.287 335.232 148.318 333.33C146.348 331.427 143.854 330.813 142.748 331.958C141.641 333.104 142.341 335.575 144.31 337.478C146.28 339.381 148.774 339.995 149.88 338.849Z" fill="#42B042" stroke="black" stroke-width="0.33" stroke-linecap="round" stroke-linejoin="round"/>
<path d="M148.464 337.481C149.139 336.782 148.723 335.286 147.536 334.139C146.348 332.992 144.839 332.628 144.164 333.327C143.489 334.025 143.905 335.521 145.092 336.668C146.28 337.815 147.789 338.179 148.464 337.481Z" fill="#013101" stroke="black" stroke-width="0.33" stroke-linecap="round" stroke-linejoin="round"/>
<path d="M129.012 353.197C134.393 347.289 140.301 341.873 146.702 337.054C148.531 335.683 146.315 332.905 144.486 334.276C137.875 339.27 131.755 344.897 126.163 351.052C125.53 351.755 125.812 352.986 126.515 353.549C127.359 354.182 128.344 353.9 129.012 353.197Z" fill="#039503" stroke="black" stroke-width="0.33" stroke-linecap="round" stroke-linejoin="round"/>
<path d="M171.426 333.186C170.758 331.006 168.437 328.86 166.291 328.403C165.271 328.192 164.498 328.368 164.005 328.86L154.51 338.145L161.438 345.249L171.039 335.859L171.074 335.824C171.602 335.261 171.778 334.347 171.426 333.186Z" fill="#36D136" stroke="black" stroke-width="0.33" stroke-linecap="round" stroke-linejoin="round"/>
<path d="M168.648 329.528C167.944 329.001 167.135 328.614 166.291 328.438C165.271 328.227 164.498 328.403 164.005 328.895L154.51 338.18L158.097 340.431" fill="#82E382"/>
<path d="M168.648 329.528C167.944 329.001 167.135 328.614 166.291 328.438C165.271 328.227 164.498 328.403 164.005 328.895L154.51 338.18L158.097 340.431" stroke="black" stroke-width="0.33" stroke-linecap="round" stroke-linejoin="round"/>
<path d="M161.528 345.17C162.635 344.024 161.935 341.553 159.965 339.65C157.996 337.747 155.502 337.133 154.395 338.279C153.289 339.424 153.988 341.895 155.958 343.798C157.928 345.701 160.421 346.315 161.528 345.17Z" fill="#42B042" stroke="black" stroke-width="0.33" stroke-linecap="round" stroke-linejoin="round"/>
<path d="M160.112 343.801C160.787 343.102 160.371 341.606 159.184 340.459C157.996 339.312 156.487 338.948 155.812 339.647C155.137 340.345 155.553 341.842 156.74 342.989C157.928 344.136 159.437 344.499 160.112 343.801Z" fill="#013101" stroke="black" stroke-width="0.33" stroke-linecap="round" stroke-linejoin="round"/>
<path d="M141.005 360.512C146.14 354.393 151.872 348.766 158.062 343.737C159.821 342.295 157.499 339.622 155.741 341.064C149.305 346.304 143.397 352.142 138.086 358.507C137.453 359.246 137.805 360.477 138.543 360.969C139.387 361.567 140.372 361.251 141.005 360.512Z" fill="#039503" stroke="black" stroke-width="0.33" stroke-linecap="round" stroke-linejoin="round"/>
<path d="M184.615 339.446C183.947 337.266 181.625 335.12 179.48 334.663C178.495 334.452 177.686 334.628 177.194 335.12L167.698 344.405L174.627 351.509L184.228 342.119L184.263 342.084C184.826 341.521 184.966 340.572 184.615 339.446Z" fill="#36D136" stroke="black" stroke-width="0.33" stroke-linecap="round" stroke-linejoin="round"/>
<path d="M181.836 335.754C181.133 335.226 180.324 334.839 179.48 334.628C178.495 334.417 177.686 334.593 177.194 335.085L167.698 344.37L171.286 346.656" fill="#82E382"/>
<path d="M181.836 335.754C181.133 335.226 180.324 334.839 179.48 334.628C178.495 334.417 177.686 334.593 177.194 335.085L167.698 344.37L171.286 346.656" stroke="black" stroke-width="0.33" stroke-linecap="round" stroke-linejoin="round"/>
<path d="M174.711 351.404C175.817 350.259 175.118 347.788 173.148 345.885C171.178 343.982 168.684 343.368 167.578 344.514C166.471 345.659 167.171 348.13 169.14 350.033C171.11 351.936 173.604 352.55 174.711 351.404Z" fill="#42B042" stroke="black" stroke-width="0.33" stroke-linecap="round" stroke-linejoin="round"/>
<path d="M173.294 350.036C173.969 349.337 173.553 347.841 172.366 346.694C171.178 345.547 169.669 345.183 168.994 345.882C168.319 346.58 168.735 348.077 169.922 349.224C171.11 350.371 172.619 350.734 173.294 350.036Z" fill="#013101" stroke="black" stroke-width="0.33" stroke-linecap="round" stroke-linejoin="round"/>
<path d="M156.725 368.32C161.086 361.638 166.08 355.343 171.602 349.61C173.184 347.957 170.546 345.566 168.964 347.219C163.231 353.197 158.061 359.739 153.56 366.702C153.032 367.511 153.525 368.672 154.334 369.094C155.248 369.586 156.198 369.129 156.725 368.32Z" fill="#039503" stroke="black" stroke-width="0.33" stroke-linecap="round" stroke-linejoin="round"/>
<path d="M199.456 346.093C198.576 343.877 196.15 341.803 194.005 341.451C193.02 341.275 192.246 341.521 191.824 342.049L183.454 352.318L190.875 359.281L199.35 348.907L199.385 348.871C199.843 348.238 199.913 347.254 199.456 346.093Z" fill="#36D136" stroke="black" stroke-width="0.33" stroke-linecap="round" stroke-linejoin="round"/>
<path d="M196.396 342.435C195.693 341.943 194.849 341.591 194.005 341.415C193.02 341.24 192.246 341.486 191.824 342.013L183.454 352.283L187.147 354.428" fill="#82E382"/>
<path d="M196.396 342.435C195.693 341.943 194.849 341.591 194.005 341.415C193.02 341.24 192.246 341.486 191.824 342.013L183.454 352.283L187.147 354.428" stroke="black" stroke-width="0.33" stroke-linecap="round" stroke-linejoin="round"/>
<path d="M190.835 359.312C191.928 358.154 191.153 355.648 189.104 353.716C187.055 351.783 184.508 351.156 183.415 352.315C182.323 353.474 183.098 355.979 185.147 357.912C187.195 359.844 189.742 360.471 190.835 359.312Z" fill="#42B042" stroke="black" stroke-width="0.33" stroke-linecap="round" stroke-linejoin="round"/>
<path d="M189.378 357.937C190.044 357.231 189.576 355.707 188.333 354.534C187.089 353.362 185.541 352.984 184.875 353.69C184.208 354.397 184.676 355.92 185.92 357.093C187.163 358.266 188.711 358.644 189.378 357.937Z" fill="#013101" stroke="black" stroke-width="0.33" stroke-linecap="round" stroke-linejoin="round"/>
<path d="M175.048 377.288C178.671 370.149 182.961 363.396 187.815 357.066C189.221 355.272 186.338 353.162 184.931 354.991C179.866 361.568 175.435 368.601 171.707 376.022C171.285 376.866 171.883 377.991 172.727 378.308C173.677 378.66 174.591 378.132 175.048 377.288Z" fill="#039503" stroke="black" stroke-width="0.33" stroke-linecap="round" stroke-linejoin="round"/>
<path d="M130.068 346.023L124.757 350.032L123.175 353.021L112.308 364.662L105.485 372.435L106.681 378.132L118.884 376.479L120.959 374.474L137.207 358.261L139.001 349.118" fill="#026302"/>
<path d="M130.068 346.023L124.757 350.032L123.175 353.021L112.308 364.662L105.485 372.435L106.681 378.132L118.884 376.479L120.959 374.474L137.207 358.261L139.001 349.118" stroke="black" stroke-width="0.33" stroke-linecap="round" stroke-linejoin="round"/>
<path d="M134.956 339.587L124.3 350.208L124.757 350.032L128.661 347.254L132.6 350.102L131.017 356.644L132.459 358.121L143.819 345.179L140.865 343.455L135.203 345.812L133.374 344.581L136.258 340.325L134.956 339.587Z" fill="#42B042" stroke="black" stroke-width="0.33" stroke-linecap="round" stroke-linejoin="round"/>
<path d="M132.459 358.121L135.484 360.97L144.311 352.318L143.819 345.179L132.459 358.121Z" fill="#039503" stroke="black" stroke-width="0.33" stroke-linecap="round" stroke-linejoin="round"/>
<path d="M123.139 351.544L111.639 364.979L112.483 365.471L116.563 361.708L119.798 364.346C119.798 364.346 117.231 369.938 117.266 370.465L118.04 371.063L130.841 358.754L129.118 357.593C129.118 357.593 124.335 359.739 123.878 359.879L120.361 357.207L123.843 352.283L123.139 351.544Z" fill="#42B042" stroke="black" stroke-width="0.33" stroke-linecap="round" stroke-linejoin="round"/>
<path d="M134.146 362.341L130.805 358.789L118.004 371.098L121.978 374.228L134.146 362.341Z" fill="#039503" stroke="black" stroke-width="0.33" stroke-linecap="round" stroke-linejoin="round"/>
<path d="M121.522 353.162C121.873 351.228 123.667 349.188 125.461 348.66C126.305 348.414 127.008 348.52 127.465 348.907L130.56 351.404L125.32 358.015L122.119 355.413L122.084 355.378C121.557 354.991 121.346 354.182 121.522 353.162Z" fill="#04C604" stroke="black" stroke-width="0.33" stroke-linecap="round" stroke-linejoin="round"/>
<path d="M121.979 352.142L126.797 356.397L128.836 353.83L124.053 349.504C123.139 350.208 122.436 351.087 121.979 352.142Z" fill="#9BE89B"/>
<path d="M129.946 356.368C131.421 354.564 131.728 352.374 130.631 351.476C129.533 350.579 127.447 351.313 125.971 353.117C124.495 354.921 124.189 357.111 125.286 358.009C126.384 358.907 128.47 358.172 129.946 356.368Z" fill="#026302" stroke="black" stroke-width="0.33" stroke-linecap="round" stroke-linejoin="round"/>
<path d="M125.179 357.945C125.671 358.402 126.41 358.578 127.289 358.297C129.083 357.769 130.876 355.764 131.228 353.795C131.439 352.705 131.158 351.861 130.56 351.439" fill="#013101"/>
<path d="M125.179 357.945C125.671 358.402 126.41 358.578 127.289 358.297C129.083 357.769 130.876 355.764 131.228 353.795C131.439 352.705 131.158 351.861 130.56 351.439" stroke="black" stroke-width="0.33" stroke-linecap="round" stroke-linejoin="round"/>
<path d="M129.156 355.722C130.054 354.625 130.246 353.297 129.584 352.755C128.923 352.214 127.659 352.665 126.761 353.763C125.863 354.86 125.671 356.189 126.333 356.73C126.994 357.271 128.258 356.82 129.156 355.722Z" fill="#013101" stroke="black" stroke-width="0.33" stroke-linecap="round" stroke-linejoin="round"/>
<path d="M123.807 359.915L129.083 357.629L130.806 358.789L118.004 371.098L117.231 370.5L119.763 364.381" fill="#36D136"/>
<path d="M123.807 359.915L129.083 357.629L130.806 358.789L118.004 371.098L117.231 370.5L119.763 364.381" stroke="black" stroke-width="0.33" stroke-linecap="round" stroke-linejoin="round"/>
<path d="M132.6 350.102L131.017 356.644L132.459 358.121L143.819 345.179L140.865 343.456L135.202 345.812" fill="#36D136"/>
<path d="M132.6 350.102L131.017 356.644L132.459 358.121L143.819 345.179L140.865 343.456L135.202 345.812" stroke="black" stroke-width="0.33" stroke-linecap="round" stroke-linejoin="round"/>
<path d="M101.299 386.08L107.384 386.291L119.517 376.901L115.93 373.419" fill="#039503"/>
<path d="M101.299 386.08L107.384 386.291L119.517 376.901L115.93 373.419" stroke="black" stroke-width="0.33" stroke-linecap="round" stroke-linejoin="round"/>
<path d="M106.645 370.817L105.906 373.244L109.529 376.092L114.769 373.279L115.929 373.419C115.929 373.419 109.423 379.996 107.208 382.071L101.299 386.08L99.1891 383.935L102.143 377.147L106.645 370.817Z" fill="#42B042" stroke="black" stroke-width="0.33" stroke-linecap="round" stroke-linejoin="round"/>
<path d="M109.564 376.092L114.804 373.279L115.93 373.419L107.208 382.036L101.299 386.08" fill="#36D136"/>
<path d="M109.564 376.092L114.804 373.279L115.93 373.419L107.208 382.036L101.299 386.08" stroke="black" stroke-width="0.33" stroke-linecap="round" stroke-linejoin="round"/>
<path d="M110.76 373.56C113.855 369.058 112.8 370.641 116.633 366.808C117.723 365.717 116 363.994 114.91 365.119C110.9 369.094 111.85 367.722 108.65 372.399C108.333 372.997 108.544 373.736 109.107 374.052C109.705 374.334 110.408 374.123 110.76 373.56Z" fill="#039503" stroke="black" stroke-width="0.33" stroke-linecap="round" stroke-linejoin="round"/>
<path d="M137.98 354.815L133.725 360.02L132.037 363.431L115.824 381.684L108.052 390.617L111.287 395.365L125.144 393.536L130.384 388.12L148.179 368.988L149.691 358.508" fill="#026302"/>
<path d="M137.98 354.815L133.725 360.02L132.037 363.431L115.824 381.684L108.052 390.617L111.287 395.365L125.144 393.536L130.384 388.12L148.179 368.988L149.691 358.508" stroke="black" stroke-width="0.33" stroke-linecap="round" stroke-linejoin="round"/>
<path d="M146.914 344.053L132.741 359.844L133.725 360.02L137.981 356.784L142.518 359.844L140.935 367.265L142.834 369.023L157.605 350.419L154.686 348.836L148.391 351.72L146.316 350.419L148.848 345.249L146.914 344.053Z" fill="#42B042" stroke="black" stroke-width="0.33" stroke-linecap="round" stroke-linejoin="round"/>
<path d="M142.834 369.023L146.316 372.118L158.379 358.437L157.605 350.419L142.834 369.023Z" fill="#039503" stroke="black" stroke-width="0.33" stroke-linecap="round" stroke-linejoin="round"/>
<path d="M131.931 361.778L115.577 381.086L116.105 381.825L121.872 376.549L125.565 379.433C125.565 379.433 122.857 385.799 122.892 386.397L124.018 387.522L141.004 369.797L138.789 368.425C138.789 368.425 133.478 370.993 132.951 371.168L128.906 368.285L132.669 362.622L131.931 361.778Z" fill="#42B042" stroke="black" stroke-width="0.33" stroke-linecap="round" stroke-linejoin="round"/>
<path d="M144.838 373.701L140.97 369.797L124.018 387.522L128.555 390.898L144.838 373.701Z" fill="#039503" stroke="black" stroke-width="0.33" stroke-linecap="round" stroke-linejoin="round"/>
<path d="M103.094 405.142L110.866 405.88L125.918 393.993L121.733 390.195" fill="#039503"/>
<path d="M103.094 405.142L110.866 405.88L125.918 393.993L121.733 390.195" stroke="black" stroke-width="0.33" stroke-linecap="round" stroke-linejoin="round"/>
<path d="M112.026 385.588L110.267 389.878L114.453 392.973L120.255 389.632L121.768 390.195C121.768 390.195 113.011 398.706 110.584 401.097L103.128 405.142L100.842 403.348L103.972 395.611L112.026 385.588Z" fill="#42B042" stroke="black" stroke-width="0.33" stroke-linecap="round" stroke-linejoin="round"/>
<path d="M130.138 363.642C130.49 361.427 132.424 359.105 134.429 358.472C135.378 358.156 136.152 358.261 136.715 358.683L140.302 361.427L134.605 369.058L130.912 366.245L130.877 366.21C130.244 365.717 129.962 364.803 130.138 363.642Z" fill="#04C604" stroke="black" stroke-width="0.33" stroke-linecap="round" stroke-linejoin="round"/>
<path d="M130.63 362.482L136.186 367.124L138.367 364.17L132.881 359.458C131.896 360.266 131.122 361.286 130.63 362.482Z" fill="#9BE89B"/>
<path d="M139.75 367.033C141.353 364.958 141.631 362.486 140.371 361.512C139.11 360.539 136.789 361.431 135.186 363.506C133.583 365.581 133.305 368.053 134.565 369.026C135.825 370 138.147 369.108 139.75 367.033Z" fill="#026302" stroke="black" stroke-width="0.33" stroke-linecap="round" stroke-linejoin="round"/>
<path d="M134.429 368.918C134.956 369.41 135.836 369.586 136.82 369.234C138.825 368.566 140.759 366.245 141.111 364.029C141.322 362.798 140.97 361.849 140.302 361.392" fill="#013101"/>
<path d="M134.429 368.918C134.956 369.41 135.836 369.586 136.82 369.234C138.825 368.566 140.759 366.245 141.111 364.029C141.322 362.798 140.97 361.849 140.302 361.392" stroke="black" stroke-width="0.33" stroke-linecap="round" stroke-linejoin="round"/>
<path d="M138.86 366.344C139.833 365.084 140 363.581 139.231 362.987C138.463 362.393 137.05 362.934 136.077 364.194C135.103 365.454 134.936 366.957 135.705 367.551C136.473 368.145 137.886 367.605 138.86 366.344Z" fill="#013101" stroke="black" stroke-width="0.33" stroke-linecap="round" stroke-linejoin="round"/>
<path d="M132.952 371.169L138.79 368.425L140.97 369.797L124.019 387.522L122.893 386.397L125.566 379.433" fill="#36D136"/>
<path d="M132.952 371.169L138.79 368.425L140.97 369.797L124.019 387.522L122.893 386.397L125.566 379.433" stroke="black" stroke-width="0.33" stroke-linecap="round" stroke-linejoin="round"/>
<path d="M142.517 359.844L140.934 367.265L142.834 369.023L157.604 350.419L154.685 348.836L148.39 351.72" fill="#36D136"/>
<path d="M142.517 359.844L140.934 367.265L142.834 369.023L157.604 350.419L154.685 348.836L148.39 351.72" stroke="black" stroke-width="0.33" stroke-linecap="round" stroke-linejoin="round"/>
<path d="M114.453 392.973L120.256 389.632L121.733 390.195L110.549 401.097L103.094 405.142" fill="#36D136"/>
<path d="M114.453 392.973L120.256 389.632L121.733 390.195L110.549 401.097L103.094 405.142" stroke="black" stroke-width="0.33" stroke-linecap="round" stroke-linejoin="round"/>
<path d="M115.121 390.476C118.814 384.99 117.547 386.924 122.19 382.211C123.526 380.875 121.416 378.835 120.08 380.172C115.261 385.06 116.422 383.337 112.589 389.034C112.167 389.702 112.518 390.687 113.151 391.039C113.89 391.496 114.664 391.144 115.121 390.476Z" fill="#039503" stroke="black" stroke-width="0.33" stroke-linecap="round" stroke-linejoin="round"/>
<path d="M150.465 362.341L146.702 368.918L145.436 373.032L130.454 395.857L124.018 407.568L128.203 412.281L141.286 407.428L146.315 399.831L163.407 376.338L163.618 364.416" fill="#026302"/>
<path d="M150.465 362.341L146.702 368.918L145.436 373.032L130.454 395.857L124.018 407.568L128.203 412.281L141.286 407.428L146.315 399.831L163.407 376.338L163.618 364.416" stroke="black" stroke-width="0.33" stroke-linecap="round" stroke-linejoin="round"/>
<path d="M160.489 348.625L146.421 367.511L147.511 367.651L151.978 363.677L157.042 366.772L155.67 375.248L157.57 377.041L173.642 355.518L169.738 353.549L163.021 357.206L160.735 355.905L162.669 349.786L160.489 348.625Z" fill="#42B042" stroke="black" stroke-width="0.33" stroke-linecap="round" stroke-linejoin="round"/>
<path d="M157.569 377.042L161.508 380.277L174.098 362.587L173.641 355.518L157.569 377.042Z" fill="#039503" stroke="black" stroke-width="0.33" stroke-linecap="round" stroke-linejoin="round"/>
<path d="M145.085 371.203L129.892 395.857L131.088 395.927L136.609 389.491L141.041 392.023C141.041 392.023 139.141 399.62 139.282 400.288L140.759 400.359L155.811 378.554L153.49 377.428C153.49 377.428 148.145 381.227 147.617 381.508L142.834 379.011L145.964 372.012L145.085 371.203Z" fill="#42B042" stroke="black" stroke-width="0.33" stroke-linecap="round" stroke-linejoin="round"/>
<path d="M160.523 382.176L155.775 378.519L140.723 400.323L145.225 402.75L160.523 382.176Z" fill="#039503" stroke="black" stroke-width="0.33" stroke-linecap="round" stroke-linejoin="round"/>
<path d="M121.31 424.871L129.75 422.972L142.904 406.794L138.719 403.664" fill="#039503"/>
<path d="M121.31 424.871L129.75 422.972L142.904 406.794L138.719 403.664" stroke="black" stroke-width="0.33" stroke-linecap="round" stroke-linejoin="round"/>
<path d="M127.465 401.238L126.234 406.337L131.193 409.045L136.187 403.207L138.719 403.7C138.719 403.7 130.911 415.974 128.696 419.069L121.31 424.871L118.215 423.007L120.361 413.828L127.465 401.238Z" fill="#42B042" stroke="black" stroke-width="0.33" stroke-linecap="round" stroke-linejoin="round"/>
<path d="M143.466 373.595C143.502 371.063 145.19 368.144 147.265 367.054C148.214 366.561 149.094 366.526 149.727 366.913L153.982 369.34L149.058 378.87L144.662 376.409C144.627 376.409 144.627 376.373 144.592 376.373C143.889 375.881 143.431 374.932 143.466 373.595Z" fill="#04C604" stroke="black" stroke-width="0.33" stroke-linecap="round" stroke-linejoin="round"/>
<path d="M143.783 372.224L150.465 376.409L152.364 372.751L145.717 368.461C144.768 369.516 144.135 370.817 143.783 372.224Z" fill="#9BE89B"/>
<path d="M154.368 375.525C155.726 372.904 155.569 370.127 154.017 369.323C152.465 368.519 150.105 369.992 148.747 372.613C147.389 375.235 147.547 378.012 149.099 378.816C150.651 379.62 153.01 378.147 154.368 375.525Z" fill="#026302" stroke="black" stroke-width="0.33" stroke-linecap="round" stroke-linejoin="round"/>
<path d="M148.883 378.695C149.551 379.152 150.465 379.187 151.52 378.624C153.595 377.534 155.283 374.615 155.318 372.083C155.318 370.676 154.826 369.691 154.017 369.269" fill="#013101"/>
<path d="M148.883 378.695C149.551 379.152 150.465 379.187 151.52 378.624C153.595 377.534 155.283 374.615 155.318 372.083C155.318 370.676 154.826 369.691 154.017 369.269" stroke="black" stroke-width="0.33" stroke-linecap="round" stroke-linejoin="round"/>
<path d="M153.244 374.943C154.066 373.356 153.977 371.679 153.046 371.196C152.115 370.714 150.693 371.609 149.871 373.196C149.049 374.782 149.138 376.46 150.069 376.942C151.001 377.425 152.422 376.529 153.244 374.943Z" fill="#013101" stroke="black" stroke-width="0.33" stroke-linecap="round" stroke-linejoin="round"/>
<path d="M147.652 381.473L153.455 377.393L155.776 378.519L140.724 400.324L139.246 400.253L141.04 391.989" fill="#36D136"/>
<path d="M147.652 381.473L153.455 377.393L155.776 378.519L140.724 400.324L139.246 400.253L141.04 391.989" stroke="black" stroke-width="0.33" stroke-linecap="round" stroke-linejoin="round"/>
<path d="M157.042 366.772L155.67 375.248L157.569 377.042L173.641 355.518L169.738 353.549L163.02 357.206" fill="#36D136"/>
<path d="M157.042 366.772L155.67 375.248L157.569 377.042L173.641 355.518L169.738 353.549L163.02 357.206" stroke="black" stroke-width="0.33" stroke-linecap="round" stroke-linejoin="round"/>
<path d="M131.228 409.045L136.186 403.207L138.719 403.664L128.695 419.068L121.31 424.871" fill="#36D136"/>
<path d="M131.228 409.045L136.186 403.207L138.719 403.664L128.695 419.068L121.31 424.871" stroke="black" stroke-width="0.33" stroke-linecap="round" stroke-linejoin="round"/>
<path d="M131.685 405.986C134.991 399.304 133.865 401.66 138.262 395.822C139.528 394.134 137.066 392.024 135.8 393.676C131.228 399.726 132.248 397.651 128.836 404.579C128.449 405.388 128.942 406.478 129.68 406.83C130.489 407.252 131.263 406.759 131.685 405.986Z" fill="#039503" stroke="black" stroke-width="0.33" stroke-linecap="round" stroke-linejoin="round"/>
<path d="M182.294 380.805L177.897 392.305L177.546 404.72L180.781 420.335C180.781 420.335 174.803 426.947 173.994 427.65C173.185 428.353 164.568 417.17 164.568 417.17L163.232 405.142L162.775 384.463L169.281 371.415" fill="#026302"/>
<path d="M182.294 380.805L177.897 392.305L177.546 404.72L180.781 420.335C180.781 420.335 174.803 426.947 173.994 427.65C173.185 428.353 164.568 417.17 164.568 417.17L163.232 405.142L162.775 384.463L169.281 371.415" stroke="black" stroke-width="0.33" stroke-linecap="round" stroke-linejoin="round"/>
<path d="M169.703 417.24C168.05 410.769 168.648 413.02 168.226 406.302C168.12 404.368 165.166 404.684 165.271 406.619C165.693 413.582 165.166 411.542 166.889 418.295C167.1 419.069 168.085 419.42 168.788 419.174C169.597 418.858 169.984 418.013 169.703 417.24Z" fill="#039503" stroke="black" stroke-width="0.33" stroke-linecap="round" stroke-linejoin="round"/>
<path d="M181.344 432.644L184.298 424.625L178.987 411.683L174.486 412.844" fill="#039503"/>
<path d="M181.344 432.644L184.298 424.625L178.987 411.683L174.486 412.844" stroke="black" stroke-width="0.33" stroke-linecap="round" stroke-linejoin="round"/>
<path d="M163.196 415.481L167.276 419.737L171.953 419.49L171.285 413.195L174.485 412.773C174.485 412.773 176.912 420.546 178.53 423.851C179.444 425.751 181.343 432.644 181.343 432.644L177.018 433.171L170.793 428.072C166.678 422.409 163.196 415.481 163.196 415.481Z" fill="#42B042" stroke="black" stroke-width="0.33" stroke-linecap="round" stroke-linejoin="round"/>
<path d="M171.953 419.49L171.285 413.195L174.485 412.773L180.534 425.328L181.343 432.644L179.022 432.819" fill="#68DD68"/>
<path d="M171.953 419.49L171.285 413.195L174.485 412.773L180.534 425.328L181.343 432.644L179.022 432.819" stroke="black" stroke-width="0.33" stroke-linecap="round" stroke-linejoin="round"/>
<path d="M177.58 363.502L173.712 358.508L172.516 365.753L175.47 367.23L177.58 363.502Z" fill="#039503" stroke="black" stroke-width="0.33" stroke-linecap="round" stroke-linejoin="round"/>
<path d="M173.712 358.508L162.493 381.965L163.513 381.895L167.627 375.952L172.446 377.64C172.446 377.64 172.34 385.553 172.586 385.904L176.49 387.346L186.83 364.24L181.941 362.623L177.053 367.828L173.184 366.034L174.696 359.352L173.712 358.508Z" fill="#42B042" stroke="black" stroke-width="0.33" stroke-linecap="round" stroke-linejoin="round"/>
<path d="M176.455 387.311L180.745 388.964L190.311 370.395L186.794 364.205L176.455 387.311Z" fill="#039503" stroke="black" stroke-width="0.33" stroke-linecap="round" stroke-linejoin="round"/>
<path d="M161.79 385.693L162.493 409.432L164.533 409.362L164.603 403.278L167.839 403.629L169.914 410.03L173.853 410.452L174.205 389.527L171.602 389.597L168.155 395.294C168.155 395.294 164.709 395.048 164.392 395.013L162.81 386.115L161.79 385.693Z" fill="#42B042" stroke="black" stroke-width="0.33" stroke-linecap="round" stroke-linejoin="round"/>
<path d="M179.444 390.476L174.204 389.562L173.852 410.487L179.268 409.151L179.444 390.476Z" fill="#039503" stroke="black" stroke-width="0.33" stroke-linecap="round" stroke-linejoin="round"/>
<path d="M177.018 367.792L181.906 362.587L186.795 364.205L176.455 387.311L172.552 385.904L172.411 377.639" fill="#68DD68"/>
<path d="M177.018 367.792L181.906 362.587L186.795 364.205L176.455 387.311L172.552 385.904L172.411 377.639" stroke="black" stroke-width="0.33" stroke-linecap="round" stroke-linejoin="round"/>
<path d="M168.155 395.329L171.11 389.14L174.205 389.562L173.853 410.487L169.914 410.065L167.839 403.665" fill="#68DD68"/>
<path d="M168.155 395.329L171.11 389.14L174.205 389.562L173.853 410.487L169.914 410.065L167.839 403.665" stroke="black" stroke-width="0.33" stroke-linecap="round" stroke-linejoin="round"/>
<path d="M161.086 388.155C160.172 385.869 160.735 382.528 162.317 380.699C163.056 379.855 163.9 379.503 164.674 379.574L169.703 380.066L168.437 390.652L163.267 390.16H163.197C162.352 390.054 161.544 389.386 161.086 388.155Z" fill="#04C604" stroke="black" stroke-width="0.33" stroke-linecap="round" stroke-linejoin="round"/>
<path d="M160.911 386.783L168.965 387.909L169.422 383.829L161.368 382.598C160.841 383.935 160.7 385.377 160.911 386.783Z" fill="#9BE89B"/>
<path d="M172.384 385.881C172.823 382.961 171.731 380.377 169.945 380.108C168.158 379.839 166.354 381.988 165.915 384.907C165.475 387.827 166.567 390.412 168.354 390.68C170.14 390.949 171.944 388.8 172.384 385.881Z" fill="#026302" stroke="black" stroke-width="0.33" stroke-linecap="round" stroke-linejoin="round"/>
<path d="M168.261 390.652C169.07 390.828 169.984 390.476 170.793 389.562C172.376 387.768 172.938 384.427 172.024 382.106C171.532 380.805 170.652 380.136 169.703 380.101" fill="#013101"/>
<path d="M168.261 390.652C169.07 390.828 169.984 390.476 170.793 389.562C172.376 387.768 172.938 384.427 172.024 382.106C171.532 380.805 170.652 380.136 169.703 380.101" stroke="black" stroke-width="0.33" stroke-linecap="round" stroke-linejoin="round"/>
<path d="M171.097 385.687C171.363 383.92 170.707 382.356 169.631 382.194C168.556 382.033 167.468 383.334 167.202 385.101C166.936 386.868 167.593 388.432 168.668 388.594C169.744 388.756 170.832 387.454 171.097 385.687Z" fill="#013101" stroke="black" stroke-width="0.33" stroke-linecap="round" stroke-linejoin="round"/>
<path d="M208.213 358.472L212.855 374.228L211.8 388.753L207.404 404.473C207.404 404.473 213.031 416.149 214.051 417.064C215.071 417.978 226.149 402.891 226.149 402.891L228.259 397.193L232.515 366.948L233.605 352.459" fill="#026302"/>
<path d="M208.213 358.472L212.855 374.228L211.8 388.753L207.404 404.473C207.404 404.473 213.031 416.149 214.051 417.064C215.071 417.978 226.149 402.891 226.149 402.891L228.259 397.193L232.515 366.948L233.605 352.459" stroke="black" stroke-width="0.33" stroke-linecap="round" stroke-linejoin="round"/>
<path d="M225.41 353.092C226.254 361.04 226.325 369.058 225.656 377.007C225.481 379.293 228.997 379.468 229.209 377.182C229.877 368.918 229.771 360.583 228.927 352.353C228.822 351.404 227.696 350.806 226.817 350.982C225.727 351.193 225.27 352.107 225.41 353.092Z" fill="#039503" stroke="black" stroke-width="0.33" stroke-linecap="round" stroke-linejoin="round"/>
<path d="M203.641 422.093L202.902 412.175L208.987 396.666L214.86 398.495" fill="#42B042"/>
<path d="M203.641 422.093L202.902 412.175L208.987 396.666L214.86 398.495" stroke="black" stroke-width="0.33" stroke-linecap="round" stroke-linejoin="round"/>
<path d="M222.069 407.955L217.392 406.513L219.045 399.268L214.86 398.459C214.86 398.459 208.565 409.221 206.032 412.949C204.555 415.094 203.676 422.128 203.676 422.128L209.655 422.972L216.372 417.099L222.069 407.955Z" fill="#36D136" stroke="black" stroke-width="0.33" stroke-linecap="round" stroke-linejoin="round"/>
<path d="M209.654 422.937L217.25 417.416L226.113 403.559L222.069 407.955L220.24 407.392" fill="#68DD68"/>
<path d="M209.654 422.937L217.25 417.416L226.113 403.559L222.069 407.955L220.24 407.392" stroke="black" stroke-width="0.33" stroke-linecap="round" stroke-linejoin="round"/>
<path d="M234.484 362.482L230.264 393.501L228.611 393.993L229.138 388.401L224.813 388.471L221.26 395.751L215.985 395.857L217.497 365.717L222.491 365.893L225.305 370.219C225.305 370.219 229.736 369.762 230.123 369.726L232.057 363.15L234.484 362.482Z" fill="#36D136" stroke="black" stroke-width="0.33" stroke-linecap="round" stroke-linejoin="round"/>
<path d="M225.305 370.219C225.305 370.219 229.736 369.762 230.123 369.726L232.057 363.15L234.449 362.482L230.228 393.501L228.575 393.958L229.103 388.366L224.777 388.436" fill="#68DD68"/>
<path d="M225.305 370.219C225.305 370.219 229.736 369.762 230.123 369.726L232.057 363.15L234.449 362.482L230.228 393.501L228.575 393.958L229.103 388.366L224.777 388.436" stroke="black" stroke-width="0.33" stroke-linecap="round" stroke-linejoin="round"/>
<path d="M210.99 371.907L217.497 365.717L215.984 395.857L209.654 393.958L210.99 371.907Z" fill="#42B042" stroke="black" stroke-width="0.33" stroke-linecap="round" stroke-linejoin="round"/>
<path d="M224.531 392.938C222.703 399.374 223.301 397.123 220.311 403.137C219.467 404.86 222.175 406.056 223.019 404.368C226.114 398.143 225.587 400.148 227.45 393.466C227.661 392.692 226.993 391.883 226.255 391.742C225.446 391.637 224.672 392.164 224.531 392.938Z" fill="#039503" stroke="black" stroke-width="0.33" stroke-linecap="round" stroke-linejoin="round"/>
<path d="M210.042 346.41L209.549 350.806L208.178 358.578L211.343 363.009C211.343 363.009 219.362 357.593 226.853 357.312C234.343 357.031 234.977 358.332 234.977 358.332C235.61 352.951 235.61 347.535 234.941 342.189C234.484 338.497 233.359 333.96 232.585 332.518L223.125 330.021L210.042 346.41Z" fill="#68DD68" stroke="black" stroke-width="0.33" stroke-linecap="round" stroke-linejoin="round"/>
<path d="M229.844 343.512C230.567 342.726 230.41 341.406 229.495 340.565C228.58 339.724 227.252 339.68 226.529 340.467C225.806 341.253 225.962 342.573 226.878 343.414C227.793 344.255 229.121 344.299 229.844 343.512Z" fill="black" stroke="black" stroke-width="0.33" stroke-miterlimit="4.02" stroke-linecap="round" stroke-linejoin="round"/>
<path d="M228.029 343.596C228.515 343.067 228.411 342.18 227.796 341.615C227.181 341.049 226.288 341.02 225.802 341.549C225.316 342.079 225.42 342.966 226.035 343.531C226.65 344.096 227.543 344.125 228.029 343.596Z" fill="#36D136" stroke="black" stroke-width="0.33" stroke-linecap="round" stroke-linejoin="round"/>
<path d="M215.633 339.411L218.06 359.457L208.951 367.898L204.661 361.005L207.685 353.901L208.213 346.48L215.633 339.411Z" fill="#42B042" stroke="black" stroke-width="0.33" stroke-linecap="round" stroke-linejoin="round"/>
<path d="M218.059 296.048L190.206 329.915L165.728 317.888L193.582 284.407L218.059 296.048Z" fill="black" stroke="black" stroke-width="0.33" stroke-linecap="round" stroke-linejoin="round"/>
<path d="M207.298 308.955L200.159 317.641L185.669 294.746L193.195 285.743L207.298 308.955Z" fill="#026302"/>
<path d="M193.582 287.537L216.301 298.228L218.059 296.048L193.582 284.407L165.728 317.888L167.733 318.872L193.582 287.537Z" fill="#36D136" stroke="black" stroke-width="0.33" stroke-linecap="round" stroke-linejoin="round"/>
<path d="M193.582 284.407V287.537" stroke="black" stroke-width="0.33" stroke-linecap="round" stroke-linejoin="round"/>
<path d="M175.294 317.993L175.33 318.31L174.978 318.345L173.255 317.184L173.219 316.868L173.571 316.833L175.294 317.993ZM176.983 315.953L177.018 316.27L176.666 316.305L174.697 314.969L174.661 314.652L175.013 314.617L176.983 315.953ZM177.018 316.34L177.053 316.657L175.716 318.275L175.365 318.31L175.33 317.993L176.631 316.375L177.018 316.34ZM179.409 317.606L179.444 317.923L179.093 317.958L177.123 316.622L177.088 316.305L177.44 316.27L179.409 317.606Z" fill="#FFAA08"/>
<path d="M177.757 311.487L179.023 313.843L178.847 314.054L178.39 313.738L177.264 311.522L177.475 311.276L177.757 311.487ZM179.339 314.441L180.5 316.622L180.289 316.868L179.972 316.657L178.706 314.301L178.847 314.125L179.339 314.441Z" fill="#FFAA08"/>
<path d="M180.007 308.568L180.042 308.884L178.741 310.467L178.39 310.502L178.354 310.186L179.656 308.603L180.007 308.568ZM180.465 311.698L180.5 312.014L180.148 312.05L178.425 310.889L178.39 310.573L178.741 310.537L180.465 311.698ZM182.153 309.658L182.188 309.975L181.836 310.01L180.113 308.849L180.078 308.533L180.429 308.498L182.153 309.658ZM182.188 310.045L182.223 310.362L180.887 311.979L180.535 312.014L180.5 311.698L181.836 310.08L182.188 310.045ZM182.645 313.21L182.68 313.527L182.328 313.562L180.605 312.401L180.57 312.085L180.922 312.05L182.645 313.21ZM184.333 311.135L184.368 311.452L184.017 311.487L182.293 310.326L182.258 310.01L182.61 309.975L184.333 311.135ZM184.403 311.522L184.439 311.839L183.137 313.421L182.786 313.456L182.75 313.14L184.052 311.557L184.403 311.522Z" fill="#FFAA08"/>
<path d="M181.484 318.626L181.519 318.872L180.464 320.138L180.183 320.174L180.148 319.927L181.203 318.661L181.484 318.626ZM181.871 321.158L181.906 321.405L181.625 321.44L180.253 320.525L180.218 320.279L180.5 320.244L181.871 321.158ZM182.117 318.802L182.152 319.048L181.871 319.083L181.59 318.872L181.555 318.626L181.836 318.591L182.117 318.802ZM183.243 319.857L183.278 320.103L182.223 321.369L181.941 321.405L181.906 321.158L182.961 319.892L183.243 319.857ZM183.63 322.354L183.665 322.6L183.383 322.635L183.102 322.424L183.067 322.178L183.348 322.143L183.63 322.354ZM184.966 320.736L185.001 320.983L184.72 321.018L183.348 320.103L183.313 319.857L183.594 319.822L184.966 320.736ZM185.001 321.053L185.036 321.299L183.981 322.565L183.7 322.6L183.665 322.354L184.72 321.088L185.001 321.053Z" fill="#FFAA08"/>
<path d="M183.559 316.129L183.594 316.375L182.539 317.642L182.258 317.677L182.223 317.431L183.278 316.164L183.559 316.129ZM183.946 318.626L183.981 318.872L183.876 319.013L182.328 317.993L182.293 317.747L182.575 317.712L183.946 318.626ZM185.705 319.822L185.74 320.068L185.458 320.103L183.911 319.048L184.017 318.908L184.298 318.872L185.705 319.822ZM185.107 317.571L185.142 317.817L184.298 318.837L184.017 318.872L183.981 318.626L184.825 317.606L185.107 317.571ZM187.111 318.486L187.147 318.732L186.091 319.998L185.81 320.033L185.775 319.787L186.83 318.521L187.111 318.486Z" fill="#FFAA08"/>
<path d="M185.599 313.667L185.635 313.914L184.579 315.18L184.298 315.215L184.263 314.969L185.318 313.703L185.599 313.667ZM185.951 316.2L185.986 316.446L185.881 316.586L184.333 315.531L184.298 315.285L184.579 315.25L185.951 316.2ZM187.709 317.36L187.745 317.606L187.463 317.642L185.916 316.622L186.021 316.481L186.303 316.446L187.709 317.36ZM187.147 315.109L187.182 315.356L186.338 316.375L186.057 316.411L186.021 316.164L186.865 315.145L187.147 315.109ZM189.116 316.059L189.151 316.305L188.096 317.571L187.815 317.606L187.78 317.36L188.835 316.094L189.116 316.059Z" fill="#FFAA08"/>
<path d="M187.568 311.276L187.603 311.522L186.548 312.788L185.986 312.858L187.287 311.276H187.568ZM187.92 313.808L187.955 314.089L187.85 314.23L185.986 312.964L186.513 312.894L187.92 313.808ZM187.885 311.241L189.432 312.261L189.327 312.401L189.045 312.436L187.674 311.522L187.639 311.276L187.885 311.241ZM189.678 314.969L189.749 315.461L187.885 314.195L187.99 314.054L188.272 314.019L189.678 314.969ZM191.05 313.351L191.085 313.597L190.804 313.632L189.432 312.718L189.397 312.472L189.503 312.331L191.05 313.351ZM191.085 313.667L191.12 313.914L189.819 315.461L189.749 314.969L190.804 313.703L191.085 313.667Z" fill="#FFAA08"/>
<path d="M189.573 308.849L189.608 309.095L188.553 310.362L188.272 310.397L188.237 310.151L189.292 308.884L189.573 308.849ZM189.96 311.346L189.995 311.592L189.714 311.628L188.342 310.713L188.307 310.467L188.588 310.432L189.96 311.346ZM190.206 308.99L190.241 309.236L189.96 309.271L189.678 309.06L189.643 308.814L189.925 308.779L190.206 308.99ZM191.331 310.045L191.367 310.291L190.312 311.557L190.03 311.592L189.995 311.346L191.05 310.08L191.331 310.045ZM191.683 312.542L191.718 312.788L191.437 312.823L191.156 312.612L191.12 312.366L191.402 312.331L191.683 312.542ZM193.02 310.924L193.055 311.17L192.773 311.206L191.402 310.291L191.367 310.045L191.648 310.01L193.02 310.924ZM193.09 311.241L193.125 311.487L192.07 312.753L191.789 312.788L191.753 312.542L192.809 311.276L193.09 311.241Z" fill="#FFAA08"/>
<path d="M187.463 321.545L187.498 321.791L186.443 323.057L185.881 323.128L187.182 321.545H187.463ZM187.85 324.077L187.885 324.359L187.78 324.499L185.916 323.233L186.443 323.163L187.85 324.077ZM189.186 322.424L189.222 322.671L188.94 322.706L187.569 321.791L187.534 321.545L187.815 321.51L189.186 322.424ZM189.784 325.379L189.82 325.625L189.538 325.66L187.815 324.499L187.92 324.359L188.202 324.324L189.784 325.379ZM189.222 322.741L189.257 322.987L188.202 324.253L187.92 324.288L187.885 324.042L188.94 322.776L189.222 322.741Z" fill="#FFAA08"/>
<path d="M190.101 321.334L190.136 321.615L190.03 321.756L188.272 320.595L188.237 320.349L188.483 320.314L190.101 321.334ZM191.859 322.53L191.894 322.776L191.613 322.811L190.065 321.756L190.171 321.615L190.452 321.58L191.859 322.53ZM193.266 321.193L193.301 321.439L192.246 322.706L191.964 322.741L191.929 322.495L192.984 321.228L193.266 321.193Z" fill="#FFAA08"/>
<path d="M191.507 316.657L191.542 316.903L190.487 318.169L190.206 318.204L190.171 317.958L191.226 316.692L191.507 316.657ZM191.859 319.189L191.894 319.47L191.788 319.611L190.241 318.556L190.206 318.31L190.487 318.274L191.859 319.189ZM193.371 317.641L193.265 317.782L192.984 317.817L191.612 316.903L191.577 316.657L191.859 316.621L193.371 317.641ZM193.793 320.49L193.828 320.736L193.547 320.771L191.823 319.611L191.929 319.47L192.21 319.435L193.793 320.49ZM193.23 317.852L193.265 318.099L192.21 319.365L191.929 319.4L191.894 319.154L192.949 317.888L193.23 317.852ZM193.406 317.677L195.129 318.837L195.165 319.083L194.883 319.118L193.336 318.063L193.301 317.782L193.406 317.677Z" fill="#FFAA08"/>
<path d="M193.864 316.762L193.899 317.044L193.794 317.184L192.07 316.024L192.035 315.707L192.317 315.672L193.864 316.762ZM194.919 315.461L194.743 315.672L192.774 315.953L192.563 315.813L192.739 315.602L194.743 315.32L194.919 315.461ZM193.653 314.054L195.376 315.215L195.271 315.355L194.989 315.391L193.407 314.336L193.372 314.089L193.653 314.054ZM195.834 318.063L195.869 318.31L195.587 318.345L193.864 317.184L193.97 317.044L194.251 317.008L195.834 318.063ZM197.17 316.411L197.205 316.657L196.924 316.692L195.341 315.637L195.306 315.355L195.411 315.215L197.17 316.411Z" fill="#FFAA08"/>
<path d="M195.447 311.874L195.482 312.12L194.99 312.718L194.638 312.753L194.673 313.069L194.181 313.667L193.899 313.702L193.864 313.456L195.13 311.909L195.447 311.874ZM196.361 313.702L196.396 313.949L196.115 313.984L194.743 313.069L194.708 312.823L194.99 312.788L196.361 313.702ZM198.331 315.039L198.366 315.285L198.085 315.32L196.502 314.265L196.467 314.019L196.748 313.984L198.331 315.039Z" fill="#FFAA08"/>
<path d="M197.591 309.236L197.627 309.482L196.572 310.748L196.29 310.783L196.255 310.537L197.31 309.271L197.591 309.236ZM197.978 311.768L198.013 312.014L197.908 312.155L196.361 311.1L196.325 310.854L196.607 310.819L197.978 311.768ZM199.737 312.964L199.772 313.21L199.491 313.245L197.943 312.19L198.049 312.049L198.33 312.014L199.737 312.964ZM199.139 310.713L199.174 310.959L198.33 311.979L198.049 312.014L198.013 311.768L198.858 310.748L199.139 310.713ZM201.108 311.627L201.143 311.874L200.088 313.14L199.807 313.175L199.772 312.929L200.827 311.663L201.108 311.627Z" fill="#FFAA08"/>
<path d="M199.561 306.845L199.597 307.091L198.541 308.357L197.979 308.427L199.28 306.845H199.561ZM199.948 309.377L199.983 309.658L199.878 309.799L198.049 308.568L198.577 308.498L199.948 309.377ZM199.913 306.81L201.46 307.865L201.355 308.005L201.074 308.04L199.702 307.126L199.667 306.88L199.913 306.81ZM201.707 310.573L201.777 311.065L199.913 309.799L200.019 309.658L200.3 309.623L201.707 310.573ZM203.043 308.92L203.078 309.166L202.797 309.201L201.425 308.287L201.39 308.005L201.496 307.865L203.043 308.92ZM203.078 309.236L203.113 309.482L201.812 311.03L201.742 310.537L202.797 309.271L203.078 309.236Z" fill="#FFAA08"/>
<path d="M204.731 307.231L204.766 307.478L204.485 307.513L204.344 307.407L204.309 307.161L204.59 307.126L204.731 307.231Z" fill="#FFAA08"/>
<path d="M206.736 304.769L206.771 305.016L206.489 305.051L206.349 304.945L206.314 304.699L206.595 304.664L206.736 304.769Z" fill="#FFAA08"/>
<path d="M208.775 302.343L208.81 302.589L208.529 302.624L208.388 302.519L208.353 302.273L208.634 302.238L208.775 302.343Z" fill="#FFAA08"/>
</svg>
