<svg width="322" height="540" viewBox="0 0 322 540" fill="none" xmlns="http://www.w3.org/2000/svg">
<g clip-path="url(#clip0)">
<rect width="322" height="540" rx="16" fill="#FFAEC4"/>
<path d="M245.125 398.145C243.89 398.921 242.408 399.062 241.068 398.604L240.715 400.227C240.539 401.038 239.762 401.532 238.951 401.356C238.916 401.356 238.845 401.32 238.81 401.32L236.905 400.685L236.411 403.296C236.27 404.037 235.599 404.566 234.823 404.495C234.929 405.201 234.682 405.942 234.153 406.436L220.006 420.019C220.147 420.301 220.253 420.618 220.358 420.901C220.358 420.936 220.394 420.971 220.394 421.042C220.464 421.253 220.535 421.465 220.57 421.677C220.605 421.888 220.711 422.206 220.747 422.488L221.029 424.076C221.064 424.217 221.064 424.393 221.099 424.534C221.135 424.676 221.099 424.852 221.099 424.993C221.064 425.946 220.747 426.828 220.182 427.569L218.101 430.285C218.03 430.391 217.959 430.462 217.889 430.567C216.76 431.873 215.031 432.543 213.302 432.331C212.173 432.19 211.08 431.837 210.092 431.308C209.916 431.238 209.774 431.132 209.598 431.026C209.422 430.92 209.281 430.814 209.139 430.708L208.787 430.461L207.023 431.52C207.799 432.755 208.222 434.201 208.257 435.648V435.718C208.257 435.93 208.257 436.142 208.222 436.353C208.222 436.424 208.222 436.459 208.222 436.53C208.222 436.706 208.187 436.882 208.152 437.059C208.152 437.129 208.116 437.2 208.116 437.271C208.081 437.412 208.046 437.588 208.01 437.729C207.975 437.8 207.975 437.87 207.94 437.941C207.905 438.117 207.834 438.258 207.799 438.399C207.764 438.47 207.764 438.541 207.728 438.611C207.658 438.823 207.552 439.035 207.446 439.246L207.093 439.987L206.917 440.34C206.423 441.292 205.717 442.104 204.8 442.704L204.518 442.88C203.883 443.233 203.212 443.48 202.507 443.586L201.484 443.762C199.332 444.15 197.109 443.586 195.416 442.245L192.77 440.163L192.17 440.516C192.487 441.151 192.699 441.822 192.805 442.527C192.84 442.809 192.875 443.092 192.875 443.374C192.875 443.515 192.875 443.656 192.875 443.762V443.797C192.875 443.938 192.84 444.08 192.84 444.221C192.734 444.926 192.558 445.597 192.276 446.232C192.205 446.443 192.099 446.655 191.993 446.867C191.852 447.114 191.746 447.361 191.57 447.608C191.429 447.854 191.252 448.101 191.076 448.313C191.006 448.384 190.97 448.454 190.9 448.525C190.582 448.913 190.229 449.266 189.841 449.583L189.488 449.865L188.853 450.395C188.712 450.5 188.571 450.606 188.43 450.712C186.737 451.876 184.62 452.264 182.644 451.771C182.186 451.665 181.762 451.524 181.339 451.312L180.386 452.229L179.151 453.429C176.329 456.11 172.484 457.451 168.603 457.027L168.391 456.992C168.356 457.063 168.321 457.098 168.285 457.168C168.179 457.345 168.038 457.486 167.897 457.627C167.756 457.768 167.58 457.909 167.439 458.05L162.429 461.684C162.076 461.931 161.653 462.143 161.229 462.213C160.947 462.284 160.665 462.319 160.347 462.284C159.889 462.249 159.465 462.143 159.077 461.966L157.137 461.014L153.785 459.391L153.715 459.356L153.609 459.285L153.503 459.215L153.432 459.144L153.327 459.038L153.291 459.003L153.221 458.932L151.033 461.473C150.328 462.355 149.022 462.566 148.07 461.931L138.05 454.311C137.098 453.605 137.027 452.123 137.874 451.1L141.402 446.796C141.755 446.373 142.213 446.02 142.743 445.808L144.33 445.173L143.625 444.785L143.448 444.997C142.884 445.561 142.143 445.844 141.367 445.808C141.331 445.879 141.331 445.949 141.296 446.02C141.049 446.655 140.626 447.219 140.097 447.643L135.722 450.889C134.84 451.629 133.535 451.524 132.723 450.712L124.538 441.187C123.762 440.269 124.009 438.823 125.067 438.011L128.736 435.118C128.384 434.73 128.031 434.307 127.713 433.919L124.115 436.318C123.198 436.988 121.892 436.847 121.151 435.965L113.566 425.946C112.86 424.993 113.178 423.547 114.272 422.806L117.764 420.301L116 417.867C114.236 415.468 111.943 413.492 109.297 412.081L88.6585 401.144C87.3178 401.744 86.1889 401.849 85.3421 401.356C85.0599 401.214 73.9115 394.793 73.9115 394.793C73.8409 394.758 73.7703 394.688 73.6998 394.617C73.5587 394.511 73.4175 394.37 73.3117 394.229C73.1706 394.088 73.0647 393.911 72.9942 393.7C72.8531 393.382 72.7119 393.065 72.6414 392.712L73.5939 393.206L74.5465 393.7C74.6171 393.735 74.7229 393.806 74.8287 393.841L74.8993 393.876C75.0051 393.911 75.0757 393.947 75.1815 393.947H75.2168L63.9978 388.09L63.9272 388.126L63.7508 388.231C63.5744 388.337 63.398 388.408 63.2216 388.514L63.0452 388.619C62.8688 388.69 62.6924 388.796 62.516 388.866L62.3749 388.902C62.2338 388.972 62.0574 389.008 61.9163 389.078L61.7752 389.113C61.5988 389.149 61.4224 389.219 61.2812 389.255L61.1401 389.29C60.9637 389.325 60.8226 389.36 60.6815 389.36H60.6109C60.4345 389.396 60.2934 389.396 60.117 389.396H60.0112C59.87 389.396 59.6936 389.396 59.5525 389.396H59.482C59.3408 389.396 59.1997 389.36 59.0939 389.325H59.0233C58.8822 389.29 58.7411 389.255 58.6352 389.184L58.5647 389.149C58.4236 389.078 58.3177 389.043 58.1766 388.972L37.0439 378.318C36.4089 378.635 35.8444 378.882 35.3858 379.094C33.9746 379.694 32.387 379.764 30.9758 379.27L7.44407 368.969L0 389.466L29.4235 402.379C30.8699 402.908 32.4575 402.837 33.8335 402.202C34.3274 401.991 34.8918 401.708 35.5269 401.426L56.6596 412.081C56.8007 412.151 56.9065 412.222 57.0476 412.257L57.1182 412.292C57.2593 412.328 57.4004 412.398 57.5063 412.433H57.5769C57.718 412.469 57.8238 412.504 57.9649 412.504H58.0355C58.1766 412.504 58.353 412.504 58.4941 412.504H58.6C58.7411 412.504 58.9175 412.504 59.0939 412.469H59.1644C59.3056 412.433 59.482 412.433 59.6231 412.398L59.7642 412.363C59.9406 412.328 60.117 412.292 60.2934 412.222L60.4345 412.186C60.5756 412.151 60.752 412.081 60.8932 412.01L60.999 411.975C61.1754 411.904 61.3518 411.834 61.5282 411.728L61.7046 411.622C61.881 411.551 62.0574 411.446 62.2338 411.34C62.3044 411.305 62.3396 411.269 62.4102 411.234L62.4808 411.199L73.6292 417.126H73.5939C73.4881 417.09 73.3822 417.09 73.3117 417.055L73.2411 417.02C73.1353 416.985 73.0647 416.949 72.9589 416.914L72.0063 416.42L71.0538 415.926C71.0891 416.032 71.1243 416.173 71.1596 416.279C71.2302 416.491 71.3007 416.702 71.4066 416.914C71.5124 417.09 71.6183 417.267 71.7241 417.443C71.7947 417.514 71.8299 417.584 71.9005 417.655C72.0416 417.796 72.1827 417.902 72.3591 418.008C72.3591 418.008 83.5076 424.429 83.7898 424.57C84.6366 425.064 85.7655 424.958 87.1061 424.358L107.745 435.295C108.415 435.648 109.05 436.036 109.65 436.459C109.968 436.671 110.25 436.882 110.567 437.094C112.049 438.223 113.354 439.564 114.448 441.081L116.212 443.515L112.719 446.02C111.626 446.761 111.308 448.207 112.014 449.16L119.634 459.179C120.375 460.061 121.68 460.202 122.598 459.532L126.196 457.133C126.549 457.556 126.867 457.945 127.219 458.333L123.55 461.226C122.492 462.037 122.245 463.484 123.021 464.401L131.206 473.926C132.018 474.773 133.288 474.844 134.205 474.103L138.58 470.857L139.92 469.975L136.392 474.279C135.51 475.302 135.616 476.749 136.569 477.49L146.588 485.075C147.47 485.745 148.74 485.533 149.552 484.616L151.739 482.111L151.81 482.182L151.845 482.217L151.951 482.323L152.021 482.394C152.057 482.429 152.092 482.464 152.127 482.464L152.268 482.535L152.339 482.57L155.514 484.122L157.631 485.145C158.724 485.675 159.994 485.569 160.982 484.863L165.957 481.229C166.133 481.123 166.274 480.982 166.415 480.806C166.557 480.665 166.698 480.488 166.803 480.347C166.839 480.277 166.874 480.241 166.909 480.171L167.156 480.206C167.509 480.241 167.862 480.241 168.179 480.277C168.497 480.312 168.85 480.277 169.167 480.241H169.238C172.378 480.03 175.341 478.724 177.599 476.537L178.693 475.479L179.787 474.42C180.245 474.632 180.704 474.808 181.198 474.914C183.173 475.373 185.22 474.985 186.878 473.821C187.019 473.715 187.16 473.609 187.301 473.503L187.795 473.115L188.289 472.727C189.206 471.986 189.947 471.069 190.441 470.046C190.582 469.799 190.688 469.516 190.794 469.269C191.006 468.705 191.182 468.105 191.252 467.47C191.252 467.329 191.288 467.188 191.288 467.047V467.012C191.288 466.87 191.288 466.729 191.288 466.623C191.288 465.636 191.041 464.648 190.582 463.766L191.182 463.413L193.828 465.494C195.557 466.835 197.744 467.4 199.896 467.012L200.919 466.835C201.025 466.835 201.166 466.8 201.272 466.765C202.542 466.482 203.671 465.777 204.518 464.789L204.588 464.683C204.871 464.33 205.118 463.977 205.329 463.554L205.541 463.131L205.858 462.46C205.964 462.249 206.07 462.037 206.141 461.825C206.176 461.755 206.176 461.684 206.211 461.614C206.282 461.473 206.317 461.296 206.352 461.155C206.388 461.084 206.388 461.014 206.423 460.943C206.458 460.767 206.493 460.626 206.529 460.485C206.529 460.414 206.564 460.344 206.564 460.273C206.599 460.097 206.599 459.92 206.635 459.744C206.635 459.673 206.635 459.638 206.635 459.567C206.635 459.356 206.67 459.144 206.67 458.932V458.897C206.635 457.415 206.211 456.004 205.435 454.769L207.199 453.711L207.552 453.958C207.693 454.064 207.869 454.17 208.01 454.275C208.152 454.381 208.328 454.487 208.504 454.558C209.492 455.087 210.586 455.44 211.715 455.581C211.962 455.616 212.173 455.616 212.42 455.616C213.902 455.581 215.313 454.946 216.301 453.817C216.372 453.746 216.442 453.64 216.513 453.535L218.594 450.818C219.265 449.936 219.582 448.842 219.512 447.749C219.512 447.608 219.476 447.431 219.441 447.29L219.159 445.702C219.124 445.42 219.053 445.173 218.983 444.891C218.912 444.609 218.877 444.468 218.806 444.256C218.806 444.221 218.771 444.185 218.771 444.115C218.665 443.797 218.559 443.515 218.418 443.233L232.565 429.615C233.094 429.121 233.341 428.38 233.236 427.674C233.976 427.745 234.682 427.216 234.823 426.475L235.317 423.864L237.222 424.499C237.998 424.746 238.845 424.323 239.092 423.547C239.092 423.511 239.127 423.441 239.127 423.405L239.48 421.783C240.856 422.241 242.338 422.065 243.537 421.324L320.412 377.471L313.039 359.372L245.125 398.145Z" fill="url(#paint0_linear)"/>
<path d="M210.552 365.476L211.292 363.218C211.539 362.477 212.28 362.019 213.056 362.089L214.856 362.301L215.173 360.325C215.314 359.408 216.161 358.808 217.078 358.949L218.525 359.196L221.241 359.655L224.134 356.938L247.066 393.735L241.245 397.687L240.681 400.191C240.504 401.003 239.728 401.497 238.917 401.32C238.881 401.32 238.811 401.285 238.775 401.285L236.87 400.65L236.376 403.261C236.235 404.072 235.459 404.601 234.648 404.425C234.612 404.425 234.542 404.39 234.507 404.39L232.143 403.684L224.558 405.095L210.552 365.476Z" fill="black" stroke="black" stroke-width="0.33" stroke-linecap="round" stroke-linejoin="round"/>
<path d="M215.807 363.959L235.882 398.957" stroke="#966696" stroke-width="0.33" stroke-linecap="round" stroke-linejoin="round"/>
<path d="M322 354.292L245.125 398.145C242.903 399.521 239.939 398.851 238.563 396.628L219.159 365.652C218.065 363.888 217.995 361.666 219.053 359.831L223.922 351.329C224.769 349.847 225.862 348.577 227.203 347.518L296.881 292.517" fill="url(#paint1_linear)"/>
<path d="M322 354.292L245.125 398.145C242.903 399.521 239.939 398.851 238.563 396.628L219.159 365.652C218.065 363.888 217.995 361.666 219.053 359.831L223.922 351.329C224.769 349.847 225.862 348.577 227.203 347.518L296.881 292.517" stroke="black" stroke-width="0.33" stroke-linecap="round" stroke-linejoin="round"/>
<path d="M227.486 397.475L226.568 396.134C225.898 395.111 226.145 393.735 227.168 393.03L241.562 383.257C242.268 382.763 242.515 381.811 242.092 381.07L240.116 377.577C239.693 376.836 238.811 376.519 238.034 376.836L221.594 383.292C220.606 383.68 219.442 383.328 218.877 382.41L217.925 380.893L211.751 370.027L167.157 375.39L168.321 398.745L187.161 414.162L227.486 397.475Z" fill="black" stroke="black" stroke-width="0.33" stroke-linecap="round" stroke-linejoin="round"/>
<path d="M209.351 426.404L195.098 402.978C194.463 401.92 194.781 400.544 195.804 399.874L209.986 390.56C211.045 389.854 212.456 390.172 213.126 391.23C213.162 391.266 213.162 391.301 213.197 391.336L216.337 396.734C216.866 397.651 217.924 398.075 218.948 397.792L227.45 395.358C228.438 395.076 229.461 395.464 229.99 396.346L234.506 403.543C235.07 404.46 234.929 405.66 234.153 406.401L212.879 426.828C211.962 427.71 210.516 427.674 209.669 426.757C209.528 426.687 209.422 426.545 209.351 426.404Z" fill="#6D4B6D" stroke="black" stroke-width="0.33" stroke-linecap="round" stroke-linejoin="round"/>
<path d="M164.087 381.916L161.794 363.853C161.688 363.042 162.076 362.265 162.746 361.807L167.685 358.632C168.215 358.314 168.814 358.208 169.414 358.385L177.705 360.819C178.834 361.137 179.469 362.301 179.151 363.43C179.151 363.465 179.116 363.5 179.116 363.536L172.66 381.74C172.413 382.481 171.743 383.01 170.966 383.151L166.486 383.751C165.322 383.892 164.228 383.081 164.087 381.916Z" fill="#6D4B6D" stroke="black" stroke-width="0.33" stroke-linecap="round" stroke-linejoin="round"/>
<path d="M190.441 441.61L208.751 430.462C209.986 429.721 210.374 428.098 209.633 426.898L195.345 403.402C194.604 402.167 192.981 401.779 191.746 402.52C191.711 402.52 191.711 402.555 191.676 402.555L190.088 403.614C187.513 405.307 184.02 404.601 182.326 401.991C182.291 401.92 182.256 401.885 182.221 401.814L173.189 386.856C172.448 385.621 170.825 385.233 169.59 385.974C169.555 386.009 169.485 386.044 169.449 386.079L160.1 392.571C158.971 393.382 158.654 394.899 159.359 396.099L186.842 440.728C187.618 441.998 189.206 442.386 190.441 441.61Z" fill="#6D4B6D" stroke="black" stroke-width="0.33" stroke-linecap="round" stroke-linejoin="round"/>
<path d="M186.349 439.987L172.519 417.69C171.532 416.067 169.45 415.538 167.757 416.42L155.409 423.017C153.645 423.97 153.01 426.122 153.927 427.886C153.962 427.957 153.998 427.992 154.033 428.027L167.933 451.065C168.956 452.758 171.144 453.288 172.837 452.3L185.079 444.997C186.773 443.974 187.337 441.786 186.314 440.093C186.384 440.022 186.384 439.987 186.349 439.987Z" fill="#6D4B6D" stroke="black" stroke-width="0.33" stroke-linecap="round" stroke-linejoin="round"/>
<path d="M173.859 449.936L173.048 448.666L170.896 448.631C170.225 448.631 169.59 448.278 169.238 447.713L165.18 441.434C164.757 440.763 164.686 439.917 164.969 439.211L165.78 437.235L165.533 436.883C164.686 435.754 163.169 435.295 161.829 435.754L159.289 436.6L168.038 451.065C169.061 452.759 171.248 453.288 172.942 452.3L176.54 450.148L175.976 450.501C175.27 450.889 174.318 450.642 173.859 449.936Z" fill="black" stroke="black" stroke-width="0.33" stroke-linecap="round" stroke-linejoin="round"/>
<path d="M193.053 406.789C193.715 406.789 194.252 406.252 194.252 405.589C194.252 404.927 193.715 404.39 193.053 404.39C192.39 404.39 191.853 404.927 191.853 405.589C191.853 406.252 192.39 406.789 193.053 406.789Z" fill="#452F45" stroke="black" stroke-width="0.33" stroke-linecap="round" stroke-linejoin="round"/>
<path d="M192.699 405.236L193.405 405.942" stroke="black" stroke-width="0.33" stroke-linecap="round" stroke-linejoin="round"/>
<path d="M168.673 363.218C169.335 363.218 169.872 362.681 169.872 362.018C169.872 361.356 169.335 360.819 168.673 360.819C168.01 360.819 167.473 361.356 167.473 362.018C167.473 362.681 168.01 363.218 168.673 363.218Z" fill="#452F45" stroke="black" stroke-width="0.33" stroke-linecap="round" stroke-linejoin="round"/>
<path d="M168.321 361.666L169.027 362.371" stroke="black" stroke-width="0.33" stroke-linecap="round" stroke-linejoin="round"/>
<path d="M183.173 442.88C183.835 442.88 184.372 442.343 184.372 441.681C184.372 441.018 183.835 440.481 183.173 440.481C182.51 440.481 181.973 441.018 181.973 441.681C181.973 442.343 182.51 442.88 183.173 442.88Z" fill="#452F45" stroke="black" stroke-width="0.33" stroke-linecap="round" stroke-linejoin="round"/>
<path d="M182.962 441.222L183.421 442.139" stroke="black" stroke-width="0.33" stroke-linecap="round" stroke-linejoin="round"/>
<path d="M189.065 439.881C189.727 439.881 190.264 439.344 190.264 438.682C190.264 438.019 189.727 437.482 189.065 437.482C188.402 437.482 187.865 438.019 187.865 438.682C187.865 439.344 188.402 439.881 189.065 439.881Z" fill="#452F45" stroke="black" stroke-width="0.33" stroke-linecap="round" stroke-linejoin="round"/>
<path d="M188.572 438.858L189.524 438.541" stroke="black" stroke-width="0.33" stroke-linecap="round" stroke-linejoin="round"/>
<path d="M206.564 429.227C207.227 429.227 207.764 428.69 207.764 428.027C207.764 427.365 207.227 426.828 206.564 426.828C205.902 426.828 205.365 427.365 205.365 428.027C205.365 428.69 205.902 429.227 206.564 429.227Z" fill="#452F45" stroke="black" stroke-width="0.33" stroke-linecap="round" stroke-linejoin="round"/>
<path d="M206.987 427.745L206.176 428.345" stroke="black" stroke-width="0.33" stroke-linecap="round" stroke-linejoin="round"/>
<path d="M167.439 438.505C167.157 438.999 167.192 439.634 167.474 440.128L170.896 445.879C171.178 446.373 171.708 446.655 172.272 446.655L175.271 446.761C175.341 446.408 175.271 446.055 175.095 445.738L169.803 436.494C169.591 436.142 169.273 435.895 168.85 435.789L167.439 438.505Z" fill="#452F45"/>
<path d="M170.931 449.971L174.6 447.713C175.27 447.29 175.482 446.443 175.094 445.738L169.802 436.494C169.414 435.789 168.496 435.542 167.791 435.965C167.791 435.965 167.791 435.965 167.756 435.965L163.663 438.4" stroke="black" stroke-width="0.33" stroke-linecap="round" stroke-linejoin="round"/>
<path d="M173.93 446.69L172.272 446.655C171.708 446.655 171.178 446.338 170.896 445.879L167.474 440.128C167.192 439.634 167.157 439.035 167.439 438.505L168.285 436.953" stroke="black" stroke-width="0.33" stroke-linecap="round" stroke-linejoin="round"/>
<path d="M173.824 434.801L178.375 442.527L177.67 442.88L173.119 435.224L173.824 434.801Z" fill="black" stroke="black" stroke-width="0.33" stroke-linecap="round" stroke-linejoin="round"/>
<path d="M172.343 444.256L177.247 441.222L176.506 439.987L171.531 442.951L172.343 444.256Z" fill="#FF5A87" stroke="black" stroke-width="0.33" stroke-linecap="round" stroke-linejoin="round"/>
<path d="M171.531 442.951L176.506 439.987L175.8 438.752L170.826 441.716L171.531 442.951Z" fill="#FAE4E2" stroke="black" stroke-width="0.33" stroke-linecap="round" stroke-linejoin="round"/>
<path d="M170.085 440.481L170.826 441.716L175.8 438.752L175.059 437.517L170.085 440.481Z" fill="#F0AAA5" stroke="black" stroke-width="0.33" stroke-linecap="round" stroke-linejoin="round"/>
<path d="M174.283 436.212L169.379 439.317L170.085 440.481L175.059 437.517L174.283 436.212Z" fill="#FFE600" stroke="black" stroke-width="0.33" stroke-linecap="round" stroke-linejoin="round"/>
<path d="M186.701 433.637L179.574 422.382" stroke="black" stroke-width="0.33" stroke-linecap="round" stroke-linejoin="round"/>
<path d="M185.467 427.11L183.103 423.37" stroke="black" stroke-width="0.33" stroke-linecap="round" stroke-linejoin="round"/>
<path d="M188.782 432.331L186.313 428.415" stroke="black" stroke-width="0.33" stroke-linecap="round" stroke-linejoin="round"/>
<path d="M190.865 431.026L190.053 429.721" stroke="black" stroke-width="0.33" stroke-linecap="round" stroke-linejoin="round"/>
<path d="M184.161 421.042C184.551 421.042 184.867 420.726 184.867 420.336C184.867 419.947 184.551 419.631 184.161 419.631C183.771 419.631 183.456 419.947 183.456 420.336C183.456 420.726 183.771 421.042 184.161 421.042Z" stroke="black" stroke-width="0.33" stroke-linecap="round" stroke-linejoin="round"/>
<path d="M219.37 377.048L211.856 364.876C210.656 362.9 208.046 362.301 206.105 363.5C206.07 363.5 206.07 363.536 206.035 363.536L201.766 366.287L181.762 361.207C180.104 360.784 178.375 361.701 177.811 363.324L172.871 377.154C172.66 377.789 172.695 378.459 172.977 379.059L173.365 379.8C173.648 380.364 173.718 381.034 173.506 381.634L173.436 381.846C173.224 382.516 173.295 383.257 173.683 383.892L184.161 400.721C185.219 402.414 187.477 402.943 189.206 401.885C189.241 401.885 189.277 401.85 189.277 401.814L218.136 382.693C220.005 381.493 220.535 378.988 219.37 377.048Z" fill="#6D4B6D" stroke="black" stroke-width="0.33" stroke-linecap="round" stroke-linejoin="round"/>
<path d="M194.322 387.702L192.628 385.233C192.381 384.88 192.028 384.633 191.64 384.492L172.73 378.212C172.766 378.494 172.836 378.812 172.977 379.059L173.365 379.8C173.506 380.082 173.577 380.399 173.612 380.717L193.193 387.667C193.545 387.843 193.969 387.843 194.322 387.702Z" fill="#966696"/>
<path d="M219.37 377.048L211.856 364.876C210.656 362.9 208.046 362.301 206.105 363.5C206.07 363.5 206.07 363.536 206.035 363.536L201.766 366.287L181.762 361.207C180.104 360.784 178.375 361.701 177.811 363.324L172.871 377.154C172.66 377.789 172.695 378.459 172.977 379.059L173.365 379.8C173.648 380.364 173.718 381.034 173.506 381.634L173.436 381.846C173.224 382.516 173.295 383.257 173.683 383.892L184.161 400.721C185.219 402.414 187.477 402.943 189.206 401.885C189.241 401.885 189.277 401.85 189.277 401.814L218.136 382.693C220.005 381.493 220.535 378.988 219.37 377.048Z" stroke="black" stroke-width="0.33" stroke-linecap="round" stroke-linejoin="round"/>
<path d="M216.019 380.54C216.681 380.54 217.218 380.003 217.218 379.341C217.218 378.678 216.681 378.141 216.019 378.141C215.356 378.141 214.819 378.678 214.819 379.341C214.819 380.003 215.356 380.54 216.019 380.54Z" fill="#452F45" stroke="black" stroke-width="0.33" stroke-linecap="round" stroke-linejoin="round"/>
<path d="M215.807 378.882L216.266 379.764" stroke="black" stroke-width="0.33" stroke-linecap="round" stroke-linejoin="round"/>
<path d="M197.991 403.084C198.654 403.084 199.191 402.547 199.191 401.885C199.191 401.222 198.654 400.685 197.991 400.685C197.329 400.685 196.792 401.222 196.792 401.885C196.792 402.547 197.329 403.084 197.991 403.084Z" fill="#452F45" stroke="black" stroke-width="0.33" stroke-linecap="round" stroke-linejoin="round"/>
<path d="M197.955 401.391L197.991 402.379" stroke="black" stroke-width="0.33" stroke-linecap="round" stroke-linejoin="round"/>
<path d="M208.364 368.051C209.026 368.051 209.563 367.514 209.563 366.852C209.563 366.189 209.026 365.652 208.364 365.652C207.701 365.652 207.164 366.189 207.164 366.852C207.164 367.514 207.701 368.051 208.364 368.051Z" fill="#452F45" stroke="black" stroke-width="0.33" stroke-linecap="round" stroke-linejoin="round"/>
<path d="M207.905 366.605L208.822 367.063" stroke="black" stroke-width="0.33" stroke-linecap="round" stroke-linejoin="round"/>
<path d="M198.872 367.205C198.167 367.381 197.602 367.875 197.355 368.581L192.416 383.504C192.205 384.139 192.31 384.809 192.699 385.339L194.392 387.702C194.815 387.526 195.133 387.173 195.274 386.75L197.744 379.306C197.92 378.776 197.849 378.212 197.567 377.718L197.285 377.224C197.003 376.73 196.932 376.166 197.108 375.637L198.026 372.849C198.202 372.32 198.59 371.897 199.119 371.65L199.649 371.403C200.143 371.191 200.566 370.768 200.742 370.203L201.695 367.31L201.942 366.605L198.872 367.205Z" fill="#452F45"/>
<path d="M201.659 367.31L200.707 370.203C200.53 370.733 200.142 371.156 199.613 371.403L199.084 371.65C198.59 371.862 198.166 372.285 197.99 372.849L197.073 375.636C196.896 376.166 196.967 376.73 197.249 377.224L197.531 377.718C197.814 378.212 197.884 378.776 197.708 379.306L195.238 386.75C194.956 387.596 194.074 388.02 193.227 387.773H193.192L174.67 381.034" stroke="black" stroke-width="0.33" stroke-linecap="round" stroke-linejoin="round"/>
<path d="M199.861 376.06C200.523 376.06 201.06 375.523 201.06 374.86C201.06 374.198 200.523 373.661 199.861 373.661C199.198 373.661 198.661 374.198 198.661 374.86C198.661 375.523 199.198 376.06 199.861 376.06Z" fill="#452F45" stroke="black" stroke-width="0.33" stroke-linecap="round" stroke-linejoin="round"/>
<path d="M200.248 374.578L199.437 375.178" stroke="black" stroke-width="0.33" stroke-linecap="round" stroke-linejoin="round"/>
<path d="M211.398 425.416C212.06 425.416 212.597 424.879 212.597 424.217C212.597 423.555 212.06 423.017 211.398 423.017C210.735 423.017 210.198 423.555 210.198 424.217C210.198 424.879 210.735 425.416 211.398 425.416Z" fill="#452F45" stroke="black" stroke-width="0.33" stroke-linecap="round" stroke-linejoin="round"/>
<path d="M211.856 424.429L210.974 423.97" stroke="black" stroke-width="0.33" stroke-linecap="round" stroke-linejoin="round"/>
<path d="M231.331 405.801C231.993 405.801 232.53 405.264 232.53 404.601C232.53 403.939 231.993 403.402 231.331 403.402C230.668 403.402 230.131 403.939 230.131 404.601C230.131 405.264 230.668 405.801 231.331 405.801Z" fill="#452F45" stroke="black" stroke-width="0.33" stroke-linecap="round" stroke-linejoin="round"/>
<path d="M231.824 404.601H230.836" stroke="black" stroke-width="0.33" stroke-linecap="round" stroke-linejoin="round"/>
<path d="M193.687 386.75L192.699 385.303C192.311 384.774 192.24 384.069 192.417 383.469L197.356 368.545C197.568 367.84 198.167 367.346 198.873 367.169L200.284 366.852" stroke="black" stroke-width="0.33" stroke-linecap="round" stroke-linejoin="round"/>
<path d="M196.862 367.522L179.645 362.618" stroke="black" stroke-width="0.33" stroke-linecap="round" stroke-linejoin="round"/>
<path d="M191.288 384.351L173.719 378.53" stroke="black" stroke-width="0.33" stroke-linecap="round" stroke-linejoin="round"/>
<path d="M195.302 379.669L193.562 384.928L194.265 385.16L196.006 379.902L195.302 379.669Z" fill="black" stroke="black" stroke-width="0.33" stroke-linecap="round" stroke-linejoin="round"/>
<path d="M186.63 366.852C186.136 366.711 185.607 366.993 185.466 367.487L183.314 374.508C183.173 375.001 183.42 375.531 183.949 375.672L190.97 377.824C191.464 377.965 191.993 377.718 192.134 377.189L193.616 372.461L191.817 368.439L186.63 366.852Z" fill="#DFC2DF" stroke="black" stroke-width="0.33" stroke-linecap="round" stroke-linejoin="round"/>
<path d="M193.582 372.461L191.465 370.697C191.112 370.415 191.006 369.921 191.218 369.498L191.782 368.404L193.582 372.461Z" stroke="black" stroke-width="0.33" stroke-linecap="round" stroke-linejoin="round"/>
<path d="M196.403 414.374C196.262 414.762 196.297 415.185 196.474 415.574L199.614 420.971C199.825 421.324 200.213 421.571 200.602 421.642L203.106 421.994C203.106 421.747 203.036 421.501 202.93 421.289L197.85 412.681C197.709 412.469 197.532 412.257 197.285 412.151L196.403 414.374Z" fill="#452F45"/>
<path d="M202.049 421.818L200.637 421.641C200.214 421.571 199.861 421.359 199.65 420.971L196.51 415.573C196.298 415.221 196.263 414.762 196.439 414.374L196.933 413.104" stroke="black" stroke-width="0.33" stroke-linecap="round" stroke-linejoin="round"/>
<path d="M195.415 415.397L188.642 417.161L191.041 415.538L195.98 412.222C196.615 411.798 197.426 411.975 197.85 412.61C197.85 412.645 197.885 412.645 197.885 412.68L202.965 421.289C203.318 421.889 203.142 422.7 202.577 423.088L195.909 427.604L199.155 421.994" stroke="black" stroke-width="0.33" stroke-linecap="round" stroke-linejoin="round"/>
<path d="M197.567 415.079L200.495 420.301L200.919 420.054L197.955 414.797L197.567 415.079Z" fill="black" stroke="black" stroke-width="0.33" stroke-linecap="round" stroke-linejoin="round"/>
<path d="M207.376 405.625C208.575 401.003 207.976 396.134 205.612 391.971C203.213 387.808 199.297 384.739 194.675 383.363L194.569 383.328L194.252 384.28C198.662 385.586 202.401 388.514 204.765 392.465C207.023 396.346 207.658 401.003 206.529 405.378C205.365 409.646 202.366 413.809 198.45 416.032L198.909 416.844C203.001 414.303 206.07 410.317 207.376 405.625Z" fill="#FFE600" stroke="black" stroke-width="0.33" stroke-linecap="round" stroke-linejoin="round"/>
<path d="M208.258 405.907C210.975 395.817 205.154 385.374 195.099 382.446L194.852 382.375L194.534 383.328L194.64 383.363C199.262 384.739 203.178 387.808 205.577 391.971C207.941 396.099 208.541 401.003 207.341 405.625C206.036 410.317 202.966 414.303 198.803 416.773L199.262 417.584C203.637 414.974 206.882 410.811 208.258 405.907Z" fill="#F0AAA5" stroke="black" stroke-width="0.33" stroke-linecap="round" stroke-linejoin="round"/>
<path d="M195.521 380.435L195.203 381.387L195.556 381.493C200.566 382.975 204.835 386.397 207.375 390.983C209.915 395.605 210.55 401.038 209.174 406.154C207.798 411.199 204.235 415.714 199.754 418.36L200.213 419.172C204.87 416.35 208.645 411.728 210.091 406.436C211.538 401.109 210.867 395.393 208.257 390.525C205.646 385.727 201.236 382.163 195.979 380.611L195.521 380.435Z" fill="#FF5A87" stroke="black" stroke-width="0.33" stroke-linecap="round" stroke-linejoin="round"/>
<path d="M209.174 406.189C210.55 401.073 209.88 395.64 207.375 391.018C204.835 386.432 200.566 383.045 195.556 381.528L195.203 381.422L194.886 382.375L195.133 382.445C205.187 385.374 211.044 395.817 208.292 405.907C206.881 410.811 203.67 414.974 199.296 417.584L199.754 418.36C204.2 415.714 207.798 411.234 209.174 406.189Z" fill="#FAE4E2" stroke="black" stroke-width="0.33" stroke-linecap="round" stroke-linejoin="round"/>
<path d="M201.625 405.907L202.578 401.391L205.929 401.744C206.035 401.744 206.141 401.744 206.211 401.708L206.776 401.567C206.882 401.532 206.952 401.532 207.058 401.532L210.621 401.92C210.763 401.955 210.904 401.991 211.045 402.097L211.292 402.273C211.398 402.344 211.503 402.414 211.645 402.449L215.137 403.049L214.467 407.036L213.585 408.024L210.551 407.53C210.304 407.494 210.127 407.353 209.986 407.142L209.916 407.036C209.81 406.824 209.598 406.683 209.351 406.648L206.458 406.154C206.353 406.119 206.211 406.119 206.106 406.154L205.647 406.295C205.541 406.33 205.435 406.33 205.329 406.33L201.625 405.907Z" fill="#FFE600" stroke="black" stroke-width="0.33" stroke-linecap="round" stroke-linejoin="round"/>
<path d="M210.232 406.471L210.691 402.802" stroke="black" stroke-width="0.33" stroke-linecap="round" stroke-linejoin="round"/>
<path d="M205.718 405.73L206.353 402.343" stroke="black" stroke-width="0.33" stroke-linecap="round" stroke-linejoin="round"/>
<path d="M213.515 408.024L213.479 407.388C213.479 407.142 213.62 406.895 213.832 406.824L214.079 406.718" stroke="black" stroke-width="0.33" stroke-linecap="round" stroke-linejoin="round"/>
<path d="M221.099 395.464L240.75 382.763C241.208 382.481 241.385 381.881 241.138 381.387L239.973 379.059C239.726 378.565 239.127 378.318 238.598 378.529L217.747 386.891C216.971 387.208 216.124 386.961 215.63 386.291L215.242 385.762" stroke="#966696" stroke-width="0.33" stroke-linecap="round" stroke-linejoin="round"/>
<path d="M220.676 361.63L236.552 350.87" stroke="black" stroke-width="0.33" stroke-linecap="round" stroke-linejoin="round"/>
<path d="M227.908 380.787L221.628 383.257C220.641 383.645 219.476 383.292 218.912 382.375" stroke="#966696" stroke-width="0.33" stroke-linecap="round" stroke-linejoin="round"/>
<path d="M226.18 394.935C226.145 394.159 226.533 393.453 227.168 393.03L232.954 389.114" stroke="#966696" stroke-width="0.33" stroke-linecap="round" stroke-linejoin="round"/>
<path d="M257.296 337.499L273.137 326.739" stroke="black" stroke-width="0.33" stroke-linecap="round" stroke-linejoin="round"/>
<path d="M167.65 447.749L172.836 447.325L167.968 445.067" stroke="black" stroke-width="0.33" stroke-linecap="round" stroke-linejoin="round"/>
<path d="M152.868 458.05C152.974 458.615 153.327 459.144 153.82 459.426L159.112 462.002C160.206 462.531 161.512 462.425 162.464 461.719L167.474 458.086C167.827 457.839 168.109 457.556 168.356 457.204L160.171 452.617L152.868 458.05Z" fill="#C9476A"/>
<path d="M170.332 447.466L165.392 444.715C164.616 444.291 163.699 444.468 163.099 445.103L153.291 456.216C152.903 456.745 152.762 457.415 152.868 458.05L160.206 452.547L160.136 452.617L168.321 457.168C168.532 456.886 168.709 456.569 168.815 456.216L171.143 449.689C171.461 448.878 171.108 447.925 170.332 447.466Z" fill="#FF5A87"/>
<path d="M166.98 456.428L160.594 452.864" stroke="black" stroke-width="0.33" stroke-linecap="round" stroke-linejoin="round"/>
<path d="M170.508 449.16L167.544 450.289C166.627 450.642 165.604 450.183 165.251 449.23C165.251 449.195 165.216 449.16 165.216 449.125L164.122 445.455" stroke="black" stroke-width="0.33" stroke-linecap="round" stroke-linejoin="round"/>
<path d="M153.856 459.426C152.798 458.827 152.516 457.345 153.292 456.216L163.1 445.103C163.664 444.468 164.617 444.291 165.393 444.715L170.332 447.466C171.108 447.89 171.461 448.842 171.179 449.689L168.85 456.216C168.603 456.957 168.109 457.592 167.474 458.05L162.465 461.684C161.477 462.39 160.207 462.496 159.113 461.967L153.856 459.426Z" stroke="black" stroke-width="0.33" stroke-linecap="round" stroke-linejoin="round"/>
<path d="M165.816 374.966C170.862 374.966 174.953 370.875 174.953 365.829C174.953 360.782 170.862 356.691 165.816 356.691C160.769 356.691 156.678 360.782 156.678 365.829C156.678 370.875 160.769 374.966 165.816 374.966Z" fill="black" stroke="black" stroke-width="0.33" stroke-linecap="round" stroke-linejoin="round"/>
<path d="M220.994 424.076L220.711 422.488C220.323 420.23 219.23 418.149 217.572 416.526L191.923 391.653L184.408 384.28C182.644 382.551 180.351 381.493 177.917 381.246L165.004 379.976L160.03 364.312C157.948 364.382 155.867 364.805 153.927 365.582L146.447 368.616C140.344 371.085 133.429 370.415 127.925 366.816L74.4409 332.03L55.9895 380.329L58.7766 385.374L109.262 412.151C111.908 413.562 114.201 415.538 115.965 417.937L127.008 433.037C129.16 435.965 131.877 438.435 135.017 440.269L163.699 455.616C168.779 458.333 175.024 457.451 179.152 453.464L181.339 451.347L172.837 447.396L181.374 451.382C183.844 452.547 186.737 452.194 188.889 450.5L189.877 449.689C191.5 448.384 192.558 446.514 192.84 444.432C193.123 442.104 192.17 439.811 190.335 438.399L188.007 436.6L190.335 438.399L195.451 442.386C197.18 443.727 199.367 444.291 201.519 443.903L202.542 443.727C204.447 443.409 206.07 442.174 206.952 440.446L207.482 439.352C209.034 436.177 208.328 432.367 205.718 429.967L199.332 424.076C199.261 424.005 199.261 423.899 199.332 423.829C199.402 423.758 199.473 423.758 199.544 423.793L209.175 430.779C210.41 431.661 211.821 432.225 213.338 432.402C215.173 432.613 217.007 431.837 218.136 430.356L220.218 427.639C220.923 426.581 221.205 425.311 220.994 424.076Z" fill="#F0AAA5" stroke="black" stroke-width="0.33" stroke-linecap="round" stroke-linejoin="round"/>
<path d="M220.993 424.076L220.711 422.488C220.535 421.43 220.182 420.407 219.688 419.454C219.864 420.407 219.582 421.395 218.912 422.1L215.596 425.805C214.361 427.145 212.315 427.392 210.833 426.334L201.096 419.348C200.214 418.713 199.437 417.902 198.873 416.949L197.109 413.986L197.215 419.384C197.25 421.112 198.097 422.735 199.508 423.758L209.104 430.744C210.339 431.626 211.75 432.19 213.267 432.367C215.102 432.578 216.936 431.802 218.065 430.32L220.147 427.604C220.923 426.581 221.205 425.311 220.993 424.076Z" fill="#F28F86"/>
<path d="M187.971 436.494L190.299 438.294L187.971 436.494Z" fill="#EBF2E8" stroke="black" stroke-width="0.33" stroke-linecap="round" stroke-linejoin="round"/>
<path d="M191.358 445.385L187.442 448.172C186.137 449.089 184.443 449.266 182.961 448.631L177.669 446.338C176.54 445.844 175.27 445.667 174.036 445.808L170.508 446.267L172.342 447.114C173.083 447.466 173.4 448.348 173.048 449.089C172.871 449.442 172.589 449.724 172.236 449.866L170.437 450.571C169.52 450.924 168.532 450.853 167.685 450.359L139.708 434.66C137.38 433.355 135.404 431.52 133.887 429.297L122.88 412.927C121.715 411.199 120.128 409.788 118.293 408.8L57.2942 376.836L55.9536 380.329L58.7407 385.374L109.226 412.151C111.872 413.562 114.165 415.538 115.929 417.937L126.972 433.037C129.124 435.965 131.841 438.435 134.981 440.269L163.663 455.616C168.744 458.333 174.988 457.451 179.116 453.464L181.303 451.347L172.801 447.396L181.338 451.383C183.808 452.547 186.701 452.194 188.853 450.501L189.841 449.689C191.464 448.384 192.522 446.514 192.804 444.432C192.875 443.833 192.875 443.268 192.804 442.668L192.769 442.633C192.804 443.692 192.275 444.715 191.358 445.385Z" fill="#F28F86"/>
<path d="M206.494 435.648L201.872 438.682C200.249 439.74 198.168 439.67 196.651 438.47L190.547 433.778C189.806 433.213 189.136 432.508 188.607 431.732L185.467 427.11L185.855 432.296C185.996 434.025 186.843 435.648 188.254 436.706L190.3 438.294L188.007 436.494L190.336 438.294L195.451 442.28C197.18 443.621 199.367 444.185 201.519 443.797L202.543 443.621C204.448 443.303 206.071 442.069 206.953 440.34L207.482 439.246C208.364 437.447 208.54 435.401 207.976 433.496C207.729 434.413 207.235 435.154 206.494 435.648Z" fill="#F28F86"/>
<path d="M220.994 424.076L220.711 422.488C220.323 420.23 219.23 418.149 217.572 416.526L191.923 391.653L184.408 384.28C182.644 382.551 180.351 381.493 177.917 381.246L165.004 379.976L160.03 364.312C157.948 364.382 155.867 364.805 153.927 365.582L146.447 368.616C140.344 371.085 133.429 370.415 127.925 366.816L74.4409 332.03L55.9895 380.329L58.7766 385.374L109.262 412.151C111.908 413.562 114.201 415.538 115.965 417.937L127.008 433.037C129.16 435.965 131.877 438.435 135.017 440.269L163.699 455.616C168.779 458.333 175.024 457.451 179.152 453.464L181.339 451.347L172.837 447.396L181.374 451.382C183.844 452.547 186.737 452.194 188.889 450.5L189.877 449.689C191.5 448.384 192.558 446.514 192.84 444.432C193.123 442.104 192.17 439.811 190.335 438.399L188.007 436.6L190.335 438.399L195.451 442.386C197.18 443.727 199.367 444.291 201.519 443.903L202.542 443.727C204.447 443.409 206.07 442.174 206.952 440.446L207.482 439.352C209.034 436.177 208.328 432.367 205.718 429.967L199.332 424.076C199.261 424.005 199.261 423.899 199.332 423.829C199.402 423.758 199.473 423.758 199.544 423.793L209.175 430.779C210.41 431.661 211.821 432.225 213.338 432.402C215.173 432.613 217.007 431.837 218.136 430.356L220.218 427.639C220.923 426.581 221.205 425.311 220.994 424.076Z" stroke="black" stroke-width="0.33" stroke-linecap="round" stroke-linejoin="round"/>
<path d="M200.355 424.358L199.508 423.758C198.097 422.735 197.25 421.112 197.215 419.384L197.109 413.986" stroke="black" stroke-width="0.33" stroke-linecap="round" stroke-linejoin="round"/>
<path d="M186.031 432.614C186.067 434.131 186.772 435.542 187.972 436.494L190.3 438.294" stroke="black" stroke-width="0.33" stroke-linecap="round" stroke-linejoin="round"/>
<path d="M176.258 423.511L182.714 430.003L177.458 428.944L176.258 423.511Z" fill="#F28F86"/>
<path d="M189.417 410.246L194.039 414.303L189.946 414.339L189.417 410.246Z" fill="#F28F86"/>
<path d="M81.7442 391.371C85.5897 387.879 90.035 382.163 94.0922 375.248C98.1494 368.334 100.972 361.56 102.136 356.515C103.159 352.14 102.912 349 101.254 348.012C100.584 347.624 99.737 347.589 98.7491 347.906L100.69 349.035C103.759 350.835 100.372 362.301 93.1396 374.649C85.9072 386.997 77.5459 395.57 74.5118 393.77L72.6067 392.747C72.8184 393.7 73.2417 394.405 73.9121 394.793C75.5349 395.817 78.4279 394.441 81.7442 391.371Z" fill="#452F45" stroke="black" stroke-width="0.33" stroke-linecap="round" stroke-linejoin="round"/>
<path d="M105.522 381.811C113.107 368.898 116.282 356.691 112.684 354.575L101.253 348.012C102.911 349 103.123 352.14 102.135 356.515C100.971 361.595 98.1839 368.334 94.0914 375.249C92.0451 378.777 89.7519 382.128 87.2471 385.339L98.5014 392.112C101.112 388.831 103.441 385.374 105.522 381.811Z" fill="#6D4B6D" stroke="black" stroke-width="0.33" stroke-linecap="round" stroke-linejoin="round"/>
<path d="M102.453 397.193L102.7 397.087L103.829 396.381C104.252 396.099 104.605 395.711 104.852 395.288L114.378 377.577L117.13 372.532C118.364 370.239 117.588 367.346 115.33 366.005L101.642 357.926L101.571 357.044L99.2073 356.868C98.9957 356.832 98.8193 356.832 98.6076 356.832H98.5723C96.9494 356.832 95.4324 357.714 94.6562 359.161L91.8691 364.276L82.3435 381.811C81.1087 384.104 81.8849 386.997 84.1428 388.337L98.6076 396.875C99.8071 397.545 101.218 397.651 102.453 397.193Z" fill="#E6675C"/>
<path d="M102.382 393.665L102.629 393.559L105.169 392.5L105.028 391.089L114.307 374.049L117.059 369.004C118.293 366.711 117.517 363.818 115.259 362.477L101.571 354.363L101.5 353.481L99.1363 353.304C98.9246 353.269 98.7482 353.269 98.5366 353.269H98.5013C96.8784 353.269 95.3614 354.151 94.5852 355.598L91.7981 360.713L82.2725 378.247C81.0024 380.541 81.8139 383.434 84.0718 384.774L98.5366 393.312C99.7714 393.982 101.147 394.123 102.382 393.665Z" fill="#FC8C57" stroke="black" stroke-width="0.33" stroke-linecap="round" stroke-linejoin="round"/>
<path d="M101.642 354.363L101.571 353.481L99.2074 353.304C98.9957 353.269 98.8193 353.269 98.6076 353.269H98.5723C96.9495 353.269 95.4324 354.151 94.6563 355.598L91.8691 360.713L111.908 360.431L101.642 354.363Z" fill="black" stroke="black" stroke-width="0.33" stroke-linecap="round" stroke-linejoin="round"/>
<path d="M119.246 368.651C120.446 366.428 119.705 363.641 117.518 362.336L103.547 354.045C101.501 352.846 98.8546 353.516 97.6198 355.562C97.5845 355.598 97.5845 355.668 97.5492 355.703L94.8679 360.643L116.6 373.52L119.246 368.651Z" fill="black" stroke="black" stroke-width="0.33" stroke-linecap="round" stroke-linejoin="round"/>
<path d="M107.321 390.595L116.599 373.555L94.867 360.678L85.6237 377.648C84.4241 379.87 85.165 382.657 87.3524 383.963L101.323 392.253C103.369 393.453 106.015 392.783 107.25 390.736C107.286 390.666 107.321 390.631 107.321 390.595Z" fill="#FFE600" stroke="black" stroke-width="0.33" stroke-linecap="round" stroke-linejoin="round"/>
<path d="M98.4656 367.381L109.402 373.837C110.496 374.472 110.884 375.883 110.284 376.977L104.886 386.891C104.251 388.02 102.84 388.443 101.676 387.843C101.641 387.843 101.641 387.808 101.605 387.808L90.6687 381.352C89.575 380.717 89.1869 379.341 89.7867 378.212L95.1845 368.298C95.7843 367.169 97.2308 366.711 98.3597 367.346C98.395 367.346 98.4303 367.346 98.4656 367.381Z" fill="black" stroke="black" stroke-width="0.33" stroke-linecap="round" stroke-linejoin="round"/>
<path d="M90.7051 378.706L96.1029 368.792C96.4557 368.157 97.2319 367.945 97.8316 368.263L97.8669 368.298L108.804 374.754C109.403 375.107 109.615 375.883 109.298 376.483" fill="black"/>
<path d="M90.7051 378.706L96.1029 368.792C96.4557 368.157 97.2319 367.945 97.8316 368.263L97.8669 368.298L108.804 374.754C109.403 375.107 109.615 375.883 109.298 376.483" stroke="#966696" stroke-width="0.33" stroke-linecap="round" stroke-linejoin="round"/>
<path d="M118.045 363.783L114.023 371.121" stroke="#966696" stroke-width="0.33" stroke-linecap="round" stroke-linejoin="round"/>
<path d="M111.378 369.568L115.471 362.054" stroke="#966696" stroke-width="0.33" stroke-linecap="round" stroke-linejoin="round"/>
<path d="M108.733 367.981L112.825 360.466" stroke="#966696" stroke-width="0.33" stroke-linecap="round" stroke-linejoin="round"/>
<path d="M106.051 366.393L110.144 358.914" stroke="#966696" stroke-width="0.33" stroke-linecap="round" stroke-linejoin="round"/>
<path d="M103.405 364.841L107.498 357.326" stroke="#966696" stroke-width="0.33" stroke-linecap="round" stroke-linejoin="round"/>
<path d="M100.725 363.253L104.817 355.774" stroke="#966696" stroke-width="0.33" stroke-linecap="round" stroke-linejoin="round"/>
<path d="M98.0781 361.701L102.065 354.327" stroke="#966696" stroke-width="0.33" stroke-linecap="round" stroke-linejoin="round"/>
<path d="M113.213 376.095L114.73 376.977L115.401 378.6C115.612 379.094 115.577 379.694 115.33 380.152L112.79 384.809C112.508 385.338 111.979 385.656 111.414 385.727L109.932 385.903L108.415 384.986" fill="#FFE600"/>
<path d="M113.213 376.095L114.73 376.977L115.401 378.6C115.612 379.094 115.577 379.694 115.33 380.152L112.79 384.809C112.508 385.338 111.979 385.656 111.414 385.727L109.932 385.903L108.415 384.986" stroke="black" stroke-width="0.33" stroke-linecap="round" stroke-linejoin="round"/>
<path d="M113.002 380.082C113.45 380.082 113.814 379.719 113.814 379.27C113.814 378.822 113.45 378.459 113.002 378.459C112.554 378.459 112.191 378.822 112.191 379.27C112.191 379.719 112.554 380.082 113.002 380.082Z" fill="#FF5A87" stroke="black" stroke-width="0.33" stroke-linecap="round" stroke-linejoin="round"/>
<path d="M110.956 383.998C111.404 383.998 111.767 383.635 111.767 383.187C111.767 382.738 111.404 382.375 110.956 382.375C110.508 382.375 110.144 382.738 110.144 383.187C110.144 383.635 110.508 383.998 110.956 383.998Z" fill="#6D4B6D" stroke="black" stroke-width="0.33" stroke-linecap="round" stroke-linejoin="round"/>
<path d="M85.7297 384.386L99.3125 392.571" stroke="black" stroke-width="0.33" stroke-linecap="round" stroke-linejoin="round"/>
<path d="M98.5371 392.077L87.2828 385.303C85.6247 387.455 83.7548 389.502 81.7792 391.336C78.4276 394.405 75.5699 395.781 73.8765 394.794C73.8765 394.794 85.0249 401.214 85.3072 401.356C87.8473 402.873 93.0335 398.992 98.5371 392.077Z" fill="#6D4B6D" stroke="black" stroke-width="0.33" stroke-linecap="round" stroke-linejoin="round"/>
<path d="M87.2835 385.303L85.6959 385.585C80.8978 391.583 76.5231 394.97 74.4769 393.77L72.5718 392.747C72.7835 393.7 73.2068 394.405 73.8771 394.794C75.5706 395.781 78.4282 394.405 81.7798 391.336C83.7555 389.502 85.5901 387.491 87.2835 385.303Z" fill="#452F45" stroke="black" stroke-width="0.33" stroke-linecap="round" stroke-linejoin="round"/>
<path d="M100.266 353.622C99.1015 353.904 98.1137 354.68 97.5492 355.739L94.8679 360.678" stroke="#966696" stroke-width="0.33" stroke-linecap="round" stroke-linejoin="round"/>
<path d="M88.2346 338.734L66.6785 322.293L65.8318 330.549C65.726 331.29 65.5496 332.031 65.3732 332.842C63.1858 341.768 57.4705 360.643 43.7113 372.144L43.676 372.179C40.9947 374.613 35.8086 377.753 35.8086 377.753L58.1055 389.008C62.5508 391.689 72.9231 382.622 81.2491 368.757C89.5752 354.892 92.7151 341.415 88.2346 338.734Z" fill="#EAD7EA" stroke="black" stroke-width="0.33" stroke-linecap="round" stroke-linejoin="round"/>
<path d="M43.7113 372.073L43.676 372.109C40.9947 374.543 35.8086 377.683 35.8086 377.683L58.1055 388.937C60.8573 390.595 65.9024 387.738 71.3355 382.022L46.6748 369.392C45.7222 370.309 44.7344 371.227 43.7113 372.073Z" fill="#D4ADD4"/>
<path d="M88.2346 338.734L66.6785 322.293C66.6785 322.293 65.5849 332.031 65.3732 332.807C63.1858 341.733 57.4705 360.607 43.7113 372.109L43.676 372.144C40.9947 374.578 35.8086 377.718 35.8086 377.718L58.1055 388.972C62.5508 391.654 72.9231 382.587 81.2491 368.722C89.5752 354.857 92.7151 341.415 88.2346 338.734Z" stroke="black" stroke-width="0.33" stroke-linecap="round" stroke-linejoin="round"/>
<path d="M141.438 445.773L142.143 443.056L134.029 433.425L130.995 433.954C130.43 434.06 129.901 434.272 129.478 434.625L125.103 438.082C124.045 438.893 123.798 440.34 124.574 441.257L132.759 450.783C133.535 451.629 134.84 451.7 135.758 450.959L140.132 447.713C140.803 447.22 141.261 446.549 141.438 445.773Z" fill="#D4ADD4" stroke="black" stroke-width="0.33" stroke-linecap="round" stroke-linejoin="round"/>
<path d="M129.901 436.636C129.725 437.271 129.866 437.941 130.289 438.47L136.887 446.232C137.451 446.867 138.333 447.078 139.109 446.796L141.332 446.055C141.367 445.949 141.402 445.844 141.438 445.738L142.143 443.021L134.029 433.39L131.207 433.848L129.901 436.636Z" fill="#966696"/>
<path d="M141.438 445.773L142.143 443.056L134.029 433.425L130.995 433.954C130.43 434.06 129.901 434.272 129.478 434.625L125.103 438.082C124.045 438.893 123.798 440.34 124.574 441.257L132.759 450.783C133.535 451.629 134.84 451.7 135.758 450.959L140.132 447.713C140.803 447.22 141.261 446.549 141.438 445.773Z" stroke="black" stroke-width="0.33" stroke-linecap="round" stroke-linejoin="round"/>
<path d="M137.239 445.455L131.206 438.188C130.959 437.835 131.03 437.341 131.347 437.094L132.371 436.212L139.532 444.573L138.298 445.491C138.015 445.773 137.521 445.738 137.239 445.455Z" fill="black" stroke="black" stroke-width="0.33" stroke-linecap="round" stroke-linejoin="round"/>
<path d="M131.524 438.153L132.688 437.165" stroke="#966696" stroke-width="0.33" stroke-linecap="round" stroke-linejoin="round"/>
<path d="M139.815 445.103L131.842 435.683C130.96 434.625 131.277 432.931 132.547 432.084L153.962 418.255C154.844 417.584 156.079 417.69 156.82 418.502L161.089 423.617C161.724 424.499 161.618 425.699 160.807 426.44L143.519 445.103C142.426 446.126 140.697 446.161 139.815 445.103Z" fill="#C9476A"/>
<path d="M153.962 418.219L138.651 428.098L148.423 439.74L160.806 426.369C161.618 425.628 161.724 424.429 161.089 423.547L156.82 418.431C156.079 417.62 154.809 417.514 153.962 418.219Z" fill="#FF5A87" stroke="black" stroke-width="0.33" stroke-linecap="round" stroke-linejoin="round"/>
<path d="M146.448 437.412L145.425 436.212L140.38 430.144" fill="white"/>
<path d="M146.448 437.412L145.425 436.212L140.38 430.144" stroke="black" stroke-width="0.33" stroke-linecap="round" stroke-linejoin="round"/>
<path d="M160.241 425.311L155.796 424.958C154.844 424.887 154.138 424.076 154.208 423.123C154.208 423.053 154.208 423.018 154.244 422.947L154.985 418.784" stroke="black" stroke-width="0.33" stroke-linecap="round" stroke-linejoin="round"/>
<path d="M126.02 439.317L130.041 436.106L129.9 436.636C129.724 437.271 129.865 437.941 130.288 438.47L136.886 446.232C137.45 446.867 138.332 447.078 139.108 446.796" stroke="black" stroke-width="0.33" stroke-linecap="round" stroke-linejoin="round"/>
<path d="M139.815 445.103L131.842 435.683C130.96 434.625 131.277 432.931 132.547 432.084L153.962 418.255C154.844 417.584 156.079 417.69 156.82 418.502L161.089 423.617C161.724 424.499 161.618 425.699 160.807 426.44L143.519 445.103C142.426 446.126 140.697 446.161 139.815 445.103Z" stroke="black" stroke-width="0.33" stroke-linecap="round" stroke-linejoin="round"/>
<path d="M129.478 431.873L130.325 429.192L122.81 419.066L119.741 419.384C119.176 419.454 118.647 419.631 118.188 419.948L114.272 422.771C113.179 423.511 112.861 424.958 113.567 425.91L121.187 435.93C121.928 436.812 123.233 436.953 124.151 436.283L128.102 433.672C128.737 433.284 129.231 432.614 129.478 431.873Z" fill="#D4ADD4" stroke="black" stroke-width="0.33" stroke-linecap="round" stroke-linejoin="round"/>
<path d="M116.635 423.37C116.424 424.005 116.529 424.676 116.917 425.205L123.056 433.355C123.585 434.025 124.432 434.272 125.244 434.06L129.336 432.19C129.371 432.084 129.407 431.979 129.442 431.908L130.289 429.227L122.774 419.101L116.635 423.37Z" fill="#966696"/>
<path d="M129.478 431.873L130.325 429.192L122.81 419.066L119.741 419.384C119.176 419.454 118.647 419.631 118.188 419.948L114.272 422.771C113.179 423.511 112.861 424.958 113.567 425.91L121.187 435.93C121.928 436.812 123.233 436.953 124.151 436.283L128.102 433.672C128.737 433.284 129.231 432.614 129.478 431.873Z" stroke="black" stroke-width="0.33" stroke-linecap="round" stroke-linejoin="round"/>
<path d="M123.48 432.578L117.871 424.993C117.624 424.64 117.73 424.146 118.082 423.9L121.011 421.783L127.467 430.709L124.503 432.719C124.221 432.931 123.762 432.896 123.48 432.578Z" fill="black" stroke="black" stroke-width="0.33" stroke-linecap="round" stroke-linejoin="round"/>
<path d="M118.152 424.958L118.611 424.605" stroke="#966696" stroke-width="0.33" stroke-linecap="round" stroke-linejoin="round"/>
<path d="M115.119 424.182L116.847 422.876L116.671 423.406C116.459 424.041 116.565 424.711 116.953 425.24L123.092 433.39C123.621 434.06 124.468 434.307 125.279 434.095" stroke="black" stroke-width="0.33" stroke-linecap="round" stroke-linejoin="round"/>
<path d="M134.947 419.948L134.629 422.77C134.488 424.041 135.37 425.17 136.64 425.311L139.251 425.663L140.486 425.84C140.838 425.24 140.768 424.499 140.344 423.97L136.958 419.913C136.358 419.172 135.476 418.749 134.523 418.678L124.257 418.008C123.551 417.972 122.881 418.149 122.281 418.537L119.071 420.689C118.683 420.971 118.4 421.395 118.365 421.888L120.023 421.712L134.947 419.948Z" fill="#FF5A87"/>
<path d="M139.215 425.699L136.604 425.346C135.369 425.17 134.452 424.041 134.593 422.806L134.911 419.983L119.952 421.712L118.294 421.889C118.258 422.312 118.364 422.7 118.611 423.017L126.267 433.072C126.761 433.743 127.713 433.919 128.419 433.46L139.85 426.404C140.061 426.263 140.273 426.087 140.379 425.875L139.215 425.699Z" fill="#C9476A"/>
<path d="M119.069 420.689L122.279 418.537C122.879 418.149 123.549 417.972 124.255 418.008L134.521 418.678C135.474 418.749 136.321 419.172 136.956 419.913L140.342 423.97C140.907 424.676 140.836 425.699 140.131 426.263C140.06 426.298 140.025 426.369 139.954 426.404L128.524 433.46C127.818 433.884 126.901 433.743 126.372 433.072L118.681 423.017C118.151 422.312 118.257 421.289 118.998 420.724C118.998 420.724 119.033 420.689 119.069 420.689Z" stroke="black" stroke-width="0.33" stroke-linecap="round" stroke-linejoin="round"/>
<path d="M119.987 421.677L134.91 419.948L134.593 422.771C134.452 424.041 135.334 425.17 136.604 425.311L139.215 425.663L137.627 425.452" stroke="black" stroke-width="0.33" stroke-linecap="round" stroke-linejoin="round"/>
<path d="M155.549 455.228L155.655 452.441L145.706 444.715L142.848 445.844C142.319 446.055 141.86 446.373 141.508 446.831L137.98 451.136C137.098 452.159 137.203 453.605 138.156 454.346L148.175 461.931C149.128 462.566 150.433 462.39 151.139 461.473L154.738 457.38C155.196 456.78 155.514 456.004 155.549 455.228Z" fill="#D4ADD4" stroke="black" stroke-width="0.33" stroke-linecap="round" stroke-linejoin="round"/>
<path d="M142.354 448.737C142.319 449.407 142.601 450.042 143.095 450.43L151.174 456.604C151.844 457.098 152.762 457.133 153.467 456.71L155.478 455.546C155.478 455.44 155.513 455.334 155.513 455.228L155.619 452.441L145.67 444.715L142.989 445.773L142.354 448.737Z" fill="#966696"/>
<path d="M155.549 455.228L155.655 452.441L145.706 444.715L142.848 445.844C142.319 446.055 141.86 446.373 141.508 446.831L137.98 451.136C137.098 452.159 137.203 453.605 138.156 454.346L148.175 461.931C149.128 462.566 150.433 462.39 151.139 461.473L154.738 457.38C155.196 456.78 155.514 456.004 155.549 455.228Z" stroke="black" stroke-width="0.33" stroke-linecap="round" stroke-linejoin="round"/>
<path d="M151.387 455.757L143.943 449.971C143.625 449.689 143.59 449.195 143.872 448.878L144.719 447.819L153.468 454.452L152.481 455.616C152.198 455.934 151.74 456.004 151.387 455.757Z" fill="black" stroke="black" stroke-width="0.33" stroke-linecap="round" stroke-linejoin="round"/>
<path d="M144.225 449.865L145.177 448.666" stroke="#966696" stroke-width="0.33" stroke-linecap="round" stroke-linejoin="round"/>
<path d="M139.109 452.159L142.355 448.172L142.319 448.701C142.284 449.372 142.566 450.007 143.06 450.395L151.139 456.569C151.81 457.063 152.727 457.098 153.433 456.675" stroke="black" stroke-width="0.33" stroke-linecap="round" stroke-linejoin="round"/>
<path d="M154.879 455.828L145.071 448.278C143.977 447.431 143.942 445.738 145 444.609L161.335 427.039C162.04 426.193 163.275 426.051 164.193 426.687L169.414 430.779C170.225 431.485 170.402 432.719 169.767 433.601L158.477 454.981C157.63 456.286 155.937 456.674 154.879 455.828Z" fill="#C9476A"/>
<path d="M161.335 427.04L151.915 439.493C151.562 439.952 151.668 440.622 152.092 440.975L161.864 448.56L169.767 433.602C170.402 432.72 170.226 431.485 169.414 430.779L164.193 426.687C163.24 426.052 162.041 426.228 161.335 427.04Z" fill="#FF5A87"/>
<path d="M159.747 446.937L158.477 445.95L152.268 441.116" fill="white"/>
<path d="M159.747 446.937L158.477 445.95L152.268 441.116" stroke="black" stroke-width="0.33" stroke-linecap="round" stroke-linejoin="round"/>
<path d="M168.991 432.649L164.934 433.425C163.981 433.637 163.064 433.002 162.852 432.049C162.852 431.979 162.817 431.908 162.817 431.802L162.464 427.392" stroke="black" stroke-width="0.33" stroke-linecap="round" stroke-linejoin="round"/>
<path d="M154.879 455.828L145.071 448.278C143.977 447.431 143.942 445.738 145 444.609L161.335 427.039C162.04 426.193 163.275 426.051 164.193 426.687L169.414 430.779C170.225 431.485 170.402 432.719 169.767 433.601L158.477 454.981C157.63 456.286 155.937 456.674 154.879 455.828Z" stroke="black" stroke-width="0.33" stroke-linecap="round" stroke-linejoin="round"/>
<path d="M164.723 381.74L164.335 381.458L164.617 379.976L163.735 377.4L162.006 376.095L159.36 378.388L155.127 401.602L152.551 401.179C151.987 400.685 151.14 400.72 150.646 401.285C150.575 401.356 150.505 401.461 150.434 401.567L146.801 403.472L148.247 405.907C148.776 406.577 149.623 406.93 150.47 406.824L156.749 405.977C158.478 405.73 159.96 404.531 160.524 402.873L166.169 386.362C166.769 384.703 166.169 382.798 164.723 381.74Z" fill="#F28F86"/>
<path d="M95.6436 375.354L98.3248 374.86L98.9599 378.036L106.157 376.836L106.616 379.447L96.7725 381.105L95.6436 375.354Z" fill="#FF5A87"/>
<path d="M180.809 423.264L179.857 420.618" stroke="black" stroke-width="0.33" stroke-linecap="round" stroke-linejoin="round"/>
<path d="M184.972 446.937L189.206 442.704" stroke="black" stroke-width="0.33" stroke-linecap="round" stroke-linejoin="round"/>
<path d="M200.144 438.611L205.153 434.06" stroke="black" stroke-width="0.33" stroke-linecap="round" stroke-linejoin="round"/>
<path d="M213.867 424.393L217.218 420.583" stroke="black" stroke-width="0.33" stroke-linecap="round" stroke-linejoin="round"/>
<path d="M1.44653 366.323L30.87 379.235C32.3165 379.764 33.9041 379.694 35.28 379.059C40.3603 376.836 52.673 369.815 61.9516 351.505C69.7485 336.123 69.8543 327.338 68.937 323.069C68.549 321.27 67.5258 319.647 66.0088 318.554L28.471 291" fill="url(#paint2_linear)"/>
<path d="M1.44653 366.323L30.87 379.235C32.3165 379.764 33.9041 379.694 35.28 379.059C40.3603 376.836 52.673 369.815 61.9516 351.505C69.7485 336.123 69.8543 327.338 68.937 323.069C68.549 321.27 67.5258 319.647 66.0088 318.554L28.471 291" stroke="black" stroke-width="0.33" stroke-linecap="round" stroke-linejoin="round"/>
<path d="M166.803 358.526L166.45 358.244C165.921 357.82 165.215 357.644 164.51 357.75L157.454 358.843C156.819 358.949 156.254 359.267 155.866 359.761L149.833 370.098C149.516 370.486 149.339 370.944 149.304 371.438C149.657 371.121 150.115 370.909 150.574 370.838L157.63 369.745C158.3 369.639 159.006 369.815 159.57 370.239L165.356 374.684C166.027 375.213 166.415 376.025 166.344 376.907C166.45 376.801 166.556 376.695 166.662 376.554L170.084 370.697C170.719 369.639 170.401 368.263 169.378 367.557L168.002 366.64C167.226 366.111 166.838 365.158 167.014 364.241L167.685 360.819C167.896 359.972 167.544 359.09 166.803 358.526Z" fill="#D4ADD4"/>
<path d="M167.685 360.854C167.861 359.972 167.508 359.09 166.803 358.526L166.45 358.244C166.238 358.102 166.027 357.961 165.78 357.891L158.724 369.851C159.006 369.921 159.288 370.062 159.535 370.274L165.321 374.719C165.991 375.248 166.379 376.06 166.309 376.942C166.415 376.836 166.52 376.73 166.626 376.589L170.048 370.733C170.684 369.674 170.366 368.298 169.343 367.593L167.967 366.675C167.191 366.146 166.803 365.194 166.979 364.276L167.685 360.854Z" fill="#966696"/>
<path d="M165.357 374.719L159.571 370.274C159.007 369.851 158.337 369.674 157.631 369.78L150.575 370.874C150.081 370.944 149.658 371.156 149.305 371.474C149.234 372.32 149.587 373.132 150.258 373.661L155.973 378.141C156.537 378.565 157.243 378.777 157.949 378.635L165.075 377.471C165.534 377.401 165.992 377.189 166.345 376.871C166.416 376.06 166.028 375.249 165.357 374.719Z" fill="#6D4B6D" stroke="black" stroke-width="0.33" stroke-linecap="round" stroke-linejoin="round"/>
<path d="M151.809 372.567L157.454 371.685C157.913 371.615 158.371 371.72 158.724 372.003L163.734 375.813C164.228 376.201 164.404 376.871 164.122 377.436L162.887 379.976C162.534 380.681 161.758 381.034 160.982 380.858L149.869 378.212C148.987 378 148.422 377.083 148.634 376.201C148.704 375.989 148.775 375.778 148.916 375.566L150.715 373.167C151.033 372.849 151.386 372.638 151.809 372.567Z" fill="black" stroke="black" stroke-width="0.33" stroke-linecap="round" stroke-linejoin="round"/>
<path d="M159.5 368.863L165.18 358.702" stroke="black" stroke-width="0.33" stroke-linecap="round" stroke-linejoin="round"/>
<path d="M146.165 377.153L155.02 375.919C156.219 375.742 157.454 376.06 158.442 376.801L161.864 379.341C163.311 380.399 163.91 382.304 163.311 383.998L157.666 400.509C157.101 402.167 155.655 403.366 153.891 403.613L147.611 404.46C146.306 404.636 145.071 403.719 144.894 402.379C144.894 402.308 144.894 402.273 144.894 402.202L143.554 380.258C143.519 378.706 144.612 377.365 146.165 377.153Z" fill="#FF5A87"/>
<path d="M161.864 379.306L158.442 376.801C157.878 376.377 157.207 376.095 156.502 375.989L153.644 402.343L149.657 398.78C149.093 398.286 148.282 398.321 147.788 398.886C147.717 398.992 147.646 399.062 147.576 399.168L145.777 402.802L145.424 403.508C145.953 404.178 146.8 404.531 147.646 404.425L153.926 403.578C155.655 403.331 157.101 402.132 157.701 400.474L163.346 383.963C163.911 382.269 163.311 380.364 161.864 379.306Z" fill="#C9476A"/>
<path d="M156.326 377.506L153.645 402.308L149.658 398.745C149.093 398.251 148.282 398.286 147.788 398.851C147.718 398.957 147.647 399.027 147.576 399.133L145.777 402.767L146.73 400.862" stroke="black" stroke-width="0.33" stroke-linecap="round" stroke-linejoin="round"/>
<path d="M146.165 377.153L155.02 375.919C156.219 375.742 157.454 376.06 158.442 376.801L161.864 379.341C163.311 380.399 163.91 382.304 163.311 383.998L157.666 400.509C157.101 402.167 155.655 403.366 153.891 403.613L147.611 404.46C146.306 404.636 145.071 403.719 144.894 402.379C144.894 402.308 144.894 402.273 144.894 402.202L143.554 380.258C143.519 378.706 144.612 377.365 146.165 377.153Z" stroke="black" stroke-width="0.33" stroke-linecap="round" stroke-linejoin="round"/>
<path d="M157.736 372.391L156.007 375.39" stroke="#966696" stroke-width="0.33" stroke-linecap="round" stroke-linejoin="round"/>
<path d="M166.803 358.526L166.45 358.244C165.921 357.82 165.215 357.644 164.51 357.75L157.454 358.843C156.819 358.949 156.254 359.267 155.866 359.761L149.833 370.098C149.516 370.486 149.339 370.944 149.304 371.438C149.657 371.121 150.115 370.909 150.574 370.838L157.63 369.745C158.3 369.639 159.006 369.815 159.57 370.239L165.356 374.684C166.027 375.213 166.415 376.025 166.344 376.907C166.45 376.801 166.556 376.695 166.662 376.554L170.084 370.697C170.719 369.639 170.401 368.263 169.378 367.557L168.002 366.64C167.226 366.111 166.838 365.158 167.014 364.241L167.685 360.819C167.896 359.972 167.544 359.09 166.803 358.526Z" stroke="black" stroke-width="0.33" stroke-linecap="round" stroke-linejoin="round"/>
<path d="M172.166 376.377L167.685 375.319L175.623 365.299C176.011 364.77 176.681 364.559 177.316 364.735L172.871 377.153" fill="#6D4B6D"/>
<path d="M172.166 376.377L167.685 375.319L175.623 365.299C176.011 364.77 176.681 364.559 177.316 364.735L172.871 377.153" stroke="black" stroke-width="0.33" stroke-linecap="round" stroke-linejoin="round"/>
<path d="M242.938 335.135L238.88 345.261C238.104 347.236 238.281 349.494 239.41 351.293L262.518 388.231L279.17 378.741L255.25 340.639C254.792 339.898 254.686 338.981 254.968 338.169L261.071 320.812L242.938 335.135Z" fill="#FFE600" stroke="black" stroke-width="0.33" stroke-linecap="round" stroke-linejoin="round"/>
<path d="M246.359 332.419L241.491 345.754C240.997 347.095 241.173 348.612 241.914 349.812L265.093 386.75L276.418 380.293L252.71 342.65C251.969 341.45 251.792 339.969 252.251 338.628L257.578 323.528L246.359 332.419Z" fill="black" stroke="black" stroke-width="0.33" stroke-linecap="round" stroke-linejoin="round"/>
<path d="M252.287 338.663L257.614 323.563L246.395 332.419L241.491 345.755C241.28 346.319 241.209 346.919 241.209 347.519L252.04 340.463C252.005 339.863 252.075 339.228 252.287 338.663Z" fill="#6D4B6D" stroke="black" stroke-width="0.33" stroke-linecap="round" stroke-linejoin="round"/>
<path d="M246.219 349.212L249.783 346.919L250.206 347.624L248.689 350.447L251.053 348.93L251.511 349.635L247.913 351.928L247.489 351.258L248.971 348.436L246.607 349.917L246.219 349.212Z" fill="#FF5A87"/>
<path d="M249.781 354.786L250.24 354.222L249.358 352.846L248.652 353.022L248.229 352.316L252.639 351.329L253.027 351.928L250.275 355.492L249.781 354.786ZM251.757 352.281L250.063 352.669L250.698 353.657L251.757 352.281Z" fill="#FF5A87"/>
<path d="M251.51 354.857L252.145 355.492C251.933 355.668 251.792 355.844 251.686 356.091C251.616 356.303 251.686 356.515 251.827 356.691C251.933 356.868 252.074 357.009 252.215 357.079C252.357 357.15 252.498 357.115 252.639 357.044C252.78 356.973 252.85 356.832 252.85 356.656C252.815 356.338 252.78 356.021 252.674 355.703C252.568 355.351 252.533 354.998 252.604 354.645C252.674 354.398 252.85 354.151 253.062 354.01C253.344 353.834 253.662 353.798 253.979 353.869C254.332 353.975 254.65 354.222 254.861 354.574C255.073 354.892 255.179 355.245 255.179 355.598C255.179 355.95 255.003 356.303 254.756 356.515L254.156 355.95C254.438 355.703 254.438 355.28 254.226 354.962C254.156 354.821 254.015 354.716 253.874 354.645C253.768 354.61 253.627 354.61 253.521 354.68C253.415 354.751 253.344 354.857 253.38 354.998C253.415 355.315 253.486 355.633 253.556 355.95C253.662 356.303 253.697 356.691 253.627 357.044C253.556 357.326 253.38 357.538 253.133 357.679C252.85 357.891 252.462 357.926 252.11 357.82C251.721 357.679 251.404 357.432 251.192 357.079C250.945 356.726 250.839 356.303 250.875 355.88C250.91 355.456 251.157 355.104 251.51 354.857Z" fill="#FF5A87"/>
<path d="M252.428 358.879L256.027 356.585L256.803 357.785C256.944 357.997 257.015 358.208 257.05 358.42C257.156 358.914 257.015 359.443 256.697 359.831C256.486 360.078 256.274 360.29 255.992 360.466C255.709 360.643 255.392 360.784 255.039 360.889C254.792 360.96 254.51 360.96 254.263 360.889C254.051 360.819 253.84 360.713 253.663 360.572C253.487 360.431 253.31 360.254 253.205 360.043L252.428 358.879ZM253.487 359.161L253.804 359.655C253.875 359.761 253.945 359.866 254.051 359.937C254.157 360.007 254.263 360.078 254.369 360.113C254.545 360.149 254.686 360.113 254.827 360.078C255.039 360.007 255.251 359.902 255.463 359.761C255.78 359.584 256.027 359.302 256.203 358.984C256.309 358.737 256.274 358.455 256.098 358.208L255.78 357.714L253.487 359.161Z" fill="#FF5A87"/>
<path d="M255.815 364.206L256.273 363.641L255.391 362.265L254.686 362.442L254.262 361.736L258.672 360.748L259.06 361.348L256.308 364.911L255.815 364.206ZM257.79 361.666L256.097 362.054L256.732 363.041L257.79 361.666Z" fill="#FF5A87"/>
<path d="M258.037 367.875L258.143 367.346C257.79 367.205 257.473 366.958 257.261 366.64C257.12 366.429 257.05 366.217 256.979 366.005C256.873 365.511 257.014 364.982 257.367 364.559C257.579 364.276 257.861 364.065 258.143 363.853C258.425 363.677 258.708 363.536 259.025 363.465C259.272 363.394 259.554 363.394 259.837 363.465C260.084 363.5 260.295 363.606 260.507 363.747C260.895 364.03 261.177 364.418 261.248 364.911C261.283 365.158 261.283 365.37 261.248 365.617C261.177 365.864 261.071 366.111 260.895 366.323C260.683 366.57 260.472 366.781 260.189 366.958C259.766 367.24 259.272 367.416 258.778 367.416L258.672 367.981L258.037 367.875ZM258.567 365.405L259.131 365.547L258.884 366.64C259.166 366.57 259.413 366.429 259.66 366.287C259.978 366.111 260.26 365.829 260.401 365.476C260.577 365.017 260.366 364.523 259.907 364.347C259.801 364.312 259.731 364.276 259.625 364.276C259.237 364.276 258.884 364.382 258.567 364.594C258.214 364.77 257.931 365.088 257.755 365.441C257.649 365.688 257.685 366.005 257.826 366.252C257.932 366.429 258.073 366.534 258.249 366.64L258.567 365.405Z" fill="#FF5A87"/>
<path d="M260.048 369.321L260.683 368.898L263.788 368.828L264.458 369.886L262.2 371.332L262.483 371.756L261.848 372.179L261.565 371.756L260.895 372.179L260.472 371.509L261.142 371.085L260.048 369.321ZM261.142 369.604L261.812 370.662L263.576 369.533L261.142 369.604Z" fill="#FF5A87"/>
<path d="M263.541 372.849C263.4 372.638 263.33 372.356 263.435 372.073C263.541 371.756 263.788 371.474 264.07 371.332C264.317 371.156 264.67 371.05 264.988 371.121C265.235 371.156 265.482 371.332 265.623 371.544C265.764 371.756 265.799 372.038 265.729 372.32C265.658 372.638 265.446 372.885 265.164 373.061C264.882 373.238 264.564 373.343 264.212 373.308C263.929 373.202 263.682 373.061 263.541 372.849ZM264 372.179C263.929 372.285 263.929 372.426 264 372.532C264.07 372.638 264.212 372.708 264.353 372.708C264.529 372.673 264.705 372.638 264.847 372.532C265.199 372.285 265.305 372.073 265.164 371.826C265.023 371.579 264.741 371.579 264.388 371.826C264.212 371.897 264.07 372.003 264 372.179ZM261.671 373.731L267.422 373.555V374.084L261.671 374.261V373.731ZM263.471 376.307C263.33 376.095 263.259 375.813 263.365 375.531C263.471 375.213 263.718 374.931 264 374.79C264.247 374.613 264.6 374.508 264.882 374.578C265.411 374.649 265.764 375.143 265.658 375.672C265.658 375.707 265.658 375.742 265.623 375.742C265.552 376.06 265.34 376.307 265.058 376.483C264.776 376.66 264.458 376.766 264.106 376.73C263.859 376.695 263.612 376.554 263.471 376.307ZM263.929 375.637C263.859 375.742 263.859 375.884 263.929 375.989C264 376.095 264.141 376.166 264.282 376.166C264.458 376.13 264.635 376.095 264.776 375.989C265.129 375.742 265.235 375.531 265.094 375.284C264.952 375.037 264.67 375.037 264.317 375.284C264.141 375.354 264 375.495 263.929 375.637Z" fill="#FF5A87"/>
<path d="M266.682 380.329L270.104 380.435C270.315 380.435 270.492 380.293 270.492 380.082C270.492 380.011 270.456 379.941 270.421 379.87L268.34 376.624C268.234 376.448 267.987 376.413 267.81 376.519C267.74 376.554 267.705 376.624 267.669 376.695L266.329 379.835C266.258 380.011 266.329 380.258 266.54 380.329C266.611 380.329 266.646 380.329 266.682 380.329Z" fill="#FF5A87"/>
<path d="M250.417 329.808L250.558 330.019C250.382 330.161 250.205 330.302 250.064 330.443C249.958 330.549 249.853 330.69 249.817 330.796C249.782 330.901 249.817 330.972 249.888 330.972C250.064 330.937 250.205 330.866 250.346 330.76C250.523 330.655 250.699 330.513 250.876 330.337C250.982 330.231 251.087 330.09 251.158 329.949C251.229 329.773 251.158 329.702 250.911 329.773L251.299 329.279L253.063 328.291L252.64 329.384L252.005 329.773L252.287 328.961L251.511 329.384C251.546 329.384 251.546 329.384 251.581 329.384C251.617 329.384 251.617 329.42 251.652 329.455C251.652 329.526 251.652 329.596 251.617 329.631C251.511 329.878 251.334 330.125 251.123 330.302C250.84 330.584 250.523 330.831 250.17 331.043C249.923 331.219 249.641 331.36 249.323 331.431C249.147 331.431 249.112 331.325 249.182 331.078C249.288 330.831 249.429 330.584 249.641 330.408C249.853 330.266 250.135 330.019 250.417 329.808Z" fill="#FF5A87"/>
<path d="M248.758 333.265C248.511 333.336 248.405 333.23 248.511 332.983C248.688 332.63 248.899 332.348 249.182 332.101C249.64 331.678 250.169 331.29 250.699 330.972C251.087 330.69 251.51 330.478 251.969 330.337C252.216 330.302 252.322 330.372 252.216 330.619C252.075 330.937 251.828 331.254 251.545 331.501C251.087 331.889 250.628 332.277 250.134 332.595C249.711 332.842 249.252 333.089 248.758 333.265ZM249.534 332.066C249.358 332.207 249.217 332.348 249.146 332.56C249.111 332.701 249.146 332.736 249.323 332.665C249.676 332.524 249.993 332.348 250.275 332.136C250.593 331.925 250.91 331.713 251.193 331.466C251.369 331.325 251.475 331.184 251.581 331.007C251.616 330.866 251.581 330.831 251.404 330.866C251.087 331.007 250.805 331.148 250.558 331.325C250.205 331.572 249.887 331.819 249.534 332.066Z" fill="#FF5A87"/>
<path d="M248.124 335.065C247.877 335.135 247.771 335.029 247.877 334.782C248.054 334.43 248.265 334.147 248.548 333.9C249.006 333.477 249.535 333.089 250.065 332.771C250.453 332.489 250.876 332.277 251.335 332.136C251.582 332.101 251.688 332.172 251.582 332.419C251.441 332.771 251.194 333.054 250.911 333.301C250.488 333.689 249.994 334.077 249.5 334.394C249.077 334.641 248.618 334.888 248.124 335.065ZM248.9 333.9C248.724 334.041 248.583 334.183 248.512 334.394C248.477 334.535 248.512 334.571 248.689 334.5C249.042 334.359 249.359 334.183 249.641 333.971C249.959 333.759 250.276 333.548 250.559 333.301C250.735 333.159 250.841 333.018 250.947 332.842C250.982 332.701 250.947 332.666 250.77 332.736C250.453 332.877 250.171 333.018 249.924 333.195C249.571 333.371 249.218 333.618 248.9 333.9Z" fill="#FF5A87"/>
<path d="M247.276 336.511L247.805 336.194C248.017 336.052 248.264 335.911 248.511 335.841C248.652 335.841 248.758 335.876 248.864 335.982L248.899 336.017C248.934 336.052 248.97 336.088 248.97 336.088C249.005 336.088 249.04 336.123 249.076 336.123C249.146 336.123 249.181 336.123 249.217 336.088C249.287 336.052 249.358 336.017 249.428 335.947C249.569 335.876 249.675 335.77 249.781 335.629C249.887 335.523 249.958 335.417 249.993 335.312C250.063 335.1 249.887 335.135 249.428 335.382L249.64 334.959C249.887 334.782 250.169 334.677 250.451 334.606C250.628 334.606 250.663 334.712 250.557 334.959C250.451 335.241 250.275 335.453 250.063 335.664C249.781 335.947 249.499 336.158 249.181 336.37C249.076 336.441 248.934 336.511 248.793 336.582C248.723 336.617 248.617 336.652 248.511 336.652C248.441 336.652 248.405 336.652 248.335 336.652C248.299 336.652 248.264 336.617 248.229 336.582C248.194 336.546 248.123 336.476 248.052 336.441C248.017 336.441 247.982 336.441 247.947 336.441C247.841 336.476 247.77 336.511 247.7 336.582L247.347 337.605L246.677 338.028L247.276 336.511Z" fill="#FF5A87"/>
<path d="M248.053 337.781C248.159 337.57 248.265 337.393 248.441 337.252C248.688 337.005 249.006 336.793 249.288 336.582C249.5 336.441 249.711 336.299 249.994 336.264C250.135 336.264 250.17 336.299 250.135 336.441C250.029 336.652 249.923 336.793 249.747 336.97C249.5 337.217 249.253 337.428 248.97 337.605C248.759 337.746 248.512 337.887 248.23 337.958C248.053 337.958 247.983 337.887 248.053 337.781ZM248.723 337.217C248.618 337.287 248.547 337.358 248.512 337.464C248.477 337.534 248.512 337.534 248.618 337.499C248.759 337.428 248.9 337.358 249.041 337.287C249.394 337.04 249.605 336.864 249.676 336.723C249.747 336.582 249.57 336.617 249.217 336.864C249.006 336.97 248.865 337.076 248.723 337.217ZM246.324 338.769L249.958 337.534L249.641 337.887L246.007 339.122L246.324 338.769ZM245.901 340.216C246.007 340.004 246.113 339.827 246.289 339.686C246.536 339.439 246.854 339.228 247.136 339.016C247.348 338.875 247.594 338.734 247.841 338.698C247.983 338.698 248.018 338.734 247.983 338.875C247.877 339.087 247.771 339.228 247.594 339.404C247.348 339.651 247.101 339.863 246.818 340.039C246.607 340.216 246.36 340.321 246.077 340.392C245.901 340.392 245.831 340.357 245.901 340.216ZM246.571 339.651C246.466 339.722 246.395 339.792 246.36 339.898C246.324 339.969 246.36 339.969 246.466 339.933C246.607 339.863 246.748 339.792 246.889 339.722C247.242 339.51 247.453 339.298 247.524 339.157C247.594 339.016 247.418 339.087 247.065 339.298C246.889 339.439 246.713 339.545 246.571 339.651Z" fill="#FF5A87"/>
<path d="M248.301 340.357L246.254 340.921C246.007 341.027 245.831 341.168 245.69 341.415L245.02 343.285C244.949 343.426 245.231 343.32 245.478 343.108L248.195 340.639C248.406 340.462 248.442 340.321 248.301 340.357Z" fill="#FF5A87"/>
</g>
<defs>
<linearGradient id="paint0_linear" x1="0" y1="422.409" x2="320.529" y2="422.409" gradientUnits="userSpaceOnUse">
<stop offset="0.06" stop-color="#C9476A" stop-opacity="0"/>
<stop offset="0.2" stop-color="#C9476A"/>
<stop offset="0.81" stop-color="#C9476A"/>
<stop offset="0.94" stop-color="#C9476A" stop-opacity="0"/>
</linearGradient>
<linearGradient id="paint1_linear" x1="223.425" y1="363.924" x2="305.878" y2="331.795" gradientUnits="userSpaceOnUse">
<stop offset="0.22" stop-color="#D4ADD4" stop-opacity="0.99"/>
<stop offset="0.3" stop-color="#D4ADD4" stop-opacity="0.94"/>
<stop offset="0.44" stop-color="#D4ADD4" stop-opacity="0.79"/>
<stop offset="0.62" stop-color="#D4ADD4" stop-opacity="0.56"/>
<stop offset="0.84" stop-color="#D4ADD4" stop-opacity="0.25"/>
<stop offset="1" stop-color="#D4ADD4" stop-opacity="0"/>
</linearGradient>
<linearGradient id="paint2_linear" x1="55.107" y1="349.477" x2="23.7326" y2="333.199" gradientUnits="userSpaceOnUse">
<stop offset="0.22" stop-color="#D4ADD4"/>
<stop offset="0.24" stop-color="#D4ADD4" stop-opacity="0.97"/>
<stop offset="0.39" stop-color="#D4ADD4" stop-opacity="0.68"/>
<stop offset="0.54" stop-color="#D4ADD4" stop-opacity="0.43"/>
<stop offset="0.68" stop-color="#D4ADD4" stop-opacity="0.25"/>
<stop offset="0.81" stop-color="#D4ADD4" stop-opacity="0.11"/>
<stop offset="0.92" stop-color="#D4ADD4" stop-opacity="0.03"/>
<stop offset="1" stop-color="#D4ADD4" stop-opacity="0"/>
</linearGradient>
<clipPath id="clip0">
<rect width="322" height="540" rx="16" fill="white"/>
</clipPath>
</defs>
</svg>
