<svg width="322" height="540" viewBox="0 0 322 540" fill="none" xmlns="http://www.w3.org/2000/svg">
<g clip-path="url(#clip0)">
<rect width="322" height="540" rx="16" fill="#FF5A86"/>
<path d="M274.351 544.874L30.9573 404.713C29.1284 403.662 28 401.717 28 399.616V396.464L28.6615 396.931C29.1674 395.919 29.9845 395.102 30.9573 394.557L85.434 363.116L197.928 298.094" fill="#93344D"/>
<path d="M274.351 544.874L30.9573 404.713C29.1284 403.662 28 401.717 28 399.616V396.464L28.6615 396.931C29.1674 395.919 29.9845 395.102 30.9573 394.557L85.434 363.116L197.928 298.094" stroke="black" stroke-width="0.33" stroke-linejoin="round"/>
<path d="M339.801 466.583L279.838 544.757L238.942 521.449L163.531 477.945L161.741 476.895L83.5277 431.757L30.9577 401.406C28.156 399.771 27.1832 396.191 28.8175 393.351C29.3234 392.456 30.0627 391.716 30.9577 391.211L85.3954 359.77L192.403 297.978H336.222L339.801 466.583Z" fill="#C9476A" stroke="black" stroke-width="0.33" stroke-linejoin="round"/>
<path d="M259.331 509.659L238.903 521.449L83.5275 431.718L103.684 420.084C105.435 419.072 107.614 419.072 109.365 420.084L133.257 433.897C146.798 440.824 167.499 440.551 180.379 433.119L206.995 417.749L207.112 417.827L211.236 415.453L239.097 431.446L235.517 433.508L242.055 437.75L215.556 453.12C202.676 460.552 202.248 472.498 214.233 480.319L259.331 506.39C261.082 507.402 261.082 508.647 259.331 509.659Z" fill="url(#paint0_linear)"/>
<path d="M242.405 523.472L163.53 477.945L161.701 476.895L83.5275 431.757" fill="#C9476A"/>
<path d="M242.405 523.472L163.53 477.945L161.701 476.895L83.5275 431.757" stroke="black" stroke-width="0.33" stroke-linejoin="round"/>
<path d="M285.325 418.021C283.535 418.566 225.556 452.925 225.556 452.925L228.125 463.276L287.232 496.39L298.205 482.965L294.547 427.982L285.325 418.021Z" fill="#FFAEC4" stroke="black" stroke-width="0.33" stroke-linejoin="round"/>
<path d="M127.265 385.53L198.24 344.555L198.162 393.195L186.411 412.924L135.553 414.091L127.265 403.818V385.53Z" fill="#FFAEC4" stroke="black" stroke-width="0.33" stroke-linejoin="round"/>
<path d="M198.24 330.391V344.555L127.264 385.529L115.318 383.623L118.47 328.212L192.403 323.582L198.24 330.391Z" fill="white" stroke="black" stroke-width="0.33" stroke-linejoin="round"/>
<path d="M371.709 274.708L332.875 536.469L232.482 475.649C227.502 472.77 224.428 467.439 224.428 461.68V448.139C224.428 454.793 231.315 460.085 231.315 460.085L280.655 488.568C283.146 490.008 286.375 489.152 287.815 486.661C288.282 485.883 288.516 484.949 288.516 484.054V432.068C288.516 427.827 286.259 423.936 282.601 421.834L255.752 406.231L233.222 393.39C227.774 390.316 224.428 384.518 224.467 378.253V363.038V357.474L215.906 347.824L203.804 334.205L185.749 335.1C184.076 336.072 182.403 336.967 180.652 337.785C175.009 340.353 168.939 341.87 162.752 342.259C161.974 342.259 161.196 342.337 160.379 342.337C146.954 342.337 143.569 340.158 139.133 338.563C134.697 337.006 133.335 334.399 129.288 334.399C125.28 334.399 124.58 339.769 124.58 339.769V388.876C124.58 398.721 128.821 400.783 128.821 400.783L135.592 405.024C135.592 405.024 144.736 410.511 158.978 410.511C160.301 410.511 161.546 410.511 162.752 410.394C174.776 409.616 182.053 405.491 182.053 405.491L200.73 394.752L198.123 393.234L198.279 347.979V342.415L211.82 350.197C211.82 350.197 209.913 350.898 208.513 353.894C207.384 356.54 206.839 359.381 206.956 362.26V412.923L200.886 409.344L185.321 418.332C169.173 427.671 149.289 427.671 133.179 418.332L101.816 400.199V270L371.709 274.708Z" fill="#FF5A86"/>
<path d="M198.318 342.376L211.859 350.158C211.859 350.158 209.953 350.859 208.552 353.855L198.318 347.941V342.376Z" fill="#5C2131"/>
<path d="M256.374 367.124C256.413 368.992 256.063 370.86 255.363 372.611C254.818 373.934 253.884 375.062 252.678 375.841C250.771 376.93 248.32 376.852 245.635 375.296L224.544 363.116V357.513L215.984 347.863L203.843 334.244L185.788 335.139C185.71 335.178 185.594 335.255 185.477 335.333L185.205 335.489L184.037 336.15C183.142 336.617 182.053 337.201 180.691 337.824L162.791 327.473L157.811 324.594C151.857 321.169 147.032 311.947 147.032 304.009C147.032 303.387 147.032 302.803 147.11 302.219C147.227 300.935 147.499 299.69 148.005 298.484C148.55 297.161 149.483 296.032 150.69 295.254C152.596 294.164 155.048 294.281 157.733 295.838L192.87 316.15L215.945 329.458L245.557 346.579C251.044 349.77 255.596 357.863 256.297 365.373C256.336 365.918 256.374 366.502 256.374 367.124Z" fill="#C9476A"/>
<path d="M198.318 342.376L211.859 350.158C211.859 350.158 206.995 351.948 206.995 362.221V412.923L200.925 409.343L185.36 418.332C178.473 422.301 170.768 424.675 162.791 425.22V410.394C174.815 409.616 182.092 405.491 182.092 405.491L200.769 394.752L198.162 393.234L198.318 342.376Z" fill="#C9476A"/>
<path d="M198.162 366.19L224.272 381.249L224.505 357.435L198.24 342.337L198.162 366.19Z" fill="#5C2131"/>
<path d="M215.945 322.414V347.824L203.843 334.244L185.788 335.138C185.71 335.177 185.594 335.255 185.477 335.333L185.205 335.489L184.037 336.15C183.142 336.617 182.053 337.201 180.691 337.823C175.049 340.392 168.978 341.909 162.791 342.298V307.9L192.909 316.111L204.777 319.34L215.945 322.414Z" fill="#C9476A"/>
<path d="M256.375 363.505C256.375 364.089 256.336 364.711 256.297 365.295C256.18 366.579 255.908 367.824 255.402 369.031C254.857 370.354 253.923 371.482 252.717 372.26C250.81 373.35 248.359 373.272 245.674 371.716L224.584 359.536V357.513L216.023 347.863L203.883 334.243L185.827 335.138C185.75 335.177 185.633 335.255 185.516 335.333L185.244 335.489C181.119 337.901 176.683 339.73 172.053 340.858L171.508 336.812C170.769 331.364 167.539 326.539 162.792 323.776L157.811 320.897C152.324 317.706 147.772 309.612 147.071 302.102C147.032 301.48 146.993 300.857 146.993 300.312C146.954 298.444 147.344 296.577 148.044 294.865C148.589 293.542 149.523 292.413 150.729 291.635C152.636 290.545 155.087 290.623 157.772 292.219L204.778 319.34L215.984 325.8L245.596 342.921C251.55 346.345 256.375 355.567 256.375 363.505Z" fill="#5C2131"/>
<path d="M135.125 419.5L101.777 400.238V301.752" stroke="black" stroke-width="0.33" stroke-linejoin="round"/>
<path d="M200.769 409.383V394.713" stroke="black" stroke-width="0.33" stroke-linejoin="round"/>
<path d="M243.923 428.761V399.421L242.055 398.332V429.812L243.923 428.761Z" fill="#FFCAD8" stroke="black" stroke-width="0.33" stroke-linejoin="round"/>
<path d="M214.467 348.602L212.599 349.692" stroke="black" stroke-width="0.33" stroke-linejoin="round"/>
<path d="M209.486 416.542L206.956 415.103V362.844C206.956 356.268 209.135 351.676 212.56 349.692L215.634 352.377C215.634 352.377 209.447 353.466 209.447 362.727V416.542" fill="#FF92AF"/>
<path d="M209.486 416.542L206.956 415.103V362.844C206.956 356.268 209.135 351.676 212.56 349.692L215.634 352.377C215.634 352.377 209.447 353.466 209.447 362.727V416.542" stroke="black" stroke-width="0.33" stroke-linejoin="round"/>
<path d="M242.054 429.811V398.332L239.525 396.892V431.29L242.054 429.811Z" fill="#FF92AF" stroke="black" stroke-width="0.33" stroke-linejoin="round"/>
<path d="M239.526 396.853V431.29L239.059 431.562L227.23 424.714L211.354 415.453V361.638C211.354 360.354 211.471 359.031 211.743 357.785C212.794 353.116 215.634 352.416 215.634 352.416L224.506 357.474V380.315C224.506 381.055 224.584 381.755 224.74 382.495C225.323 384.907 226.491 387.164 228.164 388.993C229.993 391.055 232.133 392.806 234.545 394.129L239.526 396.853Z" fill="#FFAEC4" stroke="black" stroke-width="0.33" stroke-linejoin="round"/>
<path opacity="0.5" d="M239.526 396.853V431.29L239.059 431.562L227.23 424.714L211.354 415.453V361.638C211.354 360.354 211.471 359.031 211.743 357.785C212.794 353.116 215.634 352.416 215.634 352.416L224.506 357.474V380.315C224.506 381.055 224.584 381.755 224.74 382.495C225.323 384.907 226.491 387.164 228.164 388.993C229.993 391.055 232.133 392.806 234.545 394.129L239.526 396.853Z" fill="white"/>
<path d="M239.525 410.55V431.251L239.058 431.524L227.229 424.714L211.314 394.479V361.638C211.314 360.354 211.431 359.031 211.703 357.786L224.661 382.456C225.245 384.868 226.412 387.125 228.085 388.954L239.525 410.55Z" fill="white"/>
<path d="M239.526 396.853V431.29L239.059 431.562L227.23 424.714L211.354 415.453V361.638C211.354 360.354 211.471 359.031 211.743 357.785C212.794 353.116 215.634 352.416 215.634 352.416L224.506 357.474V380.315C224.506 381.055 224.584 381.755 224.74 382.495C225.323 384.907 226.491 387.164 228.164 388.993C229.993 391.055 232.133 392.806 234.545 394.129L239.526 396.853Z" stroke="black" stroke-width="0.33" stroke-linejoin="round"/>
<path d="M209.486 416.542V362.727C209.486 353.233 216.217 349.38 224.506 354.167" stroke="black" stroke-width="0.33" stroke-linejoin="round"/>
<path d="M209.486 416.542V362.727C209.486 357.435 211.587 353.894 214.856 352.649C212.676 354.4 211.392 357.474 211.392 361.637V415.453L209.486 416.542Z" fill="#C9476A" stroke="black" stroke-width="0.33" stroke-linejoin="round"/>
<path d="M224.428 333.466V379.81" stroke="black" stroke-width="0.33" stroke-linejoin="round"/>
<path d="M224.428 448.139V462.887C224.428 467.945 227.774 473.043 234.506 476.934L288.516 509.62" stroke="black" stroke-width="0.33" stroke-linejoin="round"/>
<path d="M129.988 416.582L134.93 419.422C148.355 427.166 169.99 427.204 183.297 419.5L200.73 409.422" stroke="black" stroke-width="0.33" stroke-linejoin="round"/>
<path d="M224.428 379.81C224.35 384.946 227.735 390.082 234.506 394.012L254.351 405.491L275.83 417.865L281.901 421.367L282.251 421.562C285.247 423.274 287.387 426.193 288.204 429.539V429.617C288.438 430.551 288.516 431.485 288.516 432.418V484.132C288.516 485.494 288.01 486.817 287.037 487.79" stroke="black" stroke-width="0.33" stroke-linejoin="round"/>
<path d="M200.77 326.54L183.337 336.579C170.029 344.244 148.355 344.244 134.969 336.501" stroke="black" stroke-width="0.33" stroke-linejoin="round"/>
<path d="M206.956 412.924L200.769 409.305V394.713" stroke="black" stroke-width="0.33" stroke-linejoin="round"/>
<path d="M200.769 394.713V409.461" stroke="black" stroke-width="0.33" stroke-linejoin="round"/>
<path d="M254.39 405.453V425.726" stroke="black" stroke-width="0.33" stroke-linejoin="round"/>
<path d="M254.39 425.725V405.491L282.64 421.873L252.561 440.045L235.167 450.084C233.261 451.174 231.471 452.536 229.953 454.131C228.863 452.302 228.28 450.279 228.163 448.178C228.163 445.065 230.264 439.734 234.35 437.36C238.436 434.909 254.39 425.725 254.39 425.725Z" fill="white" stroke="black" stroke-width="0.33" stroke-linejoin="round"/>
<path d="M127.265 385.53L198.279 344.555" stroke="black" stroke-width="0.33" stroke-linejoin="round"/>
<path d="M161.585 397.398L201.859 374.129C202.793 373.701 203.416 372.806 203.494 371.794C203.494 370.744 202.715 369.615 201.198 368.759L186.8 360.432C184.038 358.837 179.835 358.642 177.461 360.043L137.188 383.312C136.254 383.74 135.631 384.635 135.553 385.647C135.553 386.698 136.332 387.826 137.849 388.682L152.247 397.009C155.009 398.644 159.212 398.799 161.585 397.398Z" fill="#C9476A"/>
<path d="M154.543 379.343L141.818 371.989C141.274 371.599 140.573 371.522 139.99 371.794L137.305 373.35C137.305 373.35 139.25 372.728 137.772 375.024V388.293L140.457 386.736V375.101C140.457 374.206 152.519 381.872 152.519 381.872C153.336 382.417 153.842 383.312 153.92 384.285L154.465 397.943L157.15 396.386V383.779C156.994 381.989 156.06 380.355 154.543 379.343Z" fill="#FF92AF" stroke="black" stroke-width="0.33" stroke-linejoin="round"/>
<path d="M154.425 385.413V397.982L153.219 397.282V384.713C153.18 383.74 152.635 382.845 151.818 382.339L139.094 374.985C138.316 374.557 137.732 374.907 137.732 375.763V388.332L136.526 387.631V375.063C136.448 374.401 136.759 373.779 137.265 373.39C137.849 373.117 138.588 373.156 139.094 373.584L151.818 380.939C153.336 381.911 154.309 383.585 154.425 385.413Z" fill="#FF5A86" stroke="black" stroke-width="0.33" stroke-linejoin="round"/>
<path d="M181.858 366.657L169.134 359.303C168.589 358.914 167.889 358.836 167.305 359.108L164.62 360.665C164.62 360.665 166.566 360.003 165.087 362.299V375.568L167.772 374.012V362.377C167.772 361.482 179.835 369.148 179.835 369.148C180.652 369.692 181.158 370.548 181.197 371.521L181.742 385.179L184.427 383.623V371.054C184.349 369.342 183.376 367.669 181.858 366.657Z" fill="#FF92AF" stroke="black" stroke-width="0.33" stroke-linejoin="round"/>
<path d="M181.742 372.689V385.258L180.536 384.557V372.028C180.497 371.055 179.952 370.16 179.135 369.654L166.411 362.3C165.632 361.872 165.049 362.222 165.049 363.078V375.646L163.842 374.946V362.416C163.765 361.755 164.076 361.132 164.582 360.743C165.165 360.471 165.905 360.51 166.411 360.938L179.135 368.214C180.691 369.226 181.625 370.86 181.742 372.689Z" fill="#FF5A86" stroke="black" stroke-width="0.33" stroke-linejoin="round"/>
<path d="M202.715 354.245C202.287 353.739 201.743 353.35 201.159 353L186.761 344.672C183.999 343.077 179.796 342.882 177.423 344.283L137.227 367.475L135.553 367.825V369.848C135.553 370.899 136.332 372.027 137.849 372.884L152.247 381.211C155.009 382.806 159.212 383.001 161.585 381.6L201.859 358.33C202.793 357.902 203.416 357.007 203.494 355.996V353.972L202.715 354.245Z" fill="#FF5A86" stroke="black" stroke-width="0.33" stroke-linejoin="round"/>
<path d="M161.585 379.654L201.859 356.385C202.793 355.957 203.416 355.062 203.494 354.05C203.494 352.999 202.715 351.871 201.198 350.976L186.8 342.649C184.038 341.053 179.835 340.859 177.461 342.26L137.188 365.529C136.254 365.957 135.631 366.852 135.553 367.864C135.553 368.914 136.332 370.043 137.849 370.899L152.247 379.226C155.009 380.86 159.212 381.016 161.585 379.654Z" fill="#FFAEC4" stroke="black" stroke-width="0.33" stroke-linejoin="round"/>
<path d="M106.175 384.907L101.817 382.378V379.849L97.6532 382.261L99.6377 386.386V398.954L107.965 403.741L109.482 406.892L111.467 405.764V394.908C111.428 391.055 109.093 386.58 106.175 384.907Z" fill="#FFCAD8" stroke="black" stroke-width="0.33" stroke-linecap="round" stroke-linejoin="round"/>
<path d="M109.444 406.853L97.6532 400.083V382.261L104.229 386.035C107.109 387.709 109.444 392.184 109.444 396.036V406.853Z" fill="#C9476A" stroke="black" stroke-width="0.33" stroke-linejoin="round"/>
<path d="M200.73 394.713L198.162 393.234L198.279 328.212" stroke="black" stroke-width="0.33" stroke-linejoin="round"/>
<path d="M256.336 355.918C256.336 356.58 256.297 357.28 256.219 357.942C255.83 361.21 254.507 363.545 252.639 364.634L247.814 367.436C246.257 368.292 244.39 368.409 242.755 367.786C242.055 367.553 241.393 367.241 240.771 366.891L152.908 316.15C149.912 314.438 147.227 311.247 145.281 307.551C143.297 303.854 142.207 299.768 142.129 295.566C142.129 291.208 143.569 288.172 145.865 286.849L150.729 284.048C152.635 282.958 155.087 283.075 157.772 284.631L245.596 335.334C248.553 337.046 251.277 340.237 253.223 343.933C254.157 345.723 254.896 347.63 255.441 349.575C256.024 351.599 256.336 353.739 256.336 355.918Z" fill="#FF92AF" stroke="black" stroke-width="0.33" stroke-linejoin="round"/>
<path d="M256.335 355.918C256.335 356.579 256.296 357.28 256.219 357.941C255.83 361.21 254.507 363.545 252.639 364.634L247.814 367.436C246.257 368.292 244.389 368.409 242.755 367.786L243.027 366.229L250.693 352.299L255.401 349.575H255.44C256.024 351.599 256.335 353.739 256.335 355.918Z" fill="#FFCAD8"/>
<path d="M247.814 367.435L252.639 364.634C254.935 363.311 256.375 360.276 256.375 355.917C256.375 347.979 251.55 338.757 245.596 335.333L157.733 284.592C155.048 283.035 152.558 282.919 150.69 284.008L145.826 286.771" stroke="black" stroke-width="0.33" stroke-linejoin="round"/>
<path d="M247.814 367.436C245.907 368.525 243.456 368.409 240.771 366.852L152.908 316.15C146.954 312.687 142.129 303.465 142.129 295.566C142.129 291.207 143.569 288.172 145.865 286.849C147.771 285.76 150.223 285.838 152.908 287.394L240.732 338.135C246.685 341.559 251.511 350.782 251.511 358.72C251.511 363.039 250.071 366.113 247.814 367.436Z" fill="#FF5A86" stroke="black" stroke-width="0.33" stroke-linejoin="round"/>
<path d="M248.125 356.735C248.125 359.303 247.464 361.287 246.413 362.455C245.051 363.972 243.028 364.245 240.732 362.922L152.908 312.258C148.822 309.924 145.515 303.309 145.515 297.511C145.515 293.503 147.11 290.935 149.406 290.507C150.612 290.351 151.857 290.623 152.908 291.285L240.732 341.987C244.779 344.361 248.125 350.976 248.125 356.735Z" fill="#FFAEC4" stroke="black" stroke-width="0.33" stroke-linejoin="round"/>
<path d="M248.125 356.735C248.125 359.303 247.463 361.287 246.413 362.455C245.206 362.61 243.961 362.338 242.911 361.676L155.087 310.974C151.001 308.64 147.693 302.024 147.693 296.227C147.693 293.658 148.355 291.674 149.405 290.507C150.612 290.351 151.857 290.623 152.907 291.285L240.732 341.987C244.778 344.361 248.125 350.976 248.125 356.735Z" fill="white" stroke="black" stroke-width="0.33" stroke-linejoin="round"/>
<path opacity="0.5" d="M215.478 380.743C215.945 380.743 216.45 380.86 216.84 381.093C217.696 381.56 218.24 382.494 218.201 383.467V389.498C218.201 391.794 216.995 393.896 214.972 395.063C214.505 395.335 214.155 395.063 213.843 394.557C213.571 394.051 213.454 393.623 213.96 393.351C215.322 392.573 216.178 391.094 216.178 389.537V383.545C216.178 383.117 215.828 382.806 215.439 382.806C215.322 382.806 215.166 382.845 215.089 382.883H215.011C214.544 383.156 214.155 382.883 213.882 382.339C213.61 381.794 213.493 381.444 213.999 381.132L214.077 381.093C214.544 380.86 215.011 380.743 215.478 380.743Z" fill="#FFAEC4" stroke="black" stroke-width="0.33" stroke-linejoin="round"/>
<path d="M213.105 395.686C211.587 395.686 210.381 394.44 210.342 392.923V386.93C210.342 384.635 211.548 382.494 213.572 381.366C214.039 381.094 214.389 381.366 214.7 381.872C214.973 382.378 215.089 382.806 214.583 383.078C213.222 383.856 212.365 385.335 212.365 386.892V392.884C212.365 393.156 212.521 393.39 212.716 393.545C212.949 393.701 213.222 393.701 213.455 393.545H213.533C214 393.273 214.389 393.545 214.661 394.051C214.934 394.557 215.011 394.985 214.545 395.258H214.467C214.039 395.53 213.572 395.686 213.105 395.686Z" fill="#FF5A86" stroke="black" stroke-width="0.33" stroke-linejoin="round"/>
<path d="M130.961 402.339C127.031 400.083 124.619 395.919 124.619 391.405V371.288C124.619 371.288 113.334 395.763 113.957 395.219C114.579 394.674 127.187 407.398 127.187 407.398L130.961 402.339Z" fill="#FF5A86"/>
<path d="M128.705 334.633C127.693 335.606 127.148 336.929 127.148 338.33V340.003L127.187 389.927C127.187 394.441 128.471 397.709 133.53 400.861L138.9 403.974C150.924 410.083 169.251 409.889 180.691 403.312L198.124 393.234L200.731 394.752L183.298 404.83C169.99 412.496 148.316 412.496 134.931 404.752L130.962 402.417C127.032 400.161 124.619 395.997 124.619 391.483V339.808C124.619 337.318 126.331 335.139 128.783 334.594" fill="#FFCAD8"/>
<path d="M128.705 334.633C127.693 335.606 127.148 336.929 127.148 338.33V340.003L127.187 389.927C127.187 394.441 128.471 397.709 133.53 400.861L138.9 403.974C150.924 410.083 169.251 409.889 180.691 403.312L198.124 393.234L200.731 394.752L183.298 404.83C169.99 412.496 148.316 412.496 134.931 404.752L130.962 402.417C127.032 400.161 124.619 395.997 124.619 391.483V339.808C124.619 337.318 126.331 335.139 128.783 334.594" stroke="black" stroke-width="0.33" stroke-linecap="round" stroke-linejoin="round"/>
<path d="M124.619 339.808C124.619 336.851 127.032 334.438 130.028 334.477C130.962 334.477 131.896 334.711 132.674 335.178L135.009 336.501" stroke="black" stroke-width="0.33" stroke-linejoin="round"/>
<path d="M287.037 487.829C286.687 488.218 286.259 488.53 285.831 488.763C284.197 489.697 282.173 489.697 280.539 488.763L266.414 480.592L234.545 462.147C227.813 458.256 224.467 453.198 224.467 448.1C224.467 443.003 227.774 438.061 234.389 434.209L251.666 424.247L254.429 425.687L237.035 435.765L236.919 435.843L234.856 437.049C232.444 438.411 230.537 440.551 229.448 443.119C227.735 446.271 227.735 450.085 229.448 453.236C230.537 455.805 232.444 457.945 234.856 459.307L235.751 459.851C236.179 460.124 236.646 460.396 237.113 460.708L280.033 485.494L283.068 487.284C283.302 487.401 283.496 487.518 283.73 487.596C284.78 488.024 285.948 488.102 287.037 487.829Z" fill="#FFCAD8" stroke="black" stroke-width="0.33" stroke-linecap="round" stroke-linejoin="round"/>
<path d="M280.617 488.763H280.539" stroke="black" stroke-width="0.33" stroke-linejoin="round"/>
<path d="M287.193 487.79H287.037" stroke="black" stroke-width="0.33" stroke-linejoin="round"/>
<path d="M243.923 399.421V428.761L251.627 424.286L254.39 425.726V405.452L243.923 399.421Z" fill="#5C2131" stroke="black" stroke-width="0.33" stroke-linecap="round" stroke-linejoin="round"/>
<path d="M283.107 470.007L329.568 443.197C330.618 442.73 331.358 441.679 331.435 440.512C331.435 439.306 330.54 437.983 328.75 436.971L312.213 427.36C309.022 425.531 304.158 425.336 301.434 426.932L254.973 453.781C253.923 454.287 253.184 455.298 253.106 456.466C253.106 457.672 254.001 458.995 255.752 459.968L272.367 469.579C275.558 471.408 280.344 471.603 283.107 470.007Z" fill="#C9476A"/>
<path d="M274.974 449.189L260.344 440.668C259.721 440.201 258.904 440.123 258.242 440.434L255.09 442.224C255.09 442.224 257.347 441.485 255.635 444.131V459.462L258.748 457.672V444.248C258.748 443.236 272.679 452.069 272.679 452.069C273.613 452.691 274.196 453.703 274.274 454.832L274.897 470.591L278.01 468.801V454.326C277.893 452.225 276.764 450.318 274.974 449.189Z" fill="#FF92AF" stroke="black" stroke-width="0.33" stroke-linejoin="round"/>
<path d="M274.858 456.155V470.669L273.457 469.852V455.338C273.379 454.209 272.795 453.198 271.861 452.575L257.192 444.092C256.297 443.586 255.596 443.975 255.596 444.987V459.54L254.195 458.723V444.248C254.118 443.508 254.468 442.769 255.09 442.341C255.791 442.03 256.608 442.108 257.231 442.575L271.9 451.057C273.612 452.186 274.702 454.092 274.858 456.155Z" fill="#FF5A86" stroke="black" stroke-width="0.33" stroke-linejoin="round"/>
<path d="M306.493 434.558L291.823 426.076C291.201 425.609 290.383 425.531 289.683 425.842L286.57 427.632C286.57 427.632 288.827 426.893 287.115 429.539V444.831L290.228 443.041V429.617C290.228 428.605 304.158 437.438 304.158 437.438C305.092 438.06 305.676 439.072 305.754 440.201L306.376 455.96L309.489 454.17V439.734C309.411 437.671 308.283 435.726 306.493 434.558Z" fill="#FF92AF" stroke="black" stroke-width="0.33" stroke-linejoin="round"/>
<path d="M306.376 441.562V456.076L304.975 455.259V440.745C304.897 439.617 304.313 438.605 303.379 437.982L288.71 429.5C287.815 428.994 287.114 429.383 287.114 430.395V444.909L285.713 444.092V429.616C285.636 428.877 285.986 428.138 286.608 427.71C287.309 427.398 288.126 427.476 288.748 427.904L303.418 436.387C305.169 437.515 306.259 439.461 306.376 441.562Z" fill="#FFE600" stroke="black" stroke-width="0.33" stroke-linejoin="round"/>
<path d="M330.579 420.239C330.073 419.655 329.451 419.188 328.789 418.799L312.213 409.188C309.022 407.359 304.158 407.164 301.434 408.76L255.051 435.531L253.106 435.959V438.294C253.106 439.5 254.001 440.823 255.752 441.835L272.328 451.446C275.519 453.275 280.383 453.47 283.107 451.874L329.568 425.025C330.618 424.519 331.358 423.507 331.435 422.34V420.005L330.579 420.239Z" fill="#FF5A86" stroke="black" stroke-width="0.33" stroke-linejoin="round"/>
<path d="M283.107 449.54L329.568 422.691C330.619 422.224 331.358 421.173 331.436 420.006C331.436 418.799 330.541 417.476 328.751 416.465L312.213 406.892C309.023 405.064 304.159 404.869 301.435 406.464L254.974 433.314C253.923 433.781 253.184 434.831 253.106 435.998C253.106 437.205 254.001 438.528 255.752 439.539L272.368 449.151C275.558 450.941 280.345 451.135 283.107 449.54Z" fill="#FFAEC4" stroke="black" stroke-width="0.33" stroke-linejoin="round"/>
<path d="M262.288 439.656C264.609 439.656 266.491 438.89 266.491 437.944C266.491 436.999 264.609 436.232 262.288 436.232C259.967 436.232 258.086 436.999 258.086 437.944C258.086 438.89 259.967 439.656 262.288 439.656Z" fill="black" stroke="black" stroke-width="0.33" stroke-linecap="round" stroke-linejoin="round"/>
<path fill-rule="evenodd" clip-rule="evenodd" d="M259.565 437.633C259.798 438.217 260.265 438.723 260.966 438.995C261.199 439.112 261.472 439.19 261.705 439.229C262.172 439.306 262.678 439.384 263.184 439.345C264.001 439.345 264.779 439.229 265.402 438.956C266.063 438.684 266.569 438.178 266.764 437.594C267.036 436.777 267.308 435.921 267.581 435.104C267.853 434.287 268.126 433.353 268.398 432.497C266.647 432.497 264.896 432.614 263.145 432.614C261.394 432.614 259.604 432.458 257.814 432.458C258.086 433.275 258.436 434.287 258.709 435.104L259.565 437.633Z" fill="#BD8682" stroke="black" stroke-width="0.33" stroke-linecap="round" stroke-linejoin="round"/>
<path fill-rule="evenodd" clip-rule="evenodd" d="M263.106 427.283C259.993 427.283 257.502 429.189 257.502 431.563C257.502 434.948 268.748 435.026 268.748 431.563C268.748 429.189 266.219 427.283 263.106 427.283Z" fill="#FF5A87" stroke="black" stroke-width="0.33" stroke-linecap="round" stroke-linejoin="round"/>
<path fill-rule="evenodd" clip-rule="evenodd" d="M263.106 428.372C266.18 428.489 268.67 429.656 268.67 431.018C268.67 432.38 266.18 433.392 263.106 433.275C260.031 433.158 257.541 431.991 257.541 430.629C257.541 429.267 260.031 428.255 263.106 428.372Z" fill="#F8D5D3" stroke="black" stroke-width="0.33" stroke-linecap="round" stroke-linejoin="round"/>
<path fill-rule="evenodd" clip-rule="evenodd" d="M264.195 427.127C266.958 427.71 268.786 429.423 268.281 430.901C267.775 432.38 265.129 433.119 262.366 432.497C259.603 431.874 257.774 430.201 258.28 428.722C258.747 427.243 261.432 426.543 264.195 427.127Z" fill="#F8D5D3" stroke="black" stroke-width="0.33" stroke-linecap="round" stroke-linejoin="round"/>
<path fill-rule="evenodd" clip-rule="evenodd" d="M264.429 426.154C266.841 426.738 268.437 428.256 268.009 429.54C267.581 430.824 265.285 431.369 262.911 430.746C260.499 430.162 258.903 428.645 259.331 427.361C259.759 426.115 262.055 425.571 264.429 426.154Z" fill="#F8D5D3" stroke="black" stroke-width="0.33" stroke-linecap="round" stroke-linejoin="round"/>
<path fill-rule="evenodd" clip-rule="evenodd" d="M263.962 425.687C265.986 426.154 267.386 427.282 267.153 428.255C266.881 429.228 265.052 429.656 263.028 429.189C261.005 428.722 259.604 427.594 259.838 426.621C260.11 425.648 261.939 425.22 263.962 425.687Z" fill="#F8D5D3" stroke="black" stroke-width="0.33" stroke-linecap="round" stroke-linejoin="round"/>
<path d="M260.926 426.154C260.888 426.543 262.055 427.36 262.95 427.36C263.845 427.36 264.312 427.244 264.312 426.855C264.312 426.465 262.639 426.893 262.678 426.154C262.755 424.442 261.004 425.648 260.926 426.154Z" fill="black" stroke="black" stroke-width="0.33" stroke-linecap="round" stroke-linejoin="round"/>
<path fill-rule="evenodd" clip-rule="evenodd" d="M263.65 424.559C263.067 424.597 262.405 424.403 261.899 425.026C261.393 425.648 261.238 427.438 263.806 427.438C266.374 427.438 266.452 425.454 265.596 424.753C264.74 424.092 264.117 424.52 263.65 424.559Z" fill="#FF5A87" stroke="black" stroke-width="0.33" stroke-linecap="round" stroke-linejoin="round"/>
<path d="M263.611 424.792C263.611 424.831 263.689 424.909 263.767 424.87C263.845 424.87 263.884 424.792 263.845 424.714C263.728 422.924 263.961 421.874 264.195 419.773C264.195 419.539 263.611 419.422 263.65 419.773C263.689 421.096 263.066 422.535 263.611 424.792Z" fill="#FFE600" stroke="black" stroke-width="0.33" stroke-linecap="round" stroke-linejoin="round"/>
<path d="M282.174 437.049C282.135 436.543 281.823 436.115 281.356 435.921C280.15 435.298 278.71 435.298 277.504 435.921C277.076 436.115 276.765 436.543 276.726 437.049V437.127L277.193 444.287C277.232 444.676 277.504 445.026 277.854 445.182C278.866 445.688 280.072 445.688 281.084 445.182C281.434 445.026 281.707 444.676 281.746 444.287L282.213 437.127C282.174 437.088 282.174 437.049 282.174 437.049Z" fill="white" stroke="black" stroke-width="0.33" stroke-linejoin="round"/>
<path d="M277.659 440.473L277.893 443.781C277.932 444.053 278.087 444.325 278.36 444.442C279.06 444.792 279.877 444.792 280.578 444.442C280.85 444.325 281.006 444.092 281.045 443.781L281.278 440.473" fill="#FF92AF"/>
<path d="M277.659 440.473L277.893 443.781C277.932 444.053 278.087 444.325 278.36 444.442C279.06 444.792 279.877 444.792 280.578 444.442C280.85 444.325 281.006 444.092 281.045 443.781L281.278 440.473" stroke="black" stroke-width="0.33" stroke-linejoin="round"/>
<path d="M281.201 440.668C281.162 440.745 281.162 440.784 281.084 440.862C280.967 441.018 280.85 441.096 280.695 441.212C279.917 441.602 278.944 441.602 278.166 441.212C278.01 441.135 277.893 441.018 277.776 440.862C277.738 440.823 277.699 440.745 277.66 440.668C277.543 440.317 277.66 439.967 278.127 439.773C278.905 439.384 279.878 439.384 280.656 439.773C281.162 439.967 281.317 440.317 281.201 440.668Z" fill="#FFE600" stroke="black" stroke-width="0.33" stroke-linejoin="round"/>
<path d="M166.877 367.747C169.155 367.747 171.002 366.981 171.002 366.035C171.002 365.089 169.155 364.323 166.877 364.323C164.599 364.323 162.752 365.089 162.752 366.035C162.752 366.981 164.599 367.747 166.877 367.747Z" fill="black" stroke="black" stroke-width="0.33" stroke-linecap="round" stroke-linejoin="round"/>
<path fill-rule="evenodd" clip-rule="evenodd" d="M163.958 365.801C164.192 366.385 164.659 366.891 165.359 367.163C165.593 367.28 165.865 367.358 166.099 367.397C166.565 367.475 167.071 367.552 167.577 367.514C168.394 367.514 169.173 367.397 169.795 367.124C170.457 366.852 170.963 366.346 171.157 365.763C171.429 364.945 171.702 364.089 171.974 363.272C172.247 362.455 172.519 361.521 172.791 360.665C171.04 360.665 169.289 360.782 167.538 360.782C165.787 360.782 164.036 360.548 162.285 360.548C162.558 361.365 162.869 362.455 163.141 363.311C163.375 364.128 163.686 364.984 163.958 365.801Z" fill="#BD8682" stroke="black" stroke-width="0.33" stroke-linecap="round" stroke-linejoin="round"/>
<path fill-rule="evenodd" clip-rule="evenodd" d="M167.539 355.334C164.426 355.334 161.935 357.241 161.935 359.615C161.935 363 173.181 363.078 173.181 359.615C173.142 357.241 170.613 355.334 167.539 355.334Z" fill="#FFE600" stroke="black" stroke-width="0.33" stroke-linecap="round" stroke-linejoin="round"/>
<path fill-rule="evenodd" clip-rule="evenodd" d="M167.539 356.424C170.613 356.541 173.103 357.708 173.103 359.07C173.103 360.432 170.613 361.443 167.539 361.327C164.465 361.21 161.974 360.043 161.974 358.681C161.974 357.319 164.465 356.307 167.539 356.424Z" fill="#F8D5D3" stroke="black" stroke-width="0.33" stroke-linecap="round" stroke-linejoin="round"/>
<path fill-rule="evenodd" clip-rule="evenodd" d="M168.589 355.179C171.352 355.763 173.181 357.475 172.675 358.953C172.169 360.432 169.523 361.171 166.76 360.549C163.997 359.965 162.169 358.253 162.674 356.774C163.18 355.296 165.826 354.595 168.589 355.179Z" fill="#F8D5D3" stroke="black" stroke-width="0.33" stroke-linecap="round" stroke-linejoin="round"/>
<path fill-rule="evenodd" clip-rule="evenodd" d="M168.861 354.245C171.274 354.828 172.869 356.346 172.441 357.63C172.013 358.914 169.717 359.459 167.344 358.836C164.931 358.253 163.336 356.735 163.764 355.451C164.153 354.167 166.449 353.622 168.861 354.245Z" fill="#F8D5D3" stroke="black" stroke-width="0.33" stroke-linecap="round" stroke-linejoin="round"/>
<path fill-rule="evenodd" clip-rule="evenodd" d="M168.355 353.739C170.379 354.206 171.78 355.335 171.546 356.307C171.313 357.28 169.445 357.708 167.421 357.241C165.398 356.774 163.997 355.646 164.231 354.673C164.464 353.7 166.371 353.272 168.355 353.739Z" fill="#F8D5D3" stroke="black" stroke-width="0.33" stroke-linecap="round" stroke-linejoin="round"/>
<path fill-rule="evenodd" clip-rule="evenodd" d="M168.355 352.805C167.227 353.778 170.029 353.661 170.068 354.79C170.068 355.334 168.784 355.568 167.655 355.451C164.853 355.14 165.32 352.805 168.355 352.805Z" fill="#F8D5D3" stroke="black" stroke-width="0.33" stroke-linecap="round" stroke-linejoin="round"/>
<path d="M167.188 354.634C168.09 354.634 168.822 354.321 168.822 353.934C168.822 353.547 168.09 353.233 167.188 353.233C166.285 353.233 165.554 353.547 165.554 353.934C165.554 354.321 166.285 354.634 167.188 354.634Z" fill="black" stroke="black" stroke-width="0.33" stroke-linecap="round" stroke-linejoin="round"/>
<path d="M167.889 354.245C168.77 354.245 169.484 353.653 169.484 352.922C169.484 352.191 168.77 351.599 167.889 351.599C167.008 351.599 166.293 352.191 166.293 352.922C166.293 353.653 167.008 354.245 167.889 354.245Z" fill="#FFE600" stroke="black" stroke-width="0.33" stroke-linecap="round" stroke-linejoin="round"/>
<path opacity="0.3" d="M166.682 352.066C166.488 352.766 167.033 353.467 167.889 353.661C168.472 353.778 169.095 353.622 169.484 353.233C169.289 353.934 168.433 354.401 167.577 354.206C166.721 354.05 166.177 353.35 166.371 352.611C166.41 352.416 166.527 352.222 166.682 352.066Z" fill="black" stroke="black" stroke-width="0.33" stroke-linecap="round" stroke-linejoin="round"/>
<path d="M154.542 372.066C156.863 372.066 158.744 371.3 158.744 370.354C158.744 369.409 156.863 368.642 154.542 368.642C152.221 368.642 150.339 369.409 150.339 370.354C150.339 371.3 152.221 372.066 154.542 372.066Z" fill="black" stroke="black" stroke-width="0.33" stroke-linecap="round" stroke-linejoin="round"/>
<path fill-rule="evenodd" clip-rule="evenodd" d="M151.818 370.043C152.052 370.627 152.518 371.133 153.219 371.405C153.452 371.522 153.725 371.6 153.958 371.639C154.425 371.717 154.931 371.794 155.437 371.755C156.254 371.755 157.032 371.639 157.655 371.366C158.316 371.094 158.822 370.588 159.017 370.004C159.289 369.187 159.562 368.331 159.834 367.514C160.106 366.697 160.379 365.763 160.651 364.907C158.9 364.907 157.149 365.024 155.398 365.024C153.647 365.024 151.857 364.868 150.067 364.868C150.339 365.685 150.69 366.697 150.962 367.514L151.818 370.043Z" fill="#BD8682" stroke="black" stroke-width="0.33" stroke-linecap="round" stroke-linejoin="round"/>
<path fill-rule="evenodd" clip-rule="evenodd" d="M155.359 359.692C152.246 359.692 149.755 361.599 149.755 363.973C149.755 367.358 161.001 367.436 161.001 363.973C161.001 361.599 158.472 359.692 155.359 359.692Z" fill="#FF5A87" stroke="black" stroke-width="0.33" stroke-linecap="round" stroke-linejoin="round"/>
<path fill-rule="evenodd" clip-rule="evenodd" d="M155.359 360.782C158.433 360.899 160.923 362.066 160.923 363.428C160.923 364.79 158.433 365.802 155.359 365.685C152.285 365.568 149.794 364.401 149.794 363.039C149.794 361.677 152.285 360.704 155.359 360.782Z" fill="#F8D5D3" stroke="black" stroke-width="0.33" stroke-linecap="round" stroke-linejoin="round"/>
<path fill-rule="evenodd" clip-rule="evenodd" d="M156.448 359.576C159.211 360.16 161.04 361.872 160.534 363.35C160.028 364.829 157.382 365.568 154.619 364.946C151.856 364.323 150.027 362.65 150.533 361.171C151 359.693 153.646 358.953 156.448 359.576Z" fill="#F8D5D3" stroke="black" stroke-width="0.33" stroke-linecap="round" stroke-linejoin="round"/>
<path fill-rule="evenodd" clip-rule="evenodd" d="M156.682 358.603C159.094 359.187 160.689 360.704 160.261 361.989C159.833 363.273 157.538 363.817 155.164 363.195C152.751 362.611 151.156 361.094 151.584 359.809C152.012 358.564 154.308 358.02 156.682 358.603Z" fill="#F8D5D3" stroke="black" stroke-width="0.33" stroke-linecap="round" stroke-linejoin="round"/>
<path fill-rule="evenodd" clip-rule="evenodd" d="M156.214 358.097C158.238 358.564 159.639 359.692 159.405 360.665C159.133 361.638 157.304 362.066 155.281 361.599C153.257 361.132 151.856 360.004 152.09 359.031C152.362 358.058 154.191 357.669 156.214 358.097Z" fill="#F8D5D3" stroke="black" stroke-width="0.33" stroke-linecap="round" stroke-linejoin="round"/>
<path d="M153.18 358.564C153.141 358.953 154.308 359.77 155.203 359.77C156.098 359.77 156.565 359.653 156.565 359.264C156.565 358.875 154.892 359.303 154.931 358.564C155.009 356.891 153.257 358.097 153.18 358.564Z" fill="black" stroke="black" stroke-width="0.33" stroke-linecap="round" stroke-linejoin="round"/>
<path fill-rule="evenodd" clip-rule="evenodd" d="M155.903 356.969C155.32 357.008 154.658 356.813 154.152 357.436C153.646 358.059 153.491 359.848 156.059 359.848C158.627 359.848 158.705 357.864 157.849 357.164C156.993 356.463 156.37 356.969 155.903 356.969Z" fill="#FF5A87" stroke="black" stroke-width="0.33" stroke-linecap="round" stroke-linejoin="round"/>
<path d="M155.864 357.202C155.864 357.241 155.942 357.319 156.02 357.28C156.098 357.28 156.137 357.202 156.098 357.125C155.981 355.335 156.215 354.284 156.448 352.183C156.448 351.949 155.864 351.832 155.903 352.183C155.942 353.506 155.32 354.984 155.864 357.202Z" fill="#FFE600" stroke="black" stroke-width="0.33" stroke-linecap="round" stroke-linejoin="round"/>
<path d="M281.356 435.921C280.15 435.298 278.71 435.298 277.504 435.921C277.076 436.115 276.765 436.543 276.726 437.049C276.765 437.555 277.076 437.983 277.543 438.178C278.749 438.8 280.189 438.8 281.395 438.178C281.823 437.983 282.135 437.555 282.174 437.049C282.135 436.543 281.823 436.115 281.356 435.921Z" stroke="black" stroke-width="0.33" stroke-linejoin="round"/>
<path opacity="0.5" d="M228.124 448.139V388.876C228.124 388.876 228.591 390.549 237.424 395.647C246.296 400.744 282.601 421.795 282.601 421.795C286.22 423.936 288.477 427.827 288.516 432.029V484.055C288.593 485.455 288.049 486.856 287.037 487.829C285.714 488.14 284.313 487.946 283.107 487.284C281.161 486.156 239.837 462.419 234.817 459.307C230.848 456.972 228.319 452.769 228.124 448.139Z" fill="white"/>
<path d="M228.124 448.139V388.876C228.124 388.876 228.591 390.549 237.424 395.647C246.296 400.744 282.601 421.795 282.601 421.795C286.22 423.936 288.477 427.827 288.516 432.029V484.055C288.593 485.455 288.049 486.856 287.037 487.829C285.714 488.14 284.313 487.946 283.107 487.284C281.161 486.156 239.837 462.419 234.817 459.307C230.848 456.972 228.319 452.769 228.124 448.139Z" stroke="black" stroke-width="0.33" stroke-linejoin="round"/>
<path opacity="0.5" d="M198.241 342.337L198.163 393.234L180.73 403.312C169.329 409.888 150.963 410.122 138.978 403.974L133.608 400.861C131.507 399.693 129.756 397.981 128.549 395.88C127.615 394.012 127.187 391.989 127.265 389.888L127.187 339.964V338.29C127.148 336.89 127.732 335.567 128.744 334.594C128.744 334.594 130.378 333.777 132.674 335.1L135.009 336.423C148.433 344.166 170.068 344.205 183.376 336.5L185.867 335.061L198.241 342.337Z" fill="white"/>
<path d="M282.018 397.981C282.018 397.981 278.982 395.958 278.36 395.452C277.621 394.829 276.881 394.168 276.22 393.467C274.235 391.405 272.795 388.915 272.173 386.463V386.424C271.472 383.584 270.733 380.704 270.033 377.902C269.605 376.229 269.177 374.556 268.788 372.883L268.71 372.61L267.97 369.692C267.737 369.186 267.542 368.641 267.387 368.136C265.247 365.139 264.04 360.82 265.636 358.447C265.558 357.435 265.714 356.579 266.142 355.839C266.297 355.606 266.531 355.295 266.803 355.022C266.764 354.789 266.764 354.516 266.803 354.283C266.998 352.804 268.126 351.793 269.605 351.793C270.033 351.793 270.461 351.87 270.928 352.065C271.044 352.065 271.122 352.065 271.239 352.065C271.55 352.065 271.901 352.104 272.251 352.221C272.251 352.221 272.834 352.376 272.99 352.415C273.068 352.182 273.185 351.987 273.301 351.793C274.313 350.158 276.298 350.042 277.621 349.964C277.698 349.964 277.776 349.964 277.893 349.964L277.815 349.419C277.659 348.252 278.632 347.24 279.8 347.357C280.072 347.396 280.305 347.473 280.539 347.59C288.01 351.987 292.018 357.59 293.38 361.637C293.886 362.221 294.353 362.844 294.82 363.466C295.17 363.622 295.52 363.816 295.87 364.089C296.804 364.75 298.361 366.346 298.438 368.174C299.411 369.653 300.112 371.132 300.501 372.533C300.773 373.544 300.851 374.517 300.656 375.412C301.279 377.202 301.59 378.875 301.59 380.393C301.59 381.91 300.929 383.233 299.8 384.089C299.528 384.868 299.139 385.451 298.711 385.879L297.816 388.564H297.777L296.921 391.016C296.22 393.039 295.52 395.102 294.82 397.086V397.125C294.002 399.304 292.057 400.627 289.605 400.627C289.411 400.627 289.177 400.627 288.944 400.588C288.243 400.549 287.504 400.394 286.726 400.16C286.726 400.16 282.134 398.02 282.018 397.981Z" fill="#C9476A"/>
<path d="M282.407 395.647C282.407 395.647 279.372 393.623 278.749 393.117C278.01 392.495 277.27 391.833 276.609 391.133C274.624 389.071 273.185 386.58 272.562 384.129V384.09C271.862 381.249 271.122 378.37 270.422 375.568C269.994 373.895 269.566 372.222 269.177 370.548L269.099 370.276L268.359 367.358C268.126 366.852 267.931 366.307 267.776 365.801C265.636 362.805 264.429 358.486 266.025 356.112C265.947 355.1 266.103 354.244 266.531 353.505C266.686 353.272 266.92 352.96 267.192 352.688C267.153 352.454 267.153 352.182 267.192 351.949C267.387 350.47 268.515 349.458 269.994 349.458C270.422 349.458 270.85 349.536 271.317 349.731C271.433 349.731 271.511 349.731 271.628 349.731C271.939 349.731 272.29 349.77 272.64 349.886C272.64 349.886 273.223 350.042 273.379 350.081C273.457 349.847 273.574 349.653 273.69 349.458C274.702 347.824 276.687 347.707 278.01 347.629C278.087 347.629 278.165 347.629 278.282 347.629L278.204 347.085C278.048 345.917 279.021 344.906 280.189 345.022C280.461 345.061 280.695 345.139 280.928 345.256C288.399 349.653 292.407 355.256 293.769 359.303C294.275 359.887 294.742 360.509 295.209 361.132C295.559 361.287 295.909 361.482 296.259 361.754C297.193 362.416 298.75 364.011 298.827 365.84C299.8 367.319 300.501 368.797 300.89 370.198C301.162 371.21 301.24 372.183 301.045 373.078C301.668 374.868 301.979 376.541 301.979 378.058C301.979 379.576 301.318 380.899 300.189 381.755C299.917 382.533 299.528 383.117 299.1 383.545L298.205 386.23H298.166L297.31 388.681C296.609 390.705 295.909 392.767 295.209 394.752V394.791C294.392 396.97 292.446 398.293 289.994 398.293C289.8 398.293 289.566 398.293 289.333 398.254C288.633 398.215 287.893 398.059 287.115 397.826C287.115 397.826 282.523 395.686 282.407 395.647Z" fill="#5C2131"/>
<path d="M198.241 342.337L198.163 393.234L180.73 403.312C169.329 409.888 150.963 410.122 138.978 403.974L133.608 400.861C131.507 399.693 129.756 397.981 128.549 395.88C127.615 394.012 127.187 391.989 127.265 389.888L127.187 339.964V338.29C127.148 336.89 127.732 335.567 128.744 334.594C128.744 334.594 130.378 333.777 132.674 335.1L135.009 336.423C148.433 344.166 170.068 344.205 183.376 336.5L185.867 335.061L198.241 342.337Z" stroke="black" stroke-width="0.33" stroke-linejoin="round"/>
<path d="M303.263 367.28C303.458 366.385 303.38 365.412 303.107 364.4C302.718 362.999 302.018 361.521 301.045 360.042C300.967 358.213 299.411 356.618 298.477 355.956C298.088 355.684 297.738 355.451 297.426 355.334C296.959 354.711 296.492 354.089 295.987 353.505C294.625 349.458 290.578 343.855 283.146 339.458C282.912 339.341 282.679 339.224 282.406 339.224C281.978 339.185 281.55 339.302 281.239 339.497L276.025 342.493L275.402 344.244C275.169 344.166 274.857 344.088 274.857 344.088C274.507 344.01 274.196 343.933 273.846 343.933C273.729 343.933 273.651 343.933 273.534 343.933C273.067 343.777 272.639 343.66 272.211 343.66C271.511 343.66 270.888 343.894 270.382 344.322L265.246 347.24L267.62 351.793C267.114 354.205 268.242 357.552 269.954 360.003C270.11 360.509 270.305 361.015 270.538 361.56L271.277 364.478L271.355 364.75C271.783 366.424 272.211 368.097 272.6 369.77C273.301 372.611 274.04 375.49 274.741 378.292V378.331C275.402 380.782 276.842 383.234 278.787 385.335C279.449 386.035 280.188 386.736 280.928 387.319C281.589 387.864 284.585 389.849 284.585 389.849C284.663 389.888 286.725 390.86 288.087 391.483L289.8 394.79L294.625 391.989V391.95C295.87 391.366 296.843 390.355 297.348 388.954V388.915C298.049 386.93 298.749 384.868 299.45 382.845L300.306 380.393H300.345L301.24 377.708C301.668 377.28 302.057 376.696 302.329 375.918C303.458 375.062 304.119 373.739 304.119 372.222C304.197 370.743 303.886 369.07 303.263 367.28Z" fill="#FF92AF" stroke="black" stroke-width="0.33" stroke-linejoin="round"/>
<path d="M279.294 392.923C279.294 392.923 276.258 390.899 275.636 390.393C274.897 389.771 274.157 389.109 273.496 388.409C271.511 386.347 270.071 383.856 269.449 381.405V381.366C268.748 378.525 268.009 375.646 267.309 372.844C266.881 371.171 266.453 369.498 266.064 367.824L265.986 367.552L265.246 364.634C265.013 364.128 264.818 363.583 264.663 363.077C262.523 360.081 261.316 355.762 262.912 353.388C262.834 352.376 262.99 351.52 263.418 350.781C263.573 350.548 263.807 350.236 264.079 349.964C264.04 349.73 264.04 349.458 264.079 349.225C264.274 347.746 265.402 346.734 266.881 346.734C267.309 346.734 267.737 346.812 268.204 347.007C268.32 347.007 268.398 347.007 268.515 347.007C268.826 347.007 269.177 347.046 269.527 347.162C269.527 347.162 270.11 347.318 270.266 347.357C270.344 347.123 270.461 346.929 270.577 346.734C271.589 345.1 273.574 344.983 274.897 344.905C274.974 344.905 275.052 344.905 275.169 344.905L275.091 344.361C274.935 343.193 275.908 342.182 277.076 342.298C277.348 342.337 277.581 342.415 277.815 342.532C285.286 346.929 289.294 352.532 290.656 356.579C291.162 357.163 291.629 357.785 292.096 358.408C292.446 358.563 292.796 358.758 293.146 359.03C294.08 359.692 295.637 361.287 295.714 363.116C296.687 364.595 297.388 366.073 297.777 367.474C298.049 368.486 298.127 369.459 297.932 370.354C298.555 372.144 298.866 373.817 298.866 375.334C298.866 376.852 298.205 378.175 297.076 379.031C296.804 379.809 296.415 380.393 295.987 380.821L295.092 383.506H295.053L294.197 385.957C293.496 387.981 292.796 390.043 292.096 392.028V392.067C291.278 394.246 289.333 395.569 286.881 395.569C286.687 395.569 286.453 395.569 286.22 395.53C285.519 395.491 284.78 395.335 284.002 395.102C284.002 395.102 279.41 392.962 279.294 392.923Z" fill="#FF5A86" stroke="black" stroke-width="0.33" stroke-linejoin="round"/>
<path d="M296.531 375.335C296.531 373.817 296.142 372.144 295.442 370.393C295.714 369.809 295.753 368.992 295.52 368.058C295.053 366.385 294.119 364.868 293.263 363.622C293.34 363.506 293.379 363.35 293.34 363.155C293.34 362.377 292.445 361.327 291.745 360.821C291.161 360.393 290.811 360.276 290.617 360.315C289.955 359.381 289.294 358.447 288.515 357.63C287.348 353.583 283.146 348.174 276.219 344.205C280.11 349.458 270.655 344.906 272.561 349.458C272.445 349.536 272.289 349.614 272.172 349.692C271.433 350.081 269.721 349.536 268.826 349.303C268.437 349.186 268.126 349.264 267.892 349.381C267.269 348.991 266.413 348.719 266.336 349.42C266.336 349.575 266.374 349.809 266.452 350.003C266.53 350.159 266.647 350.314 266.764 350.47C266.803 350.509 266.88 350.587 266.919 350.626C266.686 351.015 266.452 351.326 266.063 351.404C264.974 351.637 264.896 352.649 265.246 353.933C265.09 354.128 264.935 354.322 264.74 354.517C263.845 355.684 264.546 359.225 266.647 361.91C266.803 362.494 267.036 363.078 267.308 363.7L268.009 366.346C268.476 368.253 268.982 370.198 269.449 372.105C270.188 374.946 270.888 377.825 271.589 380.666C272.133 382.689 273.418 384.868 275.091 386.658C275.713 387.281 276.336 387.903 276.997 388.409C277.931 389.187 278.904 389.849 279.877 390.433L280.266 390.666C280.422 390.744 280.577 390.861 280.733 390.939C280.85 391.016 281.005 391.094 281.122 391.172L281.589 391.444C283.379 392.378 285.013 393.001 286.336 393.079C288.01 393.234 289.294 392.534 289.799 391.094C290.5 389.071 291.2 387.047 291.901 385.024L293.302 380.938L293.613 380.043L293.846 379.343C294.43 378.915 294.78 378.253 294.897 377.358C295.909 377.164 296.531 376.424 296.531 375.335Z" fill="#FFE600" stroke="black" stroke-width="0.33" stroke-linecap="round" stroke-linejoin="round"/>
<path fill-rule="evenodd" clip-rule="evenodd" d="M271.744 380.783C272.289 382.806 273.573 384.985 275.247 386.775C275.869 387.398 276.492 388.02 277.153 388.565C278.359 389.538 279.644 390.394 280.889 391.094C282.99 392.301 284.936 393.079 286.531 393.196C288.204 393.351 289.488 392.651 289.994 391.211C290.695 389.188 291.395 387.164 292.095 385.141L294.197 379.071L267.503 363.661C268.203 366.502 268.943 369.343 269.643 372.222C270.344 375.102 271.044 377.942 271.744 380.783Z" fill="#FFAEC4" stroke="black" stroke-width="0.33" stroke-linecap="round" stroke-linejoin="round"/>
<path d="M280.499 376.074C280.577 377.787 279.993 388.876 280.032 390.628" stroke="#260D14" stroke-width="0.33" stroke-linecap="round" stroke-linejoin="round"/>
<path d="M281.745 391.561C281.784 389.888 282.601 378.915 282.64 377.242" stroke="#260D14" stroke-width="0.33" stroke-linecap="round" stroke-linejoin="round"/>
<path d="M275.013 372.533L276.764 388.098" stroke="#260D14" stroke-width="0.33" stroke-linecap="round" stroke-linejoin="round"/>
<path d="M278.515 389.343C278.515 389.343 277.931 376.152 277.815 374.323" stroke="#260D14" stroke-width="0.33" stroke-linecap="round" stroke-linejoin="round"/>
<path d="M270.499 368.681C270.888 370.588 273.418 383.117 273.807 385.024" stroke="#260D14" stroke-width="0.33" stroke-linecap="round" stroke-linejoin="round"/>
<path d="M275.208 386.775C274.896 384.752 272.951 371.016 272.951 371.016" stroke="#260D14" stroke-width="0.33" stroke-linecap="round" stroke-linejoin="round"/>
<path d="M289.878 379.81C289.878 379.81 287.193 391.211 286.881 392.884" stroke="#260D14" stroke-width="0.33" stroke-linecap="round" stroke-linejoin="round"/>
<path d="M288.477 392.884C288.477 392.884 291.628 381.6 292.018 380.121" stroke="#260D14" stroke-width="0.33" stroke-linecap="round" stroke-linejoin="round"/>
<path d="M285.013 378.098C285.013 378.098 283.379 390.355 283.262 392.067" stroke="#260D14" stroke-width="0.33" stroke-linecap="round" stroke-linejoin="round"/>
<path d="M285.014 392.806L287.348 379.304" stroke="#260D14" stroke-width="0.33" stroke-linecap="round" stroke-linejoin="round"/>
<path fill-rule="evenodd" clip-rule="evenodd" d="M280.85 356.268C272.99 351.716 266.608 353.661 266.608 360.549C266.608 370.432 295.131 387.087 295.131 377.008C295.092 370.082 288.71 360.821 280.85 356.268Z" fill="#C9476A" stroke="black" stroke-width="0.33" stroke-linecap="round" stroke-linejoin="round"/>
<path fill-rule="evenodd" clip-rule="evenodd" d="M280.266 353.233C271.9 348.408 268.243 350.392 264.896 354.634C263.729 356.073 265.207 361.365 268.71 363.895C271.278 365.724 273.107 368.914 277.114 371.055C279.955 372.533 282.873 375.646 285.558 376.736C287.971 377.747 288.983 376.23 291.901 377.319C294.391 378.253 296.57 377.475 296.57 375.335C296.57 368.486 288.632 358.058 280.266 353.233Z" fill="#BFAD00" stroke="black" stroke-width="0.33" stroke-linecap="round" stroke-linejoin="round"/>
<path d="M270.616 361.599C269.994 361.249 269.41 360.821 268.788 360.315C268.632 360.199 268.515 360.043 268.36 359.926C268.009 359.537 267.659 359.148 267.387 358.681C267.231 358.447 267.114 358.175 266.998 357.942C265.791 355.412 264.079 351.949 266.181 351.482C267.27 351.249 267.231 348.914 268.904 349.381C269.799 349.614 271.511 350.159 272.251 349.77C273.185 349.303 273.846 348.681 275.208 348.953C276.492 349.264 277.815 349.848 279.177 350.665C279.216 351.015 282.251 352.572 282.212 352.533C284.08 353.778 285.87 355.179 287.66 356.735C289.022 357.942 290.111 359.498 291.201 361.055C291.473 361.405 294.547 364.479 295.598 368.098C296.143 369.926 295.364 371.288 294.158 371.561C294.003 371.6 293.886 371.6 293.73 371.6H293.691C293.185 371.6 292.641 371.483 292.096 371.249L292.018 371.211C291.668 371.094 291.279 370.938 290.89 370.783L290.734 370.744C290.539 370.666 290.345 370.588 290.15 370.51L290.072 370.471C289.8 370.355 289.528 370.277 289.294 370.199L289.255 370.16C288.983 370.082 288.672 370.043 288.399 370.043H288.36C287.816 370.043 287.31 370.121 286.804 370.238L286.687 370.277C286.493 370.316 286.298 370.355 286.103 370.355H286.026H285.909C285.364 370.393 284.78 370.316 284.158 370.082L284.08 370.043C283.613 369.888 283.107 369.654 282.64 369.421C282.64 369.382 282.601 369.382 282.601 369.382C282.407 369.265 282.173 369.148 281.979 369.032C281.979 368.993 281.94 368.954 281.901 368.993C281.59 368.798 281.317 368.603 281.045 368.37" fill="#FFE600"/>
<path d="M270.616 361.599C269.994 361.249 269.41 360.821 268.788 360.315C268.632 360.199 268.515 360.043 268.36 359.926C268.009 359.537 267.659 359.148 267.387 358.681C267.231 358.447 267.114 358.175 266.998 357.942C265.791 355.412 264.079 351.949 266.181 351.482C267.27 351.249 267.231 348.914 268.904 349.381C269.799 349.614 271.511 350.159 272.251 349.77C273.185 349.303 273.846 348.681 275.208 348.953C276.492 349.264 277.815 349.848 279.177 350.665C279.216 351.015 282.251 352.572 282.212 352.533C284.08 353.778 285.87 355.179 287.66 356.735C289.022 357.942 290.111 359.498 291.201 361.055C291.473 361.405 294.547 364.479 295.598 368.098C296.143 369.926 295.364 371.288 294.158 371.561C294.003 371.6 293.886 371.6 293.73 371.6H293.691C293.185 371.6 292.641 371.483 292.096 371.249L292.018 371.211C291.668 371.094 291.279 370.938 290.89 370.783L290.734 370.744C290.539 370.666 290.345 370.588 290.15 370.51L290.072 370.471C289.8 370.355 289.528 370.277 289.294 370.199L289.255 370.16C288.983 370.082 288.672 370.043 288.399 370.043H288.36C287.816 370.043 287.31 370.121 286.804 370.238L286.687 370.277C286.493 370.316 286.298 370.355 286.103 370.355H286.026H285.909C285.364 370.393 284.78 370.316 284.158 370.082L284.08 370.043C283.613 369.888 283.107 369.654 282.64 369.421C282.64 369.382 282.601 369.382 282.601 369.382C282.407 369.265 282.173 369.148 281.979 369.032C281.979 368.993 281.94 368.954 281.901 368.993C281.59 368.798 281.317 368.603 281.045 368.37" stroke="black" stroke-width="0.33" stroke-linecap="round" stroke-linejoin="round"/>
<path fill-rule="evenodd" clip-rule="evenodd" d="M279.877 361.988C293.574 368.214 291.278 352.883 276.297 344.283C280.461 349.887 269.332 344.283 273.223 350.665" fill="#FFE600"/>
<path d="M279.877 361.988C293.574 368.214 291.278 352.883 276.297 344.283C280.461 349.887 269.332 344.283 273.223 350.665" stroke="black" stroke-width="0.33" stroke-linecap="round" stroke-linejoin="round"/>
<path d="M266.413 349.498C266.491 348.797 267.347 349.109 268.009 349.498C268.242 349.614 268.476 349.77 268.67 349.965C268.748 350.042 268.787 350.12 268.826 350.198C268.865 350.276 268.865 350.354 268.865 350.393C268.826 350.587 268.748 350.704 268.631 350.782C268.281 350.976 267.814 351.015 267.308 350.86C267.192 350.821 267.036 350.704 266.919 350.587C266.803 350.432 266.686 350.276 266.608 350.12C266.452 349.887 266.413 349.653 266.413 349.498Z" fill="#FFE600" stroke="black" stroke-width="0.33" stroke-linecap="round" stroke-linejoin="round"/>
<path d="M289.877 372.728C289.955 372.027 290.811 372.339 291.472 372.728C291.706 372.845 291.939 373 292.134 373.195C292.212 373.273 292.251 373.35 292.29 373.428C292.329 373.506 292.329 373.584 292.329 373.623C292.29 373.817 292.212 373.934 292.095 374.012C291.745 374.207 291.278 374.245 290.772 374.09C290.616 374.051 290.5 373.934 290.383 373.817C290.266 373.662 290.149 373.506 290.072 373.35C289.877 373.117 289.838 372.884 289.877 372.728Z" fill="#FFE600"/>
<path d="M270.344 356.735C271.005 358.175 269.449 358.447 268.515 357.086C267.931 356.268 268.204 355.568 268.632 355.296C269.137 354.906 270.032 356.035 270.344 356.735Z" fill="#FFFACC"/>
<path d="M274.624 355.763C275.168 355.724 276.102 355.996 276.491 356.891C276.803 357.631 276.414 358.292 275.908 358.292C275.324 358.37 274.507 357.825 274.001 357.008C273.495 356.113 274.04 355.802 274.624 355.763Z" fill="#FFFACC"/>
<path d="M282.678 366.113C283.223 366.074 284.157 366.346 284.546 367.28C284.858 367.981 284.468 368.681 283.963 368.681C283.379 368.759 282.562 368.214 282.056 367.397C281.55 366.424 282.095 366.113 282.678 366.113Z" fill="#FFE600" stroke="black" stroke-width="0.33" stroke-linecap="round" stroke-linejoin="round"/>
<path d="M274.39 351.638C273.923 350.86 274.234 350.509 274.74 350.509C275.246 350.509 275.946 350.626 276.452 351.288C276.958 351.949 276.491 352.299 276.18 352.494C275.713 352.65 274.896 352.494 274.39 351.638Z" fill="#FFE600" stroke="black" stroke-width="0.33" stroke-linecap="round" stroke-linejoin="round"/>
<path d="M279.488 348.836C280.227 348.642 280.967 349.77 281.628 350.432C281.745 350.548 281.862 350.665 281.978 350.782C282.173 350.937 282.328 351.171 282.445 351.404C282.484 351.443 282.484 351.482 282.484 351.521C282.679 352.144 281.978 351.91 281.589 351.755C280.967 351.521 280.266 351.21 279.682 350.548C279.371 350.198 279.177 349.809 279.099 349.42C279.099 349.303 279.099 349.186 279.099 349.109C279.215 348.953 279.332 348.875 279.488 348.836Z" fill="#FFFACC"/>
<path d="M282.601 357.747C283.184 357.747 284.313 358.253 284.819 359.109C285.597 360.315 284.819 360.86 283.807 360.198C283.068 359.693 281.472 357.747 282.601 357.747Z" fill="#FFE600" stroke="black" stroke-width="0.33" stroke-linecap="round" stroke-linejoin="round"/>
<path d="M286.842 357.591C287.192 357.942 287.426 358.408 287.348 358.72C287.153 359.109 286.57 358.681 286.18 358.253C285.908 357.98 284.857 356.93 285.247 356.735C285.558 356.58 286.414 357.202 286.842 357.591Z" fill="#FFE600" stroke="black" stroke-width="0.33" stroke-linecap="round" stroke-linejoin="round"/>
<path d="M280.772 370.782C281.122 371.132 281.356 371.599 281.278 371.911C281.083 372.3 280.5 371.872 280.11 371.444C279.838 371.171 278.787 370.121 279.177 369.926C279.488 369.77 280.383 370.393 280.772 370.782Z" fill="#FFE600"/>
<path d="M288.516 365.334C289.099 365.529 289.877 366.112 290.111 366.852C290.695 368.642 288.126 367.046 287.582 365.84C287.27 365.179 288.165 365.218 288.516 365.334Z" fill="#FFFACC"/>
<path d="M275.986 363.506C276.569 363.7 277.347 364.284 277.581 365.023C278.165 366.813 275.596 365.218 275.052 364.011C274.74 363.35 275.596 363.389 275.986 363.506Z" fill="#FFE600" stroke="black" stroke-width="0.33" stroke-linecap="round" stroke-linejoin="round"/>
<path d="M290.617 360.938C290.539 360.743 290.539 360.549 290.617 360.432C290.734 360.315 291.123 360.393 291.823 360.899C292.524 361.405 293.419 362.455 293.419 363.233C293.458 363.467 293.38 363.7 293.224 363.778C293.146 363.817 293.03 363.817 292.913 363.778C292.174 363.467 290.928 361.833 290.617 360.938Z" fill="#FFE600" stroke="black" stroke-width="0.33" stroke-linecap="round" stroke-linejoin="round"/>
<path d="M290.616 356.54L295.753 353.233" stroke="black" stroke-width="0.33" stroke-linejoin="round"/>
<path d="M292.057 358.369L295.092 356.54" stroke="black" stroke-width="0.33" stroke-linecap="round" stroke-linejoin="round"/>
<path d="M302.407 375.957L297.076 379.031" stroke="black" stroke-width="0.33" stroke-linejoin="round"/>
<path d="M297.893 370.354L303.263 367.28" stroke="black" stroke-width="0.33" stroke-linejoin="round"/>
<path d="M271.94 345.45L275.014 344.127" stroke="black" stroke-width="0.33" stroke-linecap="round" stroke-linejoin="round"/>
<path d="M156.876 303.348C156.876 300.235 158.939 299.807 161.196 301.13C161.974 301.558 162.48 301.986 162.947 302.453C163.414 302.919 163.608 303.386 163.608 303.892C163.608 304.437 163.258 304.787 162.791 304.515C162.441 304.32 161.896 303.698 161.39 303.425C160.184 302.725 159.367 302.997 159.367 304.787C159.367 306.694 160.651 308.056 161.663 308.64C162.168 308.912 162.48 308.873 162.83 309.068C163.453 309.418 163.725 310.04 163.725 310.507C163.725 311.052 163.53 311.286 163.063 311.247C162.519 311.169 161.818 310.896 161.118 310.507C158.939 309.184 156.876 306.538 156.876 303.348Z" fill="#FFE600" stroke="black" stroke-width="0.33" stroke-linecap="round" stroke-linejoin="round"/>
<path d="M168.628 314.788C166.488 313.542 165.243 311.597 165.243 308.834V304.865C165.243 304.087 165.749 303.776 166.41 304.165C167.072 304.554 167.578 305.41 167.578 306.227V310.585C167.578 311.636 168.044 312.297 168.706 312.686C169.367 313.076 169.795 312.92 169.795 311.908V307.511C169.795 306.733 170.301 306.461 170.963 306.85C171.624 307.239 172.13 308.095 172.13 308.873V312.881C172.169 315.41 170.846 316.072 168.628 314.788Z" fill="#FFE600" stroke="black" stroke-width="0.33" stroke-linecap="round" stroke-linejoin="round"/>
<path d="M174.232 316.578V310.274C174.232 309.457 174.699 309.146 175.438 309.574L176.995 310.469C178.94 311.597 180.419 313.192 180.419 315.566C180.419 317.706 179.174 318.29 176.956 317.006L176.606 316.811V317.979C176.606 318.757 176.1 319.068 175.438 318.679C174.777 318.251 174.232 317.356 174.232 316.578ZM176.995 314.749C177.656 315.138 177.967 314.866 177.967 314.243C177.967 313.465 177.617 312.998 177.072 312.686L176.644 312.414V314.515L176.995 314.749Z" fill="#FFE600" stroke="black" stroke-width="0.33" stroke-linecap="round" stroke-linejoin="round"/>
<path d="M181.703 317.667C181.703 314.554 183.765 314.126 186.022 315.449C186.8 315.877 187.306 316.305 187.773 316.772C188.24 317.239 188.434 317.706 188.434 318.212C188.434 318.756 188.084 319.107 187.617 318.834C187.267 318.64 186.722 318.017 186.216 317.745C185.01 317.044 184.193 317.317 184.193 319.107C184.193 321.013 185.477 322.375 186.489 322.959C186.995 323.231 187.306 323.192 187.656 323.387C188.279 323.737 188.551 324.36 188.551 324.827C188.551 325.371 188.357 325.605 187.89 325.566C187.345 325.488 186.644 325.216 185.944 324.827C183.765 323.504 181.703 320.858 181.703 317.667Z" fill="#FFE600" stroke="black" stroke-width="0.33" stroke-linecap="round" stroke-linejoin="round"/>
<path d="M196.84 329.73C196.84 330.469 196.373 330.702 195.75 330.352C195.127 330.002 194.661 329.379 194.505 328.407L194.427 327.979L192.287 326.733L192.209 327.006C192.015 327.784 191.548 327.901 191.003 327.551C190.186 327.084 189.797 325.994 190.03 325.294L191.664 320.196C191.898 319.379 192.598 319.223 193.454 319.729C194.31 320.235 194.933 321.13 195.166 322.22L196.801 329.146C196.801 329.418 196.84 329.574 196.84 329.73ZM193.299 322.181L192.559 324.749L194.077 325.605L193.299 322.181Z" fill="#FFE600" stroke="black" stroke-width="0.33" stroke-linecap="round" stroke-linejoin="round"/>
<path d="M205.4 334.671C205.4 335.411 204.895 335.644 204.272 335.294C203.883 335.061 203.494 334.633 203.182 333.971L201.548 330.197L200.887 330.235V331.986C200.887 332.765 200.381 333.076 199.719 332.687C199.058 332.298 198.513 331.403 198.513 330.625V324.126C198.513 323.348 199.019 323.076 199.719 323.465C200.381 323.854 200.887 324.71 200.887 325.527V327.94L202.949 325.955C203.221 325.683 203.611 325.761 203.922 325.916C204.505 326.266 204.972 327.006 204.972 327.667C204.972 327.94 204.895 328.251 204.622 328.446L203.26 329.574L205.05 333.543C205.284 333.893 205.4 334.321 205.4 334.671Z" fill="#FFE600" stroke="black" stroke-width="0.33" stroke-linecap="round" stroke-linejoin="round"/>
<path d="M212.56 338.797C212.56 339.419 212.132 339.692 211.587 339.38L208.201 337.435C207.462 337.007 206.995 336.189 206.995 335.333V329.146C206.995 328.329 207.462 328.018 208.201 328.446L211.509 330.353C212.054 330.664 212.482 331.403 212.482 332.026C212.482 332.648 212.054 332.921 211.509 332.61L209.369 331.364V332.415L211.081 333.427C211.626 333.738 212.054 334.477 212.054 335.1C212.054 335.723 211.626 335.995 211.081 335.684L209.369 334.672V335.878L211.548 337.123C212.132 337.435 212.56 338.174 212.56 338.797Z" fill="#FFE600" stroke="black" stroke-width="0.33" stroke-linecap="round" stroke-linejoin="round"/>
<path d="M217.696 338.446C217.696 335.333 219.759 334.905 222.016 336.228C222.794 336.656 223.3 337.084 223.767 337.551C224.234 338.018 224.428 338.485 224.428 338.991C224.428 339.536 224.078 339.886 223.611 339.613C223.261 339.419 222.716 338.796 222.21 338.524C221.004 337.823 220.187 338.096 220.187 339.886C220.187 341.792 221.471 343.154 222.483 343.738C222.988 344.01 223.3 343.972 223.65 344.166C224.273 344.516 224.545 345.139 224.545 345.606C224.545 346.151 224.35 346.384 223.883 346.345C223.339 346.267 222.638 345.995 221.938 345.606C219.72 344.283 217.696 341.637 217.696 338.446Z" fill="#FFE600" stroke="black" stroke-width="0.33" stroke-linecap="round" stroke-linejoin="round"/>
<path d="M225.751 343.155C225.751 340.158 227.269 339.263 229.876 340.742C232.444 342.221 233.923 344.789 233.923 347.746C233.923 350.781 232.444 351.637 229.837 350.12C227.23 348.641 225.751 346.112 225.751 343.155ZM231.432 346.345C231.432 344.711 230.849 343.466 229.837 342.882C228.825 342.299 228.242 342.882 228.242 344.516C228.242 346.112 228.825 347.396 229.837 347.98C230.849 348.563 231.432 347.941 231.432 346.345Z" fill="#FFE600" stroke="black" stroke-width="0.33" stroke-linecap="round" stroke-linejoin="round"/>
<path d="M235.09 351.715C235.09 350.859 235.595 350.548 236.335 350.976C237.074 351.404 237.58 352.26 237.58 353.155C237.58 354.011 237.074 354.322 236.335 353.894C235.595 353.427 235.09 352.571 235.09 351.715Z" fill="#FFE600" stroke="black" stroke-width="0.33" stroke-linecap="round" stroke-linejoin="round"/>
<path d="M306.493 478.49H242.755V558.026H306.493V478.49Z" fill="url(#paint1_linear)"/>
</g>
<defs>
<linearGradient id="paint0_linear" x1="166.541" y1="479.667" x2="205.584" y2="412.038" gradientUnits="userSpaceOnUse">
<stop offset="0.1392" stop-color="#FF5A86" stop-opacity="0"/>
<stop offset="0.494" stop-color="#FF769B"/>
</linearGradient>
<linearGradient id="paint1_linear" x1="233.5" y1="494.52" x2="312.426" y2="540.085" gradientUnits="userSpaceOnUse">
<stop stop-color="#FF5A86" stop-opacity="0"/>
<stop offset="0.3772" stop-color="#FF5A86" stop-opacity="0.04"/>
<stop offset="0.646" stop-color="#FF5A86"/>
</linearGradient>
<clipPath id="clip0">
<rect width="322" height="540" rx="16" fill="white"/>
</clipPath>
</defs>
</svg>
